<svg width="372" height="506" fill="none" xmlns="http://www.w3.org/2000/svg"><path d="M221.331 488.295s-4.567-15.934-2.348-17.132c2.217-1.199 7.532-1.855 8.807-.829 1.274 1.027 1.558 18.167-.416 20.476-1.975 2.311-4.677 1.686-6.043-2.515z" fill="#EFD9D3"/><path d="M205.487 499.738s-.127 2.362 1.968 3.413c5.2 2.606 22.419-.272 23.259-1.863.841-1.591.536-3.606.536-3.606l-25.763 2.056z" fill="#3E4268"/><path d="M222.345 482.593s4.451.092 6.465-.652c1.833-.677 3.489 15.692 1.961 17.656-1.525 1.963-12.485.419-12.485.419s1.413-3.921 2.241-8.475c.831-4.553-2.307-8.085 1.818-8.948z" fill="#3E4268"/><path d="M218.024 488.943s-3.777-7.281-.659-7.929c3.119-.648 4.023-.123 5.774.929 1.751 1.051-1.143 6.673-1.458 7.52-.313.848-3.657-.52-3.657-.52z" fill="#575E84"/><path d="M213.435 493.764s3.914.296 5.391 2.38c1.476 2.084 5.45-4.689 4.284-7.043-1.165-2.352-6.049-.687-6.049-.687s.951 4.575-3.626 5.35z" fill="#575E84"/><path d="M205.921 501.202c2.855 2.295 12.647 2.73 14.647.34 2.002-2.389-.35-11.102-9.242-9.065-3.667.841-7.405 7.117-5.405 8.725z" fill="#575E84"/><path opacity=".2" d="M212.97 492.929c-1.219.082-2.192.381-2.961.825.288.431.597.844.929 1.241.897-.548 2.108-.986 3.595-.82 3.421.382 3.513.505 3.513.505s-2.206-1.945-5.076-1.751zm-4.047 2.117a.706.706 0 0 0 .362 1.031.693.693 0 0 0 .751-.19c.155-.174.376-.399.652-.636a16.309 16.309 0 0 1-.924-1.234 4.738 4.738 0 0 0-.841 1.029z" fill="#fff"/><path d="m253.26 212.552-59.295 5.056s21.003 192.378 23.47 258.598l13.451-1.454s55.023-243.65 22.374-262.2z" fill="#3E4268"/><path opacity=".2" d="M247.613 374.754c-3.548-4.976-6.117-10.614-7.857-16.459-1.8-6.048-2.767-12.322-3.27-18.601-.274-3.43-.495-6.9-.371-10.34.154-4.234.647-8.445.992-12.662.653-7.935.763-15.979-2.984-23.225-3.437-6.651-8.655-12.183-12.504-18.584-1.957-3.256-3.55-6.739-4.252-10.49-.66-3.534-.613-7.227-.012-10.767.953-5.6 3.688-12.93-.063-18.063-3.352-4.59-9.058-6.258-14.355-4.309-2.751 1.012-5.142 2.838-6.958 5.121a7116.911 7116.911 0 0 0-2.016-18.765l59.295-5.055c18.685 10.616 8.653 94.95-3.344 165.154a49.058 49.058 0 0 1-2.301-2.955z" fill="#3E4268"/><path d="M283.475 489.949a73.757 73.757 0 0 0 1.102 3.702s7.811 13.329 12.085-1.975v-.007c.285-1.018.52-2.186.808-3.468 2.855-12.748-8.223-8.283-8.223-8.283s-3.633-2.041-6.357 1.111c-1.834 2.122-.615 4.487.585 8.92z" fill="#3E4268"/><path d="M293.505 466.667c-.107 6.271.94 18.881.94 18.881-1.679 5.481-5.17 6.352-7.785 3.397-1.954-2.207-4.261-15.134-6.345-22.106l13.19-.172z" fill="#EFD9D3"/><path d="M301.425 499.261s.579 3.097-.286 3.941c-3.491 3.408-17.314 3.727-20.177.827-1.426-1.444.323-5.404.323-5.404l20.14.636z" fill="#3E4268"/><path d="M293.987 475.705s.526 11.976-.76 14.269c-1.289 2.293-4.713 4.051-5.993 1.274-1.28-2.777-3.131-14.208-1.63-15.318 1.501-1.109 8.048-1.918 8.383-.225z" fill="#575E84"/><path d="M292.934 491.111s4.82-11.138 1.462-9.426c-4.28 2.18-6.323 1.272-9.547.634-2.544-.503 1.624 8.398 2.046 9.16.421.763 6.039-.368 6.039-.368z" fill="#575E84"/><path opacity=".2" d="M283.475 489.949a73.757 73.757 0 0 0 1.102 3.702s7.811 13.328 12.085-1.975v-.007a66.113 66.113 0 0 1-.423-1.9c-1.039-.838-2.164-1.454-3.278-1.693-4.324-.914-7.426.098-9.486 1.873z" fill="#231F20"/><path d="M300.869 501.188c-3.655 3.039-16.351 3.822-19.001.765-2.651-3.056.208-14.413 11.794-11.967 4.776 1.009 9.768 9.073 7.207 11.202z" fill="#575E84"/><path opacity=".2" d="M291.537 490.608c1.585.08 2.855.446 3.861 1.004a18.969 18.969 0 0 1-1.176 1.632c-1.176-.691-2.758-1.233-4.685-.984-4.432.573-4.548.733-4.548.733s2.82-2.573 6.548-2.385zm5.297 2.659a.915.915 0 0 1-.446 1.343.896.896 0 0 1-.977-.229 9.155 9.155 0 0 0-.861-.81c.417-.521.807-1.061 1.172-1.619.443.394.818.834 1.112 1.315z" fill="#fff"/><path d="M295.39 206.362c-.581-3.413-74.693 3.569-74.693 3.569l58.305 262.661 16.482-.214c0 .002 5.7-232.011-.094-266.016z" fill="#11314B"/><path opacity=".2" d="M283.939 235.636c-7.047 5.485-15.647 8.547-22.66 14.095-3.272 2.587-6.168 5.757-7.823 9.629-1.887 4.422-1.969 9.395-1.098 14.06.845 4.53 2.325 8.962 1.526 13.619-.491 2.859-1.843 5.385-3.025 7.999-1.145 2.53-2.26 5.074-3.276 7.655-1.534 3.894-2.794 7.894-3.633 11.995l-23.253-104.757s74.112-6.985 74.693-3.569c.524 3.07.951 7.767 1.299 13.747-3.058 5.995-7.34 11.318-12.75 15.527z" fill="#3E4268"/><path d="M338.388 32.568c-26.444-4.274-9.159-17.661-23.861-24.012-14.703-6.334-39.928 11.337-47.137 6.952-7.211-4.383-11.394-21.767-34.455-13.138-7.563 2.83-20.95 15.596-14.77 28.73 3.583 7.614 2.919 13.091 2.843 17.188-.121 7.219-1.612 11.483 4.957 23.642 10.302 19.06 28.477 1.014 49.27 15.582 22.879 16.048 42.947 20.922 58.725 18.568 18.549-2.761 31.201-15.54 35.612-31.96 8.154-30.424-4.724-37.277-31.184-41.552z" fill="#000"/><path opacity=".2" d="M316.836 97.412c-3.35-1.906-6.829-3.79-9.565-6.557-3.025-3.06-4.058-7.037-5.189-11.068-.632-2.254-1.35-4.475-2.538-6.506-1.323-2.26-3.174-4.217-5.064-6.013-3.7-3.511-7.992-6.3-12.244-9.084-3.706-2.426-7.438-4.947-9.694-8.88a14.853 14.853 0 0 1-1.915-6.265c-.177-2.564.536-5.084.45-7.646-.075-2.262-.881-4.295-2.536-5.85-1.554-1.458-3.513-2.478-5.323-3.572-2.491-1.508-4.729-3.352-6.776-5.396a133.89 133.89 0 0 1 3.207 15.319c1.55 10.377 2.062 20.91 1.81 31.393-.114 4.792-.335 9.61-.861 14.385 4.673.688 9.577 2.293 14.637 5.84 19.924 13.976 37.713 19.471 52.399 19.103-.075-.135-.137-.274-.217-.407-2.472-4.104-6.532-6.491-10.581-8.796z" fill="#3E4268"/><path d="M298.076 216.15c-.671-24.646-2.718-63.993-8.962-85.042 10.52-1.225 24.045-3.651 27.564-3.855-9.475-59.015-56.147-71.66-62.373-71.278-41.465 2.548-45.955 49.1-61.287 64.412-15.331 15.314 3.679 32.234 6.485 49.495 2.806 17.263-6.825 45.309-5.663 46.266 20.098 16.592 104.236.002 104.236.002z" fill="#9AAEF8"/><path opacity=".15" d="M283.639 201.147c3.321 4.546 9.483 10.041-4.911 18.232l19.348-3.227c-.671-24.646-2.721-63.993-8.962-85.042.21-.024.429-.053.644-.078-1.197-3.247-2.869-6.378-4.479-9.34-1.256-2.309-2.689-4.515-4.227-6.644-1.005-1.389-1.998-2.786-3.117-4.079 1.634 3.046 3.237 6.105 4.626 9.275 2.573 5.872 4.794 12.445 3.994 18.947-.182 1.486-.468 3.057-1.117 4.415-.728 1.524-1.848 2.796-2.91 4.092-.93 1.136-2.243 2.551-2.325 4.097-.072 1.313 1.076 2.323 1.315 3.587.515 2.737-1.017 5.001-3.019 6.704-2.223 1.89-4.839 3.303-7.207 4.999-5.89 4.217-11.694 8.72-18.511 11.293 5.655 3.632 11.578 6.829 17.194 10.524 5.119 3.367 10.023 7.259 13.664 12.245z" fill="#3E4268"/><path d="m289.062 130.92 3.604 29.955c-28.305 16.358-52.362 16.396-52.362 16.396l-2.857 9.118s35.358 8.596 65.907-6.917c17.736-9.007 10.688-39.664 11.588-51.994-8.383.716-19.576 1.816-25.88 3.442z" fill="#EBC0B8"/><path d="M266.762 188.354c-2.164-1.452-4.882-1.078-7.187-2.139-1.147-.528-2.172-1.389-2.795-2.497-.632-1.119-.436-2.275-.663-3.481-.364-1.935-2.295-3.297-4.068-4.279-7.301 1.303-11.743 1.313-11.743 1.313l-2.857 9.118s12.78 3.1 29.606 2.208c-.103-.079-.182-.169-.293-.243zm23.908-26.389c2.894.835 5.606 2.219 8.119 3.864 1.27.83 2.561 1.685 3.741 2.64.785.636 1.614 1.446 2.55 1.953-.48-1.697-1.834-3.143-3.039-4.373-1.732-1.767-3.702-3.341-5.231-5.298-2.702-3.457-3.882-8.31-4.273-12.599-.401-4.405.117-9.172 3.997-11.917 3.583-2.536 8.164-2.841 12.25-4.1 3.471-1.07 3.448-1.679 5.741-4.62-8.451.75-19.259 1.806-25.462 3.405l3.603 29.955c-.673.389-1.327.72-1.996 1.09z" fill="#E0AFA9"/><path d="M240.525 46.471s.775 3.105.472 8.49c-.088 1.528-2.172 12.222 2.555 13.273 8.049 1.794 13.618-6.39 13.618-6.39l-.098-27.936-16.547 12.563z" fill="#EBC0B8"/><path d="m240.39 52.155.227 6.158s8.808-.591 8.135-10.45l-8.362 4.292z" fill="#E0AFA9"/><path d="M226.925 24.404s4.065 30.052 12.268 28.44c8.611-1.691 16.217-9.293 17.294-14.281 1.078-4.99.585-4.653.585-4.653s2.931-.787 2.536-5.794c-.395-5.008-3.646-1.108-3.646-1.108s-12.118-12.895-19.423-11.375c-7.299 1.52-9.614 8.771-9.614 8.771z" fill="#EBC0B8"/><path d="M246.822 39.244c.18.759-.606 1.597-1.753 1.87-1.149.273-2.227-.122-2.407-.882-.18-.76.603-1.596 1.753-1.87 1.147-.272 2.225.123 2.407.882zm-15.967 2.877c.334.041.681.027 1.045-.061 1.166-.268 1.939-1.11 1.759-1.873-.178-.747-1.26-1.142-2.407-.874a2.76 2.76 0 0 0-1.1.505l.703 2.303z" fill="#E0AFA9"/><path d="M233.739 32.934a.322.322 0 0 1-.292-.143c-.06-.088-1.455-2.08-4.445-.509a.324.324 0 0 1-.475-.259.318.318 0 0 1 .074-.238.318.318 0 0 1 .099-.08c3.526-1.852 5.272.7 5.288.724a.323.323 0 0 1-.249.505zm6.305-.361a.33.33 0 0 1-.311-.177.346.346 0 0 1-.035-.123.337.337 0 0 1 .015-.126c.01-.03 1.002-2.943 5.334-2.313a.326.326 0 0 1-.094.646c-3.796-.554-4.614 1.843-4.62 1.868a.325.325 0 0 1-.289.224zm-3.158 8.377a1.237 1.237 0 0 1-.335-.025c-.701-.155-1.045-.91-1.059-.943a.321.321 0 0 1 .014-.292c1.047-1.868.577-4.262.571-4.285a.324.324 0 0 1 .253-.384.323.323 0 0 1 .385.253c.022.105.497 2.53-.555 4.573.105.164.295.389.534.442.223.047.485-.055.777-.311a.324.324 0 0 1 .458.03.324.324 0 0 1-.03.46c-.342.297-.679.459-1.013.481zm-3.959-5.33c.068 1.012-.44 1.87-1.131 1.916-.691.047-1.309-.736-1.376-1.748-.068-1.013.439-1.87 1.133-1.917.691-.047 1.307.736 1.374 1.749zm11.091-.74c.067 1.012-.44 1.869-1.131 1.916-.691.047-1.309-.736-1.376-1.749-.068-1.01.439-1.87 1.131-1.916.693-.045 1.308.738 1.376 1.748z" fill="#3E4268"/><path d="M234.26 45.71s3.817 1.432 7.84-.775c1.057 1.661-3.563 6.48-7.84.776z" fill="#FCFAF7"/><path d="m256.485 27.991.749 4.643s.983-2.348.99-4.052c.008-1.705-1.739-.59-1.739-.59z" fill="#E0AFA9"/><path d="M228.42 26.48c-.109-3.029 2.309-6.6 2.611-7.035-1.943 2.998-1.108 7.739-.922 8.645 2.836 2.325 7.162 3.992 11.794-1.007 9.22-9.955 14.012 2.765 14.012 2.765s1.386-12.55-7.412-15.596c-8.8-3.047-17.167.051-21.783 10.038 0 0 .618 1 1.7 2.19z" fill="#000"/><path d="m251.356 175.746-4.89-9.968-.677 9.358 5.567.61zm-116.419-70.945 10.993 9.737-9.295-.671-1.698-9.066z" fill="#E0AFA9"/><path fill-rule="evenodd" clip-rule="evenodd" d="m247.791 147.435-20.134 278.679L0 409.675l21.992-304.262 192.228 13.899 33.571 28.123z" fill="#fff"/><path fill-rule="evenodd" clip-rule="evenodd" d="m45.354 129.264 80.423 5.812-1.062 14.703-80.423-5.811 1.062-14.704z" fill="#D3DAEA"/><path d="m61.344 159.221-1.384 19.167-4.67-.337-6.955-12.386-.855 11.821-4.669-.337 1.385-19.168 4.669.338 6.951 12.441.86-11.877 4.668.338zm15.544 4.882-7.073-.512-.28 3.878 6.252.452-.26 3.603-6.251-.451-.305 4.204 7.072.512-.27 3.74-11.74-.849 1.385-19.167 11.74.849-.27 3.741zm2.975-3.545 4.997.36 1.748 14.151 4.422-13.705 5.133.37 2.268 14.19 3.794-13.75 5.023.364-6.381 18.805-5.65-.409-2.148-12.835-4.078 12.385-5.65-.409-3.478-19.517zm35.956 22.057c-4.123-.298-7.197-2.579-7.053-6.464l4.969.36c.031 1.484.908 2.259 2.217 2.356 1.364.098 2.289-.522 2.369-1.641.255-3.55-9.465-2.331-8.919-9.125.261-3.632 3.384-5.436 7.397-5.148 4.178.303 6.839 2.579 6.767 6.252l-5.051-.364c.006-1.235-.814-2.035-2.068-2.153-1.116-.109-2.004.405-2.092 1.605-.241 3.332 9.342 2.514 8.878 8.929-.231 3.221-2.937 5.716-7.414 5.393zm16.609-18.259-1.125 15.564 6.115.442-.26 3.603-10.784-.779 1.385-19.167 4.669.337zm20.511 5.242-7.072-.511-.28 3.877 6.252.452-.26 3.604-6.252-.452-.305 4.205 7.07.511-.27 3.741-11.741-.849 1.385-19.167 11.741.848-.268 3.741zm2.947-3.546 14.825 1.071-.27 3.741-5.078-.366-1.114 15.426-4.669-.337 1.114-15.427-5.078-.366.27-3.742zm16.821 1.214 14.826 1.072-.27 3.741-5.078-.366-1.115 15.426-4.669-.337 1.115-15.427-5.079-.366.27-3.743zm29.328 5.878-7.07-.511-.28 3.878 6.252.452-.26 3.603-6.252-.452-.305 4.205 7.072.511-.27 3.741-11.741-.849 1.385-19.167 11.741.849-.272 3.74zm11.823-2.904c4.698.34 6.849 3.211 6.608 6.543-.174 2.403-1.648 4.573-4.659 5.235l3.874 7.911-5.271-.381-3.462-7.524-1.119-.081-.523 7.235-4.67-.337 1.385-19.167 7.837.566zm-.554 3.857-2.894-.208-.344 4.751 2.894.208c1.747.127 2.632-.716 2.741-2.217.102-1.421-.649-2.407-2.397-2.534z" fill="#9AAEF8"/><path fill-rule="evenodd" clip-rule="evenodd" d="m41.09 193.991 80.423 5.811-1.063 14.703-80.422-5.811 1.062-14.703zM119.872 222.498l97.298 7.031-4.504 62.329-97.298-7.031 4.504-62.329zM39.45 216.685l68.354 4.939-4.504 62.33-68.355-4.94 4.504-62.329zM34.365 287.008l177.721 12.842-4.504 62.329-177.72-12.842 4.503-62.329z" fill="#D3DAEA"/><path fill-rule="evenodd" clip-rule="evenodd" d="m247.791 147.435-32.227 4.284-1.344-32.407 33.571 28.123z" fill="#F2F2F2"/><path d="M251.863 173.318s-19.654-3.254-20.674.336c-.477 1.679 4.203 3.069 9.36 4.131-6.354-1.068-13.453-1.428-13.101.564.27 1.532 7.847 3.015 12.938 4.275-3.569-.544-11.606-1.493-12.026.024-.531 1.935 6.89 3.896 11.829 4.62-2.969-.229-8.258-.456-8.426.974-.149 1.266 1.178 2.564 7.392 3.45 3.626.517 3.411 1.194 5.106 1.106 1.307-.067 2.671.006 3.698-.568 4.945-2.763 6.452-17.126 3.904-18.912z" fill="#EBC0B8"/><path opacity=".2" d="M232.234 188.52c.192-.65 2.325-.83 2.519-.687 0 0-.171 1.73-.335 2.012-.164.282-2.376-.675-2.184-1.325zm-3.657-5.704c.192-.648 2.325-.83 2.52-.687 0 0-.174 1.73-.338 2.012-.163.283-2.374-.675-2.182-1.325zm-.562-4.718c.192-.651 2.325-.833 2.519-.687 0 0-.172 1.73-.337 2.01-.162.282-2.373-.675-2.182-1.323zm3.881-4.575c.193-.648 2.326-.831 2.518-.687 0 0-.172 1.73-.335 2.012-.162.282-2.375-.677-2.183-1.325z" fill="#fff"/><path d="M248.757 189.72a.21.21 0 0 1-.113-.047.2.2 0 0 1-.018-.28c2.928-3.333 1.666-6.649 1.652-6.683a.203.203 0 0 1 .006-.16c1.458-3.004-.047-5.782-.063-5.808a.199.199 0 0 1 .149-.294.205.205 0 0 1 .146.042.191.191 0 0 1 .05.06c.068.118 1.596 2.941.109 6.098.184.561 1.067 3.794-1.753 7.005a.184.184 0 0 1-.165.067zm-4.322-11.158c-2.556-.235-5.773-.984-5.933-1.02a.202.202 0 0 1-.123-.089.2.2 0 0 1-.024-.149.195.195 0 0 1 .237-.147c.045.01 4.638 1.078 7.181 1.082a.2.2 0 0 1 .198.198.2.2 0 0 1-.198.199 17.044 17.044 0 0 1-1.338-.074zm-1.223 4.624c-2.272-.208-4.653-.683-4.683-.689a.199.199 0 0 1-.156-.233.194.194 0 0 1 .233-.156c.039.009 3.907.778 6.453.78a.197.197 0 1 1 0 .396c-.569 0-1.205-.039-1.847-.098zm-.677 4.657a45.132 45.132 0 0 1-4.438-.667.209.209 0 0 1-.071-.029.202.202 0 0 1-.083-.127.182.182 0 0 1 .001-.077.196.196 0 0 1 .233-.153c.035.006 3.624.75 6.17.752a.198.198 0 1 1 0 .397c-.57-.002-1.19-.039-1.812-.096z" fill="#E0AFA9"/><path d="M135.561 104.611s5.98 17.016 2.941 18.488c-1.421.69-3.397-3.266-5.15-7.7 1.947 5.5 3.381 11.774 1.551 11.772-1.409-.002-3.919-6.526-5.839-10.868 1.045 3.097 3.151 10.118 1.861 10.727-1.64.777-4.555-5.534-5.972-9.825.671 2.612 1.702 7.293.452 7.668-1.106.331-2.471-.649-4.234-6.052-1.028-3.154-1.601-2.855-1.787-4.381-.143-1.178-.423-2.38-.074-3.387 1.688-4.84 14.261-8.434 16.251-6.442z" fill="#EBC0B8"/><path opacity=".2" d="M125.08 124.498c.548-.274.376-2.204.217-2.354 0 0-1.516.426-1.741.616-.225.188.976 2.01 1.524 1.738zm5.659 2.368c.548-.272.376-2.202.216-2.353 0 0-1.515.425-1.74.615-.225.188.976 2.01 1.524 1.738zm4.297-.239c.55-.274.376-2.204.218-2.354 0 0-1.515.426-1.74.616-.227.19.973 2.01 1.522 1.738zm3.47-4.178c.548-.272.377-2.203.217-2.354 0 0-1.515.425-1.74.616-.225.19.977 2.012 1.523 1.738z" fill="#fff"/><path d="M121.421 109.951a.171.171 0 0 0 .051.083.175.175 0 0 0 .182.038.18.18 0 0 0 .08-.055c2.515-3.133 5.669-2.528 5.7-2.522.049.01.1 0 .141-.031 2.452-1.771 5.162-.863 5.191-.855a.176.176 0 0 0 .227-.11.203.203 0 0 0 .01-.069.175.175 0 0 0-.121-.158c-.116-.041-2.873-.961-5.456.859-.528-.076-3.551-.358-5.972 2.661a.181.181 0 0 0-.033.159zm10.629 2.107c.611 2.243 1.781 4.994 1.84 5.131a.18.18 0 0 0 .236.094.18.18 0 0 0 .094-.235c-.017-.039-1.688-3.968-2.091-6.234a.172.172 0 0 0-.074-.116.184.184 0 0 0-.064-.028.18.18 0 0 0-.215.206c.065.362.159.763.274 1.182zm-3.933 1.814a47.43 47.43 0 0 0 1.348 4.068.18.18 0 0 0 .231.102.176.176 0 0 0 .102-.231c-.014-.033-1.305-3.362-1.706-5.633a.172.172 0 0 0-.025-.065.178.178 0 0 0-.183-.08.18.18 0 0 0-.145.209c.092.507.224 1.065.378 1.63zm-4.045 1.333a40.573 40.573 0 0 0 1.29 3.853.18.18 0 0 0 .332.005.182.182 0 0 0 .015-.069.185.185 0 0 0-.014-.069c-.012-.03-1.235-3.114-1.638-5.384a.174.174 0 0 0-.137-.152.175.175 0 0 0-.139.025.177.177 0 0 0-.077.118.175.175 0 0 0 .001.072c.086.509.217 1.057.367 1.601z" fill="#E0AFA9"/><path d="m263.897 448.731 1.403-9.363c.452-3.118.898-6.237 1.266-9.362.192-1.561.366-3.125.507-4.69.153-1.564.268-3.131.348-4.698.069-1.566.108-3.137.034-4.701-.065-1.563-.239-3.136-.81-4.612a8.72 8.72 0 0 1 .831 2.227c.196.773.323 1.56.425 2.348.184 1.581.24 3.172.231 4.759-.016 3.176-.294 6.336-.66 9.479a142.142 142.142 0 0 1-1.471 9.371 125.256 125.256 0 0 1-2.104 9.242zM302.342 473.87l7.434-4.526c2.468-1.519 4.931-3.041 7.354-4.624a129.134 129.134 0 0 0 3.608-2.405 90.953 90.953 0 0 0 3.522-2.524c1.147-.875 2.278-1.771 3.337-2.746 1.064-.968 2.07-2.017 2.78-3.289a8.084 8.084 0 0 1-1.082 1.898c-.43.593-.91 1.147-1.407 1.683-1.008 1.062-2.097 2.039-3.221 2.968-2.252 1.859-4.645 3.526-7.079 5.119a129.946 129.946 0 0 1-7.481 4.483 114.72 114.72 0 0 1-7.765 3.963z" fill="#fff" opacity=".52"/><path d="M229.021 417.518a4.95 4.95 0 1 1-9.9 0 4.95 4.95 0 0 1 9.9 0z" fill="#F1F2FF"/><path d="M342.963 320.136c-4.05 9.269-7.848 17.96-11.412 26.129-.182.415-.722.648-1.209.525a284.083 284.083 0 0 1-43.703-14.849c-.458-.199-.744-.714-.636-1.154 2.147-8.651 4.434-17.856 6.87-27.673a.974.974 0 0 1 .493-.636l.004-.002a.992.992 0 0 1 .709-.096 281.878 281.878 0 0 1 48.379 16.439.983.983 0 0 1 .486.478.639.639 0 0 1 .058.141c.069.23.056.477-.039.698z" fill="#fff"/><path d="M324.892 331.679c-1.223-2.068-2.59-4.088-4.189-5.788a34.064 34.064 0 0 0 7.948-.812c5.063-1.086 9.945-2.973 14.369-5.622l.016-.01-.01-.017a1.016 1.016 0 0 0-.337-.464.887.887 0 0 1 .286.452 51.132 51.132 0 0 1-14.439 5.099c-3.012.595-5.845.816-8.508.687-1.548-1.511-3.307-2.736-5.34-3.462-2.237-.704-4.701-.761-7.258-.346-6.279-3.874-10.952-10.492-14.038-18.922a.991.991 0 0 1 .679-.102.98.98 0 0 0-.73.09l.01.016c1.242 3.653 2.724 7.305 4.851 10.529 2.228 3.62 4.999 6.477 8.173 8.555-6.674 1.339-13.815 5.599-19.077 9.544 5.62-3.624 13.334-7.876 20.214-8.82.401-.058.828-.109 1.223-.142 1.992-.167 3.886-.012 5.634.542 1.499.538 2.853 1.365 4.121 2.397.283.238.573.491.849.753 1.927 1.798 3.565 4.039 5.017 6.334 2.567 4.19 4.657 8.837 6.35 13.688-1.395-5.06-3.317-9.856-5.814-14.179z" fill="#6F4EB9"/><path d="M118.212 25.678c2.696 12.138 5.221 23.522 7.6 34.216.121.542-.248 1.168-.82 1.399A348.748 348.748 0 0 1 70.834 78.21c-.6.133-1.256-.17-1.466-.685L56.14 45.068a1.219 1.219 0 0 1 .026-.987l.002-.005c.129-.274.355-.491.634-.609a346.482 346.482 0 0 1 59.95-18.727 1.2 1.2 0 0 1 .83.122 1.223 1.223 0 0 1 .63.816z" fill="#fff"/><path d="M108.633 50.235c-2.712-1.168-5.535-2.185-8.353-2.712a41.783 41.783 0 0 0 7.303-6.565c4.242-4.747 7.721-10.159 10.196-15.993l.008-.02-.021-.009a1.262 1.262 0 0 0-.671-.217c.215.012.426.096.612.242a62.845 62.845 0 0 1-10.643 15.522c-2.559 2.774-5.213 5.046-7.952 6.848-2.632-.38-5.268-.322-7.81.431-2.732.922-5.221 2.65-7.459 4.917-9.041.703-18.476-2.483-27.65-8.619.129-.266.335-.478.601-.593a1.204 1.204 0 0 0-.658.62l.02.008c3.88 2.728 7.998 5.28 12.445 6.94 4.832 1.981 9.657 2.81 14.314 2.574-5.655 6.164-9.662 15.57-12.03 23.3 2.955-7.67 7.534-17.481 13.682-23.404a23.69 23.69 0 0 1 1.113-1.025c1.857-1.611 3.849-2.826 5.988-3.544 1.877-.552 3.82-.714 5.829-.603.452.032.924.071 1.388.133 3.215.39 6.467 1.43 9.572 2.654 5.585 2.303 11.025 5.401 16.224 8.993-5.056-4.025-10.439-7.396-16.048-9.878z" fill="#BAC8E5"/></svg>