<svg width="587" height="647" fill="none" xmlns="http://www.w3.org/2000/svg"><path d="M102.188 102.253c-21.18-22.354-50.222-27.943-64.87-12.485-14.646 15.459-9.35 46.112 11.83 68.466 7.833 8.443 17.445 14.813 28.052 18.593 9.053 3.174 17.21 8.688 23.73 16.039.348.386.703.769 1.064 1.151 15.041 15.875 34.867 20.689 44.283 10.75 9.416-9.939 4.855-30.864-10.186-46.738a64.58 64.58 0 0 0-1.09-1.123c-6.965-6.881-12.189-15.491-15.197-25.046-3.581-11.195-9.617-21.339-17.616-29.607z" fill="#97CC64"/><mask id="a" style="mask-type:luminance" maskUnits="userSpaceOnUse" x="29" y="81" width="123" height="129"><path fill-rule="evenodd" clip-rule="evenodd" d="M102.188 102.253c-21.18-22.354-50.222-27.943-64.87-12.485-14.646 15.459-9.35 46.112 11.83 68.466 7.833 8.443 17.445 14.813 28.052 18.593 9.053 3.174 17.21 8.688 23.73 16.039.348.386.703.769 1.064 1.151 15.041 15.875 34.867 20.689 44.283 10.75 9.416-9.939 4.855-30.864-10.186-46.738a64.58 64.58 0 0 0-1.09-1.123c-6.965-6.881-12.189-15.491-15.197-25.046-3.581-11.195-9.617-21.339-17.616-29.607z" fill="#fff"/></mask><g mask="url(#a)"><path d="M52.657 65.933c-36.307 155.948 68.204 64.471 98.52 169.545 30.316 105.074-160.593 1.237-160.593 1.237l-7.029-205.204" fill="#75AA3C"/></g><path d="M69.477 110.986c.848 4.529.204 9.228-1.826 13.317-.498 1 .938 1.888 1.437.885 2.238-4.505 2.942-9.684 1.994-14.671-.21-1.107-1.814-.638-1.605.467v.002z" fill="#75AA3C"/><rect width="25.309" height="34.48" rx="5.234" transform="matrix(.66638 .74561 -.70866 .70555 330.88 136.181)" fill="#589BF7"/><rect width="25.309" height="34.48" rx="5.234" transform="matrix(.66638 .74561 -.70866 .70555 302.81 164.128)" fill="#589BF7"/><rect width="277.179" height="518.715" rx="18.028" transform="matrix(.66638 .74561 -.70866 .70555 402.293 74.355)" fill="#589BF7"/><mask id="b" style="mask-type:luminance" maskUnits="userSpaceOnUse" x="41" y="82" width="539" height="558"><rect width="277.179" height="518.715" rx="18.028" transform="matrix(.66638 .74561 -.70866 .70555 402.293 74.355)" fill="#fff"/></mask><g mask="url(#b)"><path d="M-56.198 433.362 661.21 218.371 239.083 795.552l-96.665 24.919-208.485-239.322-52.859-68.214" fill="#2976DF"/></g><path d="m546.834 255.095-12.09-13.526c-3.968-4.359-10.533-4.498-14.663-.31-4.13 4.187-10.694 4.048-14.662-.31l-69.978-78.299c-3.891-4.435-3.639-11.359.562-15.467 4.202-4.107 4.453-11.032.562-15.467l-12.09-13.526c-12.182-13.382-32.335-13.808-45.015-.953L82.027 413.365c-12.899 12.611-13.67 33.869-1.725 47.485l122.359 136.906c12.181 13.381 32.334 13.808 45.014.952l297.434-296.126c12.9-12.611 13.672-33.871 1.725-47.487z" fill="#EFF3FC"/><rect width="211.957" height="211.291" rx="9.767" transform="matrix(.66638 .74561 -.70866 .70555 370.124 152.334)" fill="#EFF3FC"/><rect width="211.957" height="44.718" rx="11.35" transform="matrix(.66638 .74561 -.70866 .70555 204.344 317.384)" fill="#D6DCF2"/><rect width="211.957" height="44.718" rx="11.35" transform="matrix(.66638 .74561 -.70866 .70555 160.481 361.054)" fill="#D6DCF2"/><path d="M222.256 539.891c-10.937-3.087-21.286-8.147-30.59-14.956-2.223-1.624-4.321 2.208-2.115 3.819 9.613 7.012 20.3 12.222 31.591 15.401 1.112.313 2.255-.379 2.561-1.549.306-1.171-.34-2.383-1.447-2.715z" fill="#D6DCF2"/><path d="m467.855 101.571-10.58-.317-.946-.028c-16.5-.48-32.682-4.897-47.335-12.918l-.129-.07-10.15-5.547c1.32-3.93 2.73-7.824 4.228-11.682.105-.27.208-.54.315-.81 2.385-5.945 8.337-9.371 14.364-8.268.349.064.697.143 1.046.238l17.026 4.647 24.128 6.584c6.317 1.72 10.483 8.067 9.789 14.912-.078.773-.176 1.543-.264 2.314a262.18 262.18 0 0 1-1.492 10.945z" fill="#FF999A"/><path d="M447.798 164.709c-3.155 2.341-7.123 3.101-10.856 2.08l-6.493-1.772-16.132-4.403-14.311-3.905-4.13-1.127c-6.327-1.726-10.495-8.093-9.785-14.949.127-1.223.288-2.443.433-3.664a270.784 270.784 0 0 1 4.557-26.818 270.454 270.454 0 0 1 7.634-27.459l7.547 4.124 2.732 1.492c1.804.986 3.628 1.916 5.472 2.79 10.478 4.981 21.635 8.185 33.059 9.492 3.005.345 6.021.551 9.042.642l11.287.338a271.345 271.345 0 0 1-5.885 27.93 268.257 268.257 0 0 1-8.785 27.094c-.273.712-.54 1.427-.821 2.135-.957 2.408-2.54 4.481-4.565 5.98z" fill="#FE7578"/><mask id="c" style="mask-type:luminance" maskUnits="userSpaceOnUse" x="386" y="82" width="82" height="86"><path fill-rule="evenodd" clip-rule="evenodd" d="M447.798 164.709c-3.155 2.341-7.123 3.101-10.856 2.08l-6.493-1.772-16.132-4.403-14.311-3.905-4.13-1.127c-6.327-1.726-10.495-8.093-9.785-14.949.127-1.223.288-2.443.433-3.664a270.784 270.784 0 0 1 4.557-26.818 270.454 270.454 0 0 1 7.634-27.459l7.547 4.124 2.732 1.492c1.804.986 3.628 1.916 5.472 2.79 10.478 4.981 21.635 8.185 33.059 9.492 3.005.345 6.021.551 9.042.642l11.287.338a271.345 271.345 0 0 1-5.885 27.93 268.257 268.257 0 0 1-8.785 27.094c-.273.712-.54 1.427-.821 2.135-.957 2.408-2.54 4.481-4.565 5.98z" fill="#fff"/></mask><g mask="url(#c)" fill="#E55A61"><path d="M383.909 148.995c70.067 16.482 69.958-1.41 77.192-15.776 7.234-14.365 6.307 31.923 6.307 31.923s-17.658 14.772-18.972 15.166c-1.313.394-62.325-15.109-62.325-15.109l-5.3-1.707M441.639 113.535c-7.201 4.466-16.445 2.34-21.232-4.883-4.787-7.224-3.51-17.117 2.934-22.725 6.443-5.609 15.889-5.047 21.695 1.289 5.807 6.336 6.024 16.318.498 22.929a16.328 16.328 0 0 1-3.895 3.39z"/></g><path d="M440.648 110.029c-3.928 2.447-8.658 3.011-13.005 1.551-5.421-1.811-9.53-6.515-10.8-12.365-1.271-5.85.487-11.973 4.621-16.095a15.937 15.937 0 0 1 6.781-4.032c6.994-2.032 14.41 1.141 18.088 7.74 2.164 3.872 2.781 8.493 1.715 12.845s-3.728 8.077-7.4 10.356z" fill="#FFC562"/><path d="M438.262 105.753c-2.778 1.73-6.123 2.129-9.196 1.097a11.19 11.19 0 0 1-4.505-2.853c-2.904-3.002-4.068-7.413-3.05-11.567 1.018-4.153 4.061-7.417 7.98-8.556 3.928-1.137 8.132.032 11.02 3.063a12.176 12.176 0 0 1 2.811 4.87c1.603 5.326-.498 11.113-5.061 13.945l.001.001z" fill="#FF9763"/><path d="M450.414 81.293c.353.083.687.237.985.453.143.094.277.203.397.327.142.138.275.287.398.445.06.076-.013-.024.046.064l.073.109a4.454 4.454 0 0 1 .292.528c.034.07.064.144.089.218.134.353.205.728.211 1.108a.505.505 0 0 0 .492.505.505.505 0 0 0 .491-.505c-.069-2.009-1.373-3.735-3.213-4.254a.489.489 0 0 0-.604.363.523.523 0 0 0 .343.638v.001z" fill="#FE7578"/><path d="M405.227 137.159c1.598 2.99 4.399 5.049 7.61 5.594a.505.505 0 0 0 .605-.362.525.525 0 0 0-.343-.638c-2.961-.479-5.55-2.365-7.023-5.118-.309-.583-1.159-.06-.849.524z" fill="#E55A61"/><ellipse cx="82.47" cy="41.36" rx="82.47" ry="41.36" transform="matrix(.22421 -.97454 .9687 .24827 25.69 521.597)" fill="#FFC562"/><mask id="d" style="mask-type:luminance" maskUnits="userSpaceOnUse" x="40" y="370" width="89" height="163"><ellipse cx="82.47" cy="41.36" rx="82.47" ry="41.36" transform="matrix(.22421 -.97454 .9687 .24827 25.69 521.597)" fill="#fff"/></mask><g mask="url(#d)"><path d="M45.092 398.211c69.701-47.504 86.455 1.792 91.112 24.437 4.657 22.645 1.02-46.104 1.02-46.104L96.928 336.77l-16.804 7.764" fill="#D89D35"/></g><path d="M93.06 388.001c18.624-3.889 30.938 21.006 27.502 55.598-3.439 34.608-21.325 65.806-39.95 69.695-18.63 3.891-30.945-21.003-27.507-55.609 3.437-34.593 21.323-65.794 39.955-69.684z" fill="#E84B23"/><mask id="e" style="mask-type:luminance" maskUnits="userSpaceOnUse" x="52" y="387" width="70" height="127"><path fill-rule="evenodd" clip-rule="evenodd" d="M93.06 388.001c18.624-3.889 30.938 21.006 27.502 55.598-3.439 34.608-21.325 65.806-39.95 69.695-18.63 3.891-30.945-21.003-27.507-55.609 3.437-34.593 21.323-65.794 39.955-69.684z" fill="#fff"/></mask><g mask="url(#e)"><path d="M83.007 393.761c18.625-3.89 30.938 21.005 27.502 55.598-3.438 34.607-21.325 65.806-39.95 69.695-18.63 3.891-30.944-21.004-27.506-55.61 3.436-34.593 21.323-65.793 39.954-69.683z" fill="#FF9763"/></g><path d="M29.443 520.417c.216.172.429.352.648.517.265.199.538.381.808.567.22.151.436.311.658.454.282.18.57.34.856.508.219.128.435.265.657.385.308.166.623.311.935.461.208.099.412.209.622.302.354.157.718.29 1.08.427.175.066.346.143.522.204.542.188 1.09.354 1.645.497l27.84 7.135a20.458 20.458 0 0 1-1.645-.496c-.178-.062-.35-.14-.527-.207-.36-.136-.722-.269-1.076-.425-.21-.093-.416-.204-.624-.304-.313-.15-.627-.294-.933-.459-.22-.119-.436-.256-.654-.382-.287-.168-.577-.331-.86-.511-.22-.142-.435-.3-.653-.45-.272-.188-.546-.37-.812-.57-.22-.164-.432-.345-.648-.517-.258-.207-.517-.409-.77-.628-.215-.186-.424-.386-.635-.579-.245-.226-.493-.448-.734-.686-.209-.204-.412-.425-.616-.64-.235-.246-.472-.489-.702-.747-.202-.224-.397-.461-.595-.695-.225-.266-.45-.53-.671-.807-.194-.244-.383-.501-.574-.753-.214-.285-.43-.568-.639-.863-.187-.264-.369-.538-.552-.811-.203-.302-.407-.603-.605-.915-.18-.282-.353-.574-.528-.865a45.764 45.764 0 0 1-.575-.973c-.17-.299-.335-.606-.5-.913-.184-.34-.367-.68-.545-1.028-.161-.317-.318-.641-.475-.965a58.603 58.603 0 0 1-.512-1.08c-.152-.335-.3-.676-.448-1.018-.162-.372-.321-.745-.477-1.125a64.45 64.45 0 0 1-.422-1.07 59.196 59.196 0 0 1-1.112-3.111c-.078-.239-.161-.467-.236-.706a75.938 75.938 0 0 1-.842-2.836c-.059-.213-.11-.433-.167-.647-.205-.768-.4-1.547-.588-2.338-.08-.339-.155-.681-.23-1.024a88.562 88.562 0 0 1-.447-2.139c-.074-.375-.147-.746-.217-1.123a92.905 92.905 0 0 1-.29-1.691c-.07-.417-.14-.834-.204-1.259-.09-.593-.171-1.196-.252-1.8-.055-.412-.113-.82-.164-1.237-.08-.653-.147-1.317-.216-1.981-.039-.38-.083-.755-.12-1.139a119.61 119.61 0 0 1-.2-2.533c-.016-.223-.037-.44-.052-.664a122.16 122.16 0 0 1-.168-3.308c-.012-.307-.015-.62-.025-.928-.024-.813-.047-1.628-.057-2.455-.005-.426 0-.86 0-1.29 0-.719-.002-1.439.008-2.168.007-.477.021-.958.033-1.437.016-.695.035-1.391.064-2.094.017-.437.04-.879.061-1.319.048-.99.107-1.989.175-2.995.029-.408.055-.817.086-1.227.106-1.382.226-2.773.372-4.181.16-1.537.346-3.068.55-4.593.064-.488.14-.972.209-1.458.148-1.042.302-2.081.47-3.116.073-.448.151-.894.228-1.341.347-2.031.721-4.052 1.141-6.051.025-.121.055-.239.08-.359.413-1.94.864-3.861 1.341-5.766.082-.328.162-.658.245-.986.49-1.906 1.013-3.791 1.568-5.654.11-.374.223-.743.337-1.114a155.93 155.93 0 0 1 1.805-5.586c.056-.162.116-.319.172-.481a145.538 145.538 0 0 1 1.924-5.187c.11-.282.217-.567.329-.847.69-1.733 1.406-3.434 2.15-5.102.15-.338.301-.673.453-1.009.759-1.674 1.536-3.32 2.342-4.921.089-.177.182-.347.27-.523.776-1.523 1.571-3.009 2.387-4.457.137-.245.271-.495.41-.737a114.52 114.52 0 0 1 1.991-3.361c.044-.071.09-.136.134-.209a98.692 98.692 0 0 1 1.932-2.99c.226-.338.457-.664.685-.996.482-.7.967-1.391 1.457-2.065a83.848 83.848 0 0 1 2.249-2.954c.278-.349.555-.701.834-1.043.302-.367.607-.724.91-1.081.353-.413.705-.823 1.06-1.223.31-.347.62-.685.932-1.02a60.108 60.108 0 0 1 2.026-2.099 58.592 58.592 0 0 1 4.072-3.684c.392-.32.785-.629 1.18-.932.296-.228.593-.457.89-.675.403-.295.806-.574 1.212-.85.291-.2.582-.403.875-.593.426-.277.854-.533 1.282-.789.273-.163.548-.335.821-.49.414-.234.83-.443 1.245-.657.308-.159.616-.329.925-.477.435-.208.87-.388 1.309-.574.29-.124.58-.261.87-.375.487-.19.974-.349 1.462-.51.243-.081.484-.177.727-.251.731-.221 1.464-.411 2.198-.57.585-.125 1.158-.193 1.733-.275.366-.051.736-.12 1.096-.154.514-.049 1.018-.055 1.524-.068.332-.009.668-.038.996-.032.553.01 1.094.066 1.637.118.268.025.543.028.81.064a20.77 20.77 0 0 1 2.367.458l-27.84-7.135a20.578 20.578 0 0 0-2.37-.458c-.264-.036-.537-.039-.805-.064-.543-.052-1.086-.108-1.64-.118-.328-.006-.665.023-.997.032-.506.013-1.01.02-1.524.068-.36.034-.73.102-1.093.154-.414.058-.822.093-1.241.174a26.728 26.728 0 0 0-2.693.672c-.244.074-.487.17-.73.252-.487.162-.973.321-1.459.51-.29.114-.58.251-.87.375-.437.186-.874.367-1.31.575-.308.147-.614.316-.92.474-.355.182-.71.35-1.062.547-.062.034-.124.076-.187.112-.274.155-.547.326-.82.49-.429.256-.858.513-1.284.79-.29.188-.58.391-.87.589-.407.278-.814.559-1.218.855-.297.219-.593.447-.889.674a44.784 44.784 0 0 0-2.07 1.68c-.19.163-.383.314-.573.481-.19.167-.37.344-.555.51a60.124 60.124 0 0 0-2.056 1.947 64.7 64.7 0 0 0-.95.958 82.257 82.257 0 0 0-2.005 2.161c-.355.399-.706.808-1.058 1.221-.305.358-.61.714-.912 1.082-.113.137-.228.266-.34.405-.167.206-.33.431-.495.64a88.97 88.97 0 0 0-3.704 5.015c-.229.334-.46.661-.688 1-.65.969-1.289 1.96-1.92 2.973l-.145.227a113.234 113.234 0 0 0-1.993 3.361c-.05.09-.104.173-.155.262-.086.152-.164.316-.25.467a122.642 122.642 0 0 0-2.39 4.464c-.09.176-.182.345-.27.522a133.703 133.703 0 0 0-2.343 4.922 139.545 139.545 0 0 0-2.604 6.112c-.11.279-.217.564-.327.845a161.934 161.934 0 0 0-1.927 5.197c-.055.158-.114.311-.168.469a156.7 156.7 0 0 0-1.806 5.589c-.113.371-.226.741-.337 1.115a167.033 167.033 0 0 0-1.567 5.652c-.085.328-.163.659-.246.987-.477 1.902-.928 3.82-1.34 5.759-.026.122-.055.242-.08.364-.42 1.998-.794 4.018-1.141 6.048-.038.225-.09.446-.127.672-.037.226-.064.45-.102.674a152.545 152.545 0 0 0-.468 3.106c-.07.489-.146.976-.211 1.466-.204 1.526-.39 3.056-.548 4.594a155.807 155.807 0 0 0-.372 4.178c-.032.414-.057.823-.086 1.234-.068 1.004-.127 2-.175 2.989-.012.25-.032.506-.044.755-.008.19-.01.376-.017.565a155.75 155.75 0 0 0-.064 2.089c-.012.482-.026.966-.032 1.445-.01.724-.01 1.439-.009 2.154 0 .435-.003.873.002 1.304.01.817.033 1.625.056 2.429.01.317.014.639.025.953.043 1.114.1 2.214.168 3.301l.003.052c.015.227.037.447.054.672.059.832.121 1.66.197 2.475.036.39.08.771.12 1.157.069.658.136 1.316.215 1.962.05.421.11.834.165 1.25.08.6.162 1.198.25 1.788.065.426.136.845.206 1.265.093.566.188 1.129.29 1.684.03.164.055.335.085.498.04.213.09.415.131.627.142.722.291 1.434.447 2.137.076.343.151.687.23 1.026.188.796.384 1.58.59 2.35.057.209.108.424.165.631.266.968.547 1.915.843 2.841.075.238.158.467.235.703.226.687.46 1.365.703 2.029.048.129.09.266.137.394.088.236.183.46.274.694.138.357.277.714.419 1.063.156.382.316.756.477 1.128.149.343.297.685.45 1.019.167.365.338.721.51 1.075.157.326.315.652.477.971.177.346.358.684.54 1.02.167.309.333.619.505.921.187.329.38.647.572.968.176.291.35.584.53.867.198.313.401.613.604.916.184.272.366.547.554.811.208.293.422.575.635.858.193.255.382.513.578.759.218.274.442.536.665.8.2.235.397.477.6.702.23.257.467.5.701.745.205.215.407.434.616.639.242.239.49.463.738.69.21.194.419.393.631.579.253.213.514.416.771.623z" fill="#FF9763"/><mask id="f" style="mask-type:luminance" maskUnits="userSpaceOnUse" x="12" y="363" width="91" height="169"><path fill-rule="evenodd" clip-rule="evenodd" d="M29.443 520.417c.216.172.429.352.648.517.265.199.538.381.808.567.22.151.436.311.658.454.282.18.57.34.856.508.219.128.435.265.657.385.308.166.623.311.935.461.208.099.412.209.622.302.354.157.718.29 1.08.427.175.066.346.143.522.204.542.188 1.09.354 1.645.497l27.84 7.135a20.445 20.445 0 0 1-1.645-.496c-.178-.062-.35-.14-.527-.207-.36-.136-.722-.269-1.076-.425-.21-.093-.416-.204-.625-.304-.312-.15-.626-.294-.932-.459-.22-.119-.436-.256-.654-.382-.287-.168-.577-.331-.86-.511-.22-.142-.435-.3-.653-.45-.272-.188-.546-.37-.812-.57-.22-.164-.432-.345-.648-.517-.258-.207-.518-.409-.77-.628-.215-.186-.424-.386-.635-.579-.245-.226-.493-.448-.734-.686-.209-.204-.412-.425-.616-.64-.236-.246-.472-.489-.702-.747-.202-.224-.397-.461-.595-.695-.225-.266-.45-.53-.671-.807-.194-.244-.383-.501-.574-.753-.214-.285-.43-.568-.639-.863-.187-.264-.369-.538-.552-.811-.203-.302-.407-.603-.605-.915-.18-.282-.353-.574-.528-.865a46.193 46.193 0 0 1-.575-.973c-.17-.299-.335-.606-.5-.913-.184-.34-.367-.68-.545-1.028-.161-.317-.318-.641-.475-.965a59.26 59.26 0 0 1-.512-1.08c-.152-.335-.3-.676-.448-1.018-.162-.372-.321-.745-.477-1.125a64.45 64.45 0 0 1-.422-1.07 59.196 59.196 0 0 1-1.112-3.111c-.078-.239-.161-.467-.236-.706a75.938 75.938 0 0 1-.842-2.836c-.059-.213-.11-.433-.168-.647-.204-.768-.4-1.547-.587-2.338-.08-.339-.155-.681-.23-1.024a88.083 88.083 0 0 1-.447-2.139c-.074-.375-.147-.746-.217-1.123a92.908 92.908 0 0 1-.29-1.691c-.07-.417-.14-.834-.204-1.259-.09-.593-.171-1.196-.252-1.8-.055-.412-.113-.82-.164-1.237-.08-.653-.148-1.317-.216-1.981-.039-.38-.083-.755-.12-1.139a118.95 118.95 0 0 1-.2-2.533c-.016-.223-.037-.44-.052-.664a122.16 122.16 0 0 1-.168-3.308c-.012-.307-.015-.62-.025-.928-.024-.813-.047-1.628-.057-2.455-.005-.426 0-.86 0-1.29 0-.719-.002-1.439.008-2.168.007-.477.021-.958.032-1.437.017-.695.036-1.391.065-2.094.017-.437.04-.879.061-1.319.048-.99.107-1.989.175-2.995.029-.408.055-.817.086-1.227.106-1.382.226-2.773.372-4.181.16-1.537.346-3.068.55-4.593.064-.488.14-.972.209-1.458.148-1.042.302-2.081.47-3.116.073-.448.151-.894.228-1.341.347-2.031.721-4.052 1.141-6.051.025-.121.055-.239.08-.359.413-1.94.864-3.861 1.341-5.766.082-.328.162-.658.245-.986.49-1.906 1.013-3.791 1.568-5.654.11-.374.223-.743.337-1.114a155.93 155.93 0 0 1 1.805-5.586c.056-.162.116-.319.172-.481a145.538 145.538 0 0 1 1.924-5.187c.11-.282.217-.567.329-.847.69-1.733 1.406-3.434 2.15-5.102.15-.338.301-.673.453-1.009.759-1.674 1.536-3.32 2.342-4.921.089-.177.182-.347.27-.523.776-1.523 1.571-3.009 2.387-4.457.137-.245.271-.495.41-.737a114.3 114.3 0 0 1 1.991-3.361c.044-.071.09-.136.134-.209a98.692 98.692 0 0 1 1.932-2.99c.226-.338.457-.664.685-.996.482-.7.967-1.391 1.457-2.065a83.846 83.846 0 0 1 2.249-2.954c.278-.349.555-.701.834-1.043.302-.367.607-.724.91-1.081.353-.413.705-.823 1.06-1.223.31-.347.62-.685.932-1.02a60.108 60.108 0 0 1 2.026-2.099 58.592 58.592 0 0 1 4.072-3.684c.392-.32.785-.629 1.18-.932.296-.228.593-.457.89-.675.403-.295.806-.574 1.212-.85.291-.2.582-.403.875-.593.426-.277.854-.533 1.282-.789.273-.163.548-.335.821-.49.414-.234.83-.443 1.245-.657.308-.159.616-.329.925-.477.435-.208.87-.388 1.309-.574.29-.124.58-.261.87-.375.487-.19.974-.349 1.462-.51.243-.081.484-.177.727-.251.731-.221 1.464-.411 2.198-.57.585-.125 1.158-.193 1.733-.275.366-.051.736-.12 1.096-.154.514-.049 1.018-.055 1.524-.068.332-.009.668-.038.996-.032.553.01 1.094.066 1.637.118.268.025.543.028.809.064.797.107 1.588.259 2.368.458l-27.84-7.135a20.575 20.575 0 0 0-2.37-.458c-.264-.036-.538-.039-.805-.064-.543-.052-1.086-.108-1.64-.118-.328-.006-.665.023-.997.032-.506.013-1.01.02-1.524.068-.36.034-.73.102-1.093.154-.414.058-.823.093-1.241.174a26.74 26.74 0 0 0-2.693.672c-.244.074-.487.17-.73.252-.487.162-.974.321-1.459.51-.29.114-.58.251-.87.375-.437.186-.874.367-1.31.575-.308.147-.614.316-.92.474-.355.182-.71.35-1.062.547-.062.034-.124.076-.187.112-.274.155-.547.326-.82.49-.429.256-.858.513-1.284.79-.29.188-.58.391-.87.589a45.47 45.47 0 0 0-1.218.855c-.297.219-.593.447-.889.674a44.5 44.5 0 0 0-2.07 1.68c-.19.163-.383.314-.573.481-.19.167-.37.344-.555.51a60.124 60.124 0 0 0-2.056 1.947c-.317.315-.634.632-.95.958-.36.372-.716.753-1.073 1.138-.311.338-.623.676-.932 1.023-.355.399-.707.808-1.058 1.221-.305.358-.61.714-.912 1.082-.113.137-.228.266-.34.405-.168.206-.33.431-.495.64a88.636 88.636 0 0 0-3.704 5.015c-.229.334-.46.661-.688 1-.65.969-1.289 1.96-1.92 2.973l-.145.227a113.233 113.233 0 0 0-1.993 3.361c-.05.09-.104.173-.155.262-.086.152-.164.316-.25.467a122.953 122.953 0 0 0-2.39 4.464c-.09.176-.182.345-.27.522a133.54 133.54 0 0 0-2.343 4.922 139.545 139.545 0 0 0-2.604 6.112c-.11.279-.217.564-.327.845a162.175 162.175 0 0 0-1.928 5.197c-.054.158-.113.311-.167.469a156.7 156.7 0 0 0-1.806 5.589c-.113.371-.226.741-.337 1.115a166.566 166.566 0 0 0-1.567 5.652c-.085.328-.163.659-.246.987-.477 1.902-.928 3.82-1.34 5.759-.026.122-.055.242-.08.364-.42 1.998-.794 4.018-1.141 6.048-.038.225-.09.446-.127.672-.037.226-.064.45-.102.674a152.545 152.545 0 0 0-.468 3.106c-.07.489-.146.976-.211 1.466-.204 1.526-.39 3.056-.548 4.594a156.636 156.636 0 0 0-.372 4.178c-.032.414-.057.823-.086 1.234-.068 1.004-.127 2-.175 2.989-.012.25-.032.506-.044.755-.008.19-.01.376-.017.565-.027.701-.046 1.396-.064 2.089-.012.482-.026.966-.032 1.445-.01.724-.01 1.439-.009 2.154 0 .435-.003.873.002 1.304.01.817.032 1.625.056 2.429.01.317.014.639.025.953.043 1.114.1 2.214.168 3.301l.003.052c.015.227.037.447.054.672.059.832.121 1.66.197 2.475.036.39.08.771.12 1.157.069.658.136 1.316.215 1.962.05.421.11.834.165 1.25.08.6.161 1.198.25 1.788.065.426.136.845.206 1.265.093.566.188 1.129.29 1.684.03.164.055.335.085.498.04.213.09.415.131.627.142.722.291 1.434.447 2.137.076.343.151.687.23 1.026.188.796.384 1.58.59 2.35.057.209.108.424.165.631.266.968.547 1.915.843 2.841.075.238.158.467.235.703.226.687.46 1.365.703 2.029.048.129.09.266.137.394.088.236.183.46.274.694.138.357.277.714.419 1.063.156.382.316.756.477 1.128.149.343.297.685.45 1.019.167.365.338.721.51 1.075.157.326.315.652.477.971.177.346.358.684.54 1.02.167.309.333.619.505.921.187.329.38.647.572.968.176.291.35.584.53.867.197.313.401.613.604.916.184.272.366.547.554.811.208.293.422.575.635.858.193.255.382.513.578.759.218.274.442.536.665.8.2.235.397.477.6.702.23.257.467.5.701.745.205.215.407.434.616.639.242.239.49.463.738.69.21.194.419.393.631.579.253.213.514.416.771.623z" fill="#fff"/></mask><g mask="url(#f)"><path d="M37.69 384.715c-69.35 103.382 40.211 163.411 40.211 163.411l-50.377-3.597-49.95-78.482L13.4 411.533" fill="#E84B23"/></g><path d="m99.746 410.821 7.841-1.133-15.166 34.25 7.528-1.079-1.837 10.75-10.395 1.504-1.06 6.193 10.449-1.514-1.838 10.75-10.456 1.514-2.55 14.932-7.183 1.031 2.556-14.935-10.455 1.514 1.844-10.75 10.45-1.514 1.06-6.193-10.45 1.514 1.835-10.746 7.538-1.093-3.872-31.514 8.086-1.167 2.808 29.717 13.267-32.031zM67.674 441.848c-2.466 2.707-3.493 6.532-2.74 10.202a1.1 1.1 0 0 0 .76.803c.372.103.768-.012 1.037-.302.269-.29.37-.71.263-1.101-.564-2.886.254-5.882 2.19-8.007.959-1.042-.55-2.639-1.512-1.595h.002zM34.835 412.335l-1.37 1.547a1.212 1.212 0 0 0-.313.798c.011.296.122.579.313.798.2.21.472.329.755.33.284-.002.555-.121.756-.33l1.37-1.547c.197-.215.309-.5.314-.798a1.291 1.291 0 0 0-.314-.798 1.048 1.048 0 0 0-.755-.33 1.061 1.061 0 0 0-.756.33z" fill="#E84B23"/><ellipse cx="37.741" cy="70.421" rx="37.741" ry="70.421" transform="matrix(.55303 -.83316 .80406 .59454 351.866 393.33)" fill="#FFC562"/><mask id="g" style="mask-type:luminance" maskUnits="userSpaceOnUse" x="368" y="351" width="122" height="106"><ellipse cx="37.741" cy="70.421" rx="37.741" ry="70.421" transform="matrix(.55303 -.83316 .80406 .59454 351.866 393.33)" fill="#fff"/></mask><g mask="url(#g)"><path d="M374.562 414.404c-19.194-63.26 30.361-65.354 65.79-55.865 35.429 9.49-54.423-30.453-54.423-30.453l-37.581 20.873" fill="#D89D35"/></g><path d="M382.767 375.702c2.959-17.401 26.297-20.077 52.122-5.978 25.835 14.105 44.374 39.645 41.415 57.046-2.96 17.408-26.298 20.085-52.134 5.98-25.825-14.1-44.364-39.641-41.403-57.048z" fill="#FF9763"/><path d="M465.402 473.433c.203-.131.412-.258.61-.395.241-.167.47-.345.702-.519.188-.142.382-.278.565-.425.23-.186.448-.384.67-.578.17-.149.346-.293.511-.447.228-.213.442-.44.659-.663.145-.148.296-.29.435-.442.237-.258.457-.53.68-.8.108-.131.223-.254.327-.387.32-.409.626-.831.916-1.268l14.503-21.851a19.26 19.26 0 0 1-.915 1.268c-.105.134-.221.259-.33.39-.221.27-.441.54-.677.797-.14.153-.292.296-.437.442-.217.223-.43.449-.657.662-.164.153-.34.295-.508.442-.223.196-.443.395-.675.582-.181.146-.373.281-.56.422-.233.175-.464.354-.705.521-.198.136-.407.264-.611.395-.244.158-.483.318-.736.467-.214.126-.437.243-.656.363-.255.141-.507.284-.77.416-.228.115-.464.221-.697.329-.267.125-.532.253-.806.369-.239.102-.487.196-.732.292-.279.11-.558.221-.844.323-.253.09-.513.17-.77.255-.291.095-.581.19-.877.277-.266.078-.539.147-.809.218-.301.079-.601.159-.908.231-.277.065-.56.121-.842.18-.313.064-.625.129-.943.186-.287.051-.58.095-.871.14-.322.05-.646.1-.975.142-.299.038-.601.068-.903.102a52.03 52.03 0 0 1-1.006.096c-.309.025-.622.044-.935.063-.341.02-.683.039-1.028.051a52.438 52.438 0 0 1-1.942.029 52.573 52.573 0 0 1-1.806-.042c-.209-.009-.415-.011-.625-.022a58.364 58.364 0 0 1-2.479-.182c-.184-.017-.372-.043-.557-.063a55.99 55.99 0 0 1-2.009-.242c-.29-.04-.58-.085-.871-.129a69.525 69.525 0 0 1-1.809-.3 70.14 70.14 0 0 1-.944-.173 80.42 80.42 0 0 1-1.409-.291c-.347-.075-.694-.147-1.044-.228-.491-.112-.987-.236-1.483-.36-.339-.085-.675-.166-1.016-.256a72.694 72.694 0 0 1-1.612-.449c-.309-.088-.615-.17-.926-.263a90.964 90.964 0 0 1-2.036-.639c-.179-.058-.355-.11-.534-.17a88.961 88.961 0 0 1-2.63-.919c-.242-.088-.487-.186-.73-.277a89.158 89.158 0 0 1-1.929-.739c-.333-.133-.67-.276-1.005-.414-.56-.23-1.121-.461-1.685-.704-.368-.158-.739-.326-1.108-.49-.536-.238-1.072-.478-1.612-.728-.334-.155-.671-.317-1.007-.476a118.72 118.72 0 0 1-2.274-1.115c-.309-.156-.618-.309-.928-.469a115.308 115.308 0 0 1-6.535-3.621c-.358-.213-.711-.434-1.067-.65-.763-.463-1.521-.933-2.274-1.409-.326-.207-.648-.419-.971-.629a128.395 128.395 0 0 1-4.344-2.934c-.086-.061-.169-.125-.254-.185a122.527 122.527 0 0 1-4.057-3.017c-.229-.176-.461-.35-.688-.528a125.253 125.253 0 0 1-3.898-3.177c-.254-.216-.506-.433-.759-.65a126.114 126.114 0 0 1-3.768-3.361c-.108-.1-.211-.204-.319-.303a122.818 122.818 0 0 1-3.42-3.335c-.184-.186-.372-.371-.553-.557a117.477 117.477 0 0 1-3.921-4.223 112.964 112.964 0 0 1-3.078-3.613c-.109-.134-.212-.269-.32-.403a103.098 103.098 0 0 1-2.704-3.505c-.146-.197-.297-.394-.441-.592a96.432 96.432 0 0 1-1.976-2.807c-.041-.061-.079-.123-.12-.184a87.726 87.726 0 0 1-1.707-2.636c-.19-.306-.37-.61-.555-.914a79.538 79.538 0 0 1-1.139-1.928c-.197-.344-.387-.688-.579-1.031a80.835 80.835 0 0 1-.999-1.869c-.183-.353-.369-.706-.544-1.058-.189-.38-.369-.759-.548-1.137a76.656 76.656 0 0 1-.613-1.312c-.171-.38-.334-.758-.496-1.137a61.509 61.509 0 0 1-.541-1.296 71.41 71.41 0 0 1-.913-2.416 59.78 59.78 0 0 1-.794-2.426 50.852 50.852 0 0 1-.641-2.331c-.082-.33-.164-.661-.239-.989-.1-.443-.187-.885-.273-1.325-.062-.316-.127-.634-.18-.949a39.46 39.46 0 0 1-.202-1.365c-.04-.29-.086-.582-.118-.87-.049-.434-.078-.862-.111-1.291-.025-.318-.058-.639-.074-.955-.022-.443-.022-.882-.026-1.32-.004-.292-.017-.587-.013-.875.009-.483.042-.957.072-1.432.015-.237.018-.477.039-.711.062-.706.148-1.403.262-2.089.091-.548.221-1.067.343-1.592.078-.333.143-.676.233-1.001.129-.461.284-.901.436-1.343.1-.291.185-.592.295-.874.186-.477.403-.928.618-1.382.106-.225.197-.462.311-.68.338-.657.712-1.293 1.117-1.906l-14.503 21.85a20.346 20.346 0 0 0-1.118 1.906c-.113.218-.204.454-.309.678-.215.454-.433.906-.619 1.384-.11.282-.196.584-.296.875-.152.442-.308.882-.436 1.344-.09.323-.155.665-.232.997-.087.378-.191.743-.263 1.132a27.97 27.97 0 0 0-.343 2.551c-.021.236-.023.477-.039.715-.03.474-.063.947-.071 1.429-.005.289.009.584.012.876.004.438.005.876.027 1.32.015.315.049.634.073.953.028.365.045.727.084 1.095.007.066.02.133.027.199.033.287.079.579.118.868.062.455.124.909.202 1.368.054.313.118.629.18.944.085.442.174.885.274 1.331.075.328.157.657.239.986a45.24 45.24 0 0 0 .642 2.334c.064.219.121.434.19.653.069.218.149.431.22.646.123.374.251.748.382 1.123.151.428.31.856.473 1.286a57.184 57.184 0 0 0 .981 2.428 58.577 58.577 0 0 0 1.107 2.447c.181.379.36.758.55 1.139.071.142.134.283.205.425.107.211.23.423.339.635a85.173 85.173 0 0 0 1.576 2.895c.367.643.749 1.286 1.139 1.929.187.306.367.612.558.919a92.923 92.923 0 0 0 1.697 2.62c.044.066.085.132.129.199a98.445 98.445 0 0 0 1.976 2.808c.053.073.101.146.154.219.091.123.194.244.283.367a108.378 108.378 0 0 0 2.707 3.507c.108.136.211.269.32.403a112.813 112.813 0 0 0 3.079 3.613c.212.239.423.479.638.717a123.102 123.102 0 0 0 3.282 3.505c.181.187.369.37.552.556a132.305 132.305 0 0 0 3.426 3.342c.105.098.206.198.312.296a128.798 128.798 0 0 0 3.77 3.363c.253.217.504.435.76.651a133.44 133.44 0 0 0 3.895 3.175c.229.179.462.354.691.531a140.889 140.889 0 0 0 4.053 3.013c.087.062.171.126.258.187a128.727 128.727 0 0 0 4.341 2.933c.163.106.319.221.484.326.165.105.329.202.492.306.749.477 1.505.945 2.267 1.405.358.218.713.44 1.074.654 1.122.667 2.255 1.318 3.398 1.953 1.048.579 2.092 1.129 3.133 1.665.312.16.622.315.935.471.759.383 1.516.753 2.27 1.113.19.091.383.191.574.281.145.068.29.129.434.196.537.249 1.071.489 1.606.726.371.165.744.333 1.114.493.561.242 1.117.471 1.675.699.338.14.677.284 1.015.418.64.255 1.275.495 1.91.732.249.094.501.194.749.285.882.321 1.756.626 2.625.915l.041.014c.181.061.36.112.541.171.666.216 1.33.427 1.989.624.316.094.627.178.94.267.534.153 1.068.306 1.596.445.345.091.684.173 1.026.258.493.123.985.246 1.473.358.352.081.701.154 1.051.229.47.102.939.2 1.404.29.137.026.278.06.414.086.18.034.353.055.531.087.608.109 1.209.209 1.806.3.292.044.583.09.873.13.68.093 1.353.174 2.019.243.181.019.365.044.544.061.838.08 1.666.141 2.483.182.21.011.414.013.623.022.608.024 1.211.04 1.805.042.116 0 .235.009.351.009.212 0 .419-.012.627-.015.323-.005.645-.011.964-.022.347-.013.689-.032 1.031-.052.315-.019.628-.037.938-.063.337-.027.669-.061 1-.096.304-.032.609-.063.908-.102.327-.041.648-.09.969-.14.295-.045.59-.09.879-.142.317-.057.627-.121.938-.185.283-.058.567-.116.845-.18.307-.072.606-.151.907-.231.271-.071.544-.141.81-.218.295-.086.583-.182.87-.275.261-.085.522-.167.777-.258.284-.102.559-.211.838-.32.248-.097.498-.191.74-.294.274-.117.539-.244.806-.369.233-.109.468-.214.695-.328.264-.133.516-.277.774-.418.218-.12.441-.238.653-.362.25-.146.491-.306.735-.463z" fill="#FF9763"/><mask id="h" style="mask-type:luminance" maskUnits="userSpaceOnUse" x="354" y="361" width="132" height="117"><path fill-rule="evenodd" clip-rule="evenodd" d="M465.402 473.433c.203-.131.412-.258.611-.395.24-.167.469-.345.701-.519.188-.142.382-.278.565-.425.23-.186.448-.384.67-.578.17-.149.347-.293.511-.447.228-.213.442-.44.659-.663.145-.148.296-.29.436-.442.236-.258.456-.53.679-.8.108-.131.223-.254.327-.387.32-.409.626-.831.916-1.268l14.503-21.851a19.26 19.26 0 0 1-.915 1.268c-.105.134-.221.259-.33.39-.221.27-.441.54-.677.797-.14.153-.292.296-.437.442-.217.223-.43.449-.657.662-.164.153-.34.295-.508.442-.223.196-.443.395-.675.582-.181.146-.373.281-.56.422-.233.175-.464.354-.705.521-.198.136-.407.264-.611.395-.244.158-.483.318-.736.467-.214.126-.437.243-.656.363-.255.141-.507.284-.77.416-.227.115-.463.221-.697.329-.267.125-.532.253-.806.369-.239.102-.487.196-.732.292-.279.11-.558.221-.844.323-.253.09-.513.17-.77.255-.291.095-.581.19-.877.277-.266.078-.539.147-.809.218-.301.079-.601.159-.908.231-.277.065-.56.121-.842.18-.313.064-.625.129-.943.186-.287.051-.58.095-.871.14-.322.05-.646.1-.975.142-.298.038-.601.068-.903.102a52.03 52.03 0 0 1-1.006.096c-.309.025-.622.044-.935.063a42.867 42.867 0 0 1-2.97.08 52.573 52.573 0 0 1-1.806-.042c-.209-.009-.415-.011-.625-.022a58.364 58.364 0 0 1-2.479-.182c-.184-.017-.372-.043-.557-.063a55.99 55.99 0 0 1-2.009-.242c-.29-.04-.58-.085-.871-.129a69.525 69.525 0 0 1-1.809-.3 70.14 70.14 0 0 1-.944-.173 80.42 80.42 0 0 1-1.409-.291c-.347-.075-.694-.147-1.044-.228-.491-.112-.987-.236-1.483-.36-.339-.085-.675-.166-1.016-.256a74.245 74.245 0 0 1-1.612-.449c-.309-.088-.615-.17-.926-.263a90.964 90.964 0 0 1-2.036-.639c-.179-.058-.355-.11-.534-.17a88.961 88.961 0 0 1-2.63-.919c-.242-.088-.487-.186-.73-.277a89.158 89.158 0 0 1-1.929-.739c-.333-.133-.67-.276-1.005-.414-.56-.23-1.121-.461-1.685-.704-.368-.158-.739-.326-1.108-.49-.536-.238-1.072-.478-1.612-.728-.334-.155-.671-.317-1.007-.476a118.72 118.72 0 0 1-2.274-1.115c-.309-.156-.618-.309-.928-.469a115.308 115.308 0 0 1-6.534-3.621c-.359-.213-.712-.434-1.068-.65-.763-.463-1.521-.933-2.274-1.409-.326-.207-.648-.419-.971-.629a128.395 128.395 0 0 1-4.344-2.934c-.086-.061-.169-.125-.254-.185a122.527 122.527 0 0 1-4.057-3.017c-.229-.176-.461-.35-.688-.528a125.253 125.253 0 0 1-3.898-3.177c-.254-.216-.506-.433-.759-.65a126.114 126.114 0 0 1-3.768-3.361c-.108-.1-.211-.204-.319-.303a122.818 122.818 0 0 1-3.42-3.335c-.184-.186-.372-.371-.553-.557a117.477 117.477 0 0 1-3.921-4.223 112.964 112.964 0 0 1-3.078-3.613c-.109-.134-.212-.269-.32-.403a103.098 103.098 0 0 1-2.704-3.505c-.146-.197-.297-.394-.441-.592a96.432 96.432 0 0 1-1.976-2.807c-.041-.061-.079-.123-.12-.184a87.726 87.726 0 0 1-1.707-2.636c-.19-.306-.37-.61-.555-.914a79.538 79.538 0 0 1-1.139-1.928c-.197-.344-.387-.688-.579-1.031a80.835 80.835 0 0 1-.999-1.869c-.183-.353-.369-.706-.544-1.058-.189-.38-.369-.759-.548-1.137a76.656 76.656 0 0 1-.613-1.312c-.171-.38-.334-.758-.496-1.137a67.32 67.32 0 0 1-.541-1.296 71.41 71.41 0 0 1-.913-2.416 59.78 59.78 0 0 1-.794-2.426 50.852 50.852 0 0 1-.641-2.331c-.081-.33-.164-.661-.238-.989a43.337 43.337 0 0 1-.274-1.325c-.061-.316-.127-.634-.18-.949a39.46 39.46 0 0 1-.202-1.365c-.04-.29-.086-.582-.118-.87-.049-.434-.078-.862-.111-1.291-.025-.318-.058-.639-.074-.955-.022-.443-.022-.882-.026-1.32-.004-.292-.017-.587-.013-.875.009-.483.042-.957.072-1.432.015-.237.018-.477.039-.711.062-.706.148-1.403.262-2.089.091-.548.221-1.067.343-1.592.078-.333.143-.676.233-1.001.129-.461.284-.901.436-1.343.1-.291.185-.592.295-.874.186-.477.403-.928.618-1.382.106-.225.197-.462.311-.68.338-.657.712-1.293 1.117-1.906l-14.503 21.85a20.346 20.346 0 0 0-1.118 1.906c-.113.218-.204.454-.309.678-.215.454-.433.906-.619 1.384-.11.282-.196.584-.296.875-.152.442-.308.882-.436 1.344-.089.323-.155.665-.232.997-.087.378-.191.743-.263 1.132a27.97 27.97 0 0 0-.343 2.551c-.021.236-.023.477-.039.715-.03.474-.063.947-.071 1.429-.005.289.009.584.012.876.004.438.005.876.027 1.32.015.315.049.634.073.953.028.365.045.727.084 1.095.007.066.02.133.027.199.033.287.079.579.118.868.062.455.124.909.203 1.368.053.313.117.629.179.944.085.442.174.885.274 1.331.075.328.157.657.239.986a45.24 45.24 0 0 0 .642 2.334c.064.219.121.434.19.653.069.218.149.431.22.646.123.374.251.748.382 1.123.151.428.31.856.473 1.286a57.184 57.184 0 0 0 .981 2.428 58.577 58.577 0 0 0 1.107 2.447c.181.379.361.758.55 1.139.071.142.134.283.205.425.107.211.23.423.339.635a85.173 85.173 0 0 0 1.576 2.895c.367.643.749 1.286 1.139 1.929.187.306.367.612.558.919a92.923 92.923 0 0 0 1.697 2.62c.044.066.085.132.129.199a98.445 98.445 0 0 0 1.976 2.808c.054.073.101.146.154.219.091.123.194.244.284.367.868 1.175 1.77 2.344 2.706 3.507.108.136.211.269.32.403a112.813 112.813 0 0 0 3.079 3.613c.212.239.423.479.638.717a123.102 123.102 0 0 0 3.282 3.505c.181.187.369.37.552.556a132.305 132.305 0 0 0 3.426 3.342c.105.098.206.198.312.296a128.798 128.798 0 0 0 3.77 3.363c.253.217.504.435.76.651a133.44 133.44 0 0 0 3.895 3.175c.229.179.462.354.691.531a140.889 140.889 0 0 0 4.053 3.013c.087.062.171.126.258.187a128.727 128.727 0 0 0 4.341 2.933c.163.106.319.221.484.326.165.105.329.202.492.306.749.477 1.505.945 2.267 1.405.358.218.713.44 1.074.654 1.122.667 2.255 1.318 3.398 1.953 1.048.579 2.092 1.129 3.133 1.665.312.16.622.315.935.471.759.383 1.516.753 2.27 1.113.191.091.383.191.574.281.145.068.29.129.434.196.537.249 1.072.489 1.606.726.372.165.744.333 1.114.493.561.242 1.118.471 1.675.699.338.14.677.284 1.015.418.64.255 1.275.495 1.91.732.249.094.501.194.749.285.882.321 1.756.626 2.625.915l.041.014c.181.061.36.112.541.171.666.216 1.33.427 1.989.624.316.094.627.178.94.267.534.153 1.068.306 1.596.445.345.091.684.173 1.026.258.493.123.985.246 1.473.358.352.081.701.154 1.051.229.47.102.939.2 1.404.29.137.026.278.06.414.086.18.034.353.055.531.087.608.109 1.209.209 1.806.3.292.044.583.09.873.13.68.093 1.353.174 2.019.243.181.019.365.044.544.061.838.08 1.666.141 2.483.182.21.011.414.013.623.022.608.024 1.211.04 1.805.042.116 0 .235.009.351.009.212 0 .419-.012.627-.015.323-.005.645-.011.964-.022.347-.013.689-.032 1.031-.052.315-.019.628-.037.938-.063.337-.027.669-.061 1-.096.304-.032.609-.063.908-.102.327-.041.648-.09.97-.14.294-.045.589-.09.878-.142.317-.057.627-.121.938-.185.283-.058.567-.116.845-.18.307-.072.606-.151.907-.231.271-.071.544-.141.81-.218.295-.086.583-.182.87-.275.261-.085.522-.167.777-.258.284-.102.559-.211.838-.32.248-.097.498-.191.74-.294.274-.117.539-.244.806-.369.233-.109.468-.214.695-.328.264-.133.516-.277.774-.418.218-.12.441-.238.653-.362.25-.146.491-.306.735-.463z" fill="#fff"/></mask><g mask="url(#h)"><path d="M492.934 452.198c-32.502 31.701-96.843 6.384-96.843 6.384l11.454 40.34s49.001 7.56 66.073-8.173l17.073-15.733" fill="#E84B23"/></g><path d="M439.162 388.529a80.89 80.89 0 0 1 6.411 16.78c.19.625.814.981 1.414.806.599-.174.962-.817.822-1.457a83.927 83.927 0 0 0-6.645-17.365c-.714-1.383-2.717-.149-2.002 1.236zM390.82 446.852l7.759 3.66c.555.319 1.25.127 1.586-.439.318-.585.133-1.33-.416-1.675l-7.758-3.659c-.556-.32-1.251-.127-1.587.439-.318.584-.132 1.33.416 1.674z" fill="#E84B23"/><path d="m264.605 23.113-24.484 31.055 20.457 22.17 18.568-36.48-14.541-16.745z" fill="#FF9763"/><mask id="i" style="mask-type:luminance" maskUnits="userSpaceOnUse" x="240" y="23" width="40" height="54"><path fill-rule="evenodd" clip-rule="evenodd" d="m264.605 23.113-24.484 31.055 20.457 22.17 18.568-36.48-14.541-16.745z" fill="#fff"/></mask><g mask="url(#i)"><path d="M272.794 76.185c-21.966-18.571-.453-26.858-7.056-41.732-6.603-14.873 19.538 6.78 19.538 6.78s-1.672 12.867-2.123 13.306c-.451.439-11.79 14.904-11.79 14.904" fill="#E84B23"/></g><path d="m288.032 18.427 3.133 27.853-12.277 3.443-10.582-14.897-13.405 2.446-1.683-21.326 34.814 2.481z" fill="#FF9763"/><mask id="j" style="mask-type:luminance" maskUnits="userSpaceOnUse" x="253" y="15" width="39" height="35"><path fill-rule="evenodd" clip-rule="evenodd" d="m288.032 18.427 3.133 27.853-12.277 3.443-10.582-14.897-13.405 2.446-1.683-21.326 34.814 2.481z" fill="#fff"/></mask><g mask="url(#j)"><ellipse cx="275.82" cy="39.908" rx="5.412" ry="5.712" fill="#E84B23"/><path d="M282.57 42.022c1.663 1.432 3.934 1.796 5.924.948l-5.924-.948z" fill="#FF9763"/><rect width="3.244" height="6.238" rx=".84" transform="matrix(.93458 -.35576 .32336 .94627 281.421 28.158)" fill="#190000"/><path d="M282.456 21.715c-4.652 1.53-4.987 3.92-2.019 3.165 2.967-.755 5.059-4.163 2.019-3.165z" fill="#190000"/></g><path d="m270.265 30.01 2.156 18.405c16.125 30.463 32.18 5.01 18.137-7.537 0 0-13.631 2.525-13.826-1.612-.196-4.136 0-23.32 0-23.32l-24.298-1.861.784 22.956 13.213 1.807-2.762-9.804 6.596.965z" fill="#F0F3FC"/><path d="M259.292 20.082h17.44c24.297-.413 31.101-16.606 5.551-19.44-25.472-2.826-30.274 3.93-29.785 15.304" fill="#F0F3FC"/><path d="m271.935 44.266-1.768-16.015c-10.58-10.753-9.789 8.453 1.768 16.015z" fill="#FF9763"/><path d="M242.231 46.687c1.743-3.24 4.483-5.754 7.765-7.126 0 0 13.833 6.366 17.332 31.212l-23.609-22.166-1.488-1.92z" fill="#F0F3FC"/><path d="m318.325 115.085 10.239-4.787 19.095-8.61 24.673-3.14c2.355 4.318-11.903 6.019-18.97 12.038-4.511 3.843-35.037 21.695-35.037 21.695v-17.196z" fill="#FF9763"/><mask id="k" style="mask-type:luminance" maskUnits="userSpaceOnUse" x="318" y="98" width="55" height="35"><path fill-rule="evenodd" clip-rule="evenodd" d="m318.325 115.085 10.239-4.787 19.095-8.61 24.673-3.14c2.355 4.318-11.903 6.019-18.97 12.038-4.511 3.843-35.037 21.695-35.037 21.695v-17.196z" fill="#fff"/></mask><g mask="url(#k)"><path d="M340.2 130.731c-2.638-16.881-9.859-21.843-9.859-21.843s-1.683 14.52-1.518 15.049a85.019 85.019 0 0 0 9.398 4.183" fill="#E84B23"/></g><path d="M330.341 108.888s8.315 15.811 5.464 25.102l-38.059 14.526c-5.431 2.99-12.102 1.568-16.008-3.411l-44.631-56.892 33.404-13.87 26.947 47.095 32.883-12.55z" fill="#589BF7"/><mask id="l" style="mask-type:luminance" maskUnits="userSpaceOnUse" x="237" y="74" width="100" height="77"><path fill-rule="evenodd" clip-rule="evenodd" d="M330.341 108.888s8.315 15.811 5.464 25.102l-38.059 14.526c-5.431 2.99-12.102 1.568-16.008-3.411l-44.631-56.892 33.404-13.87 26.947 47.095 32.883-12.55z" fill="#fff"/></mask><g mask="url(#l)"><path d="M267.328 83.917c-12.263 25.06 17.855 70.411 25.11 73.659 7.255 3.249-43.749-43.958-43.749-43.958l-6.458-14.356 20.491-10.21" fill="#2976DF"/><ellipse cx="291.166" cy="153.633" rx="20.695" ry="16.318" fill="#FFC562"/></g><path d="M326.945 294.129c.548.868 12.609 40.504 12.609 40.504l22.204-11.572-10.417-51.21-24.396 22.278z" fill="#FF9763"/><mask id="m" style="mask-type:luminance" maskUnits="userSpaceOnUse" x="326" y="271" width="36" height="64"><path fill-rule="evenodd" clip-rule="evenodd" d="M326.945 294.129c.548.868 12.609 40.504 12.609 40.504l22.204-11.572-10.417-51.21-24.396 22.278z" fill="#fff"/></mask><g mask="url(#m)"><path d="M324.867 326.163c11.534-1.861 35.041-22.921 35.041-22.921l-28.445-5.619-10.223 19.143" fill="#E84B23"/></g><path d="m347.23 344.904-2.644 3.246 2.644 3.988 25.08-8.97v-8.534" fill="#3A3530"/><path d="M337.78 328.815c-1.413 7.288 1.228 14.789 6.807 19.335l67.325-22.998c2.57-18.682-40.571 6.645-49.696-12.255l-24.436 15.918z" fill="#9A7ED9"/><path d="M76.047 234.239c-.984-.092-37.79-14.964-37.79-14.964l-5.343 25.498 44.32 23.463-1.187-33.997z" fill="#FF9763"/><mask id="n" style="mask-type:luminance" maskUnits="userSpaceOnUse" x="32" y="219" width="46" height="50"><path fill-rule="evenodd" clip-rule="evenodd" d="M76.047 234.239c-.984-.092-37.79-14.964-37.79-14.964l-5.343 25.498 44.32 23.463-1.187-33.997z" fill="#fff"/></mask><g mask="url(#n)"><path d="M62.26 214.379c-24.95 30.134 1.77 59.724 1.77 59.724l13.204-47.947-32.108-13.458" fill="#E84B23"/></g><path d="m25.875 219.163-.744-4.202-4.595-.323-9.066 26.239 6.3 5.336" fill="#3A3530"/><path d="M45.126 222.046s-8.43-10.164-19.995-7.084L0 284.713c12.184 13.797 20.47-37.521 40.13-33.204l4.996-29.463zM173.227 214.968l122.243-3.939 34.487 101.766c15.181 1.157 29.851-6.043 38.796-19.04l-32.941-109.393c-2.845-9.448-10.4-16.466-19.641-18.245l-118.002-22.715-24.942 71.566z" fill="#9A7ED9"/><mask id="o" style="mask-type:luminance" maskUnits="userSpaceOnUse" x="173" y="143" width="196" height="170"><path fill-rule="evenodd" clip-rule="evenodd" d="m173.227 214.968 122.243-3.939 34.487 101.766c15.181 1.157 29.851-6.043 38.796-19.04l-32.941-109.393c-2.845-9.448-10.4-16.466-19.641-18.245l-118.002-22.715-24.942 71.566z" fill="#fff"/></mask><g mask="url(#o)"><path d="M210.37 168.225c-7.409 51.282 81.919 33.414 85.1 42.803 3.182 9.388-53.239 32.95-53.239 32.95l-64.112-11.79 23.743-48.729" fill="#6F4EB9"/><g opacity=".29" fill="#3A3530"><path d="M165.739 88.11h14.669v280.145h-14.669zM193.715 88.11h14.669v280.145h-14.669zM221.691 88.11h14.669v280.145h-14.669zM249.668 88.11h14.669v280.145h-14.669zM277.644 88.11h14.669v280.145h-14.669zM305.62 88.11h14.669v280.145H305.62zM333.596 88.11h14.669v280.145h-14.669zM361.573 88.11h14.669v280.145h-14.669z"/></g><g opacity=".27" fill="#3A3530"><path d="M403.704 146.622v15.483H138.277v-15.483zM403.704 176.15v15.483H138.277V176.15zM403.704 205.677v15.483H138.277v-15.483zM403.704 235.205v15.483H138.277v-15.483zM403.704 264.733v15.483H138.277v-15.483zM403.704 294.26v15.483H138.277V294.26z"/></g></g><path d="m224.635 148.497-70.757-8.772-6.923 116.296-84.225-27.4c-7.931 12.767-10.245 28.529-6.346 43.23l98.666 29.055c15.3 4.505 31.223-4.636 35.954-20.641l33.631-131.768z" fill="#9A7ED9"/><mask id="p" style="mask-type:luminance" maskUnits="userSpaceOnUse" x="54" y="139" width="171" height="164"><path fill-rule="evenodd" clip-rule="evenodd" d="m224.635 148.497-70.757-8.772-6.923 116.296-84.225-27.4c-7.931 12.767-10.245 28.529-6.346 43.23l98.666 29.055c15.3 4.505 31.223-4.636 35.954-20.641l33.631-131.768z" fill="#fff"/></mask><g mask="url(#p)"><path d="M104.25 202.256c65.295 21.579 32.318-49.683 97.612-44.68 65.294 5.002-68.592-42.162-68.592-42.162l-9.233 4.701-15.17 23.287" fill="#6F4EB9"/><g opacity=".29" fill="#3A3530"><path d="M62.346 80.817h14.669v280.145H62.346zM90.322 80.817h14.669v280.145H90.322zM118.298 80.817h14.669v280.145h-14.669zM146.275 80.817h14.669v280.145h-14.669zM174.251 80.817h14.669v280.145h-14.669zM202.227 80.817h14.669v280.145h-14.669z"/></g><g opacity=".27" fill="#3A3530"><path d="M272.335 139.329v15.483H6.908v-15.483zM272.335 168.857v15.483H6.908v-15.483zM272.335 198.384v15.483H6.908v-15.483zM272.335 227.912v15.483H6.908v-15.483zM272.335 257.439v15.483H6.908v-15.483zM272.335 286.967v15.483H6.908v-15.483z"/></g></g><path d="M271.159 75.475s-13.531-33.441-41.244-31.492c-36.626 2.576-83.375 50.436-79.937 99.419 0 0 43.486 26.202 79.193 7.36-7.104-31.869 24.229-38.042 36.565-57.838" fill="#589BF7"/><mask id="q" style="mask-type:luminance" maskUnits="userSpaceOnUse" x="149" y="43" width="123" height="115"><path fill-rule="evenodd" clip-rule="evenodd" d="M271.159 75.475s-13.531-33.441-41.244-31.492c-36.626 2.576-83.375 50.436-79.937 99.419 0 0 43.486 26.202 79.193 7.36-7.104-31.869 24.229-38.042 36.565-57.838" fill="#fff"/></mask><g mask="url(#q)"><path d="M262.722 61.235a55.915 55.915 0 0 1-4.721 19.712l5.216 5.545 7.294-12.149" fill="#F0F3FC"/></g><path d="m321.323 103.119-2.998 4.428 2.998 1.926 59.259-12.674a1.723 1.723 0 0 0 1.164-.906 1.897 1.897 0 0 0 .091-1.522l-.901-2.43-21.174-2.89-37.785 16.034-.654-1.966z" fill="#589BF7"/><path d="M367.232 25.512a.651.651 0 0 0-.487.18.726.726 0 0 0-.222.493l-2.367 59.663 16.157 7.788 3.069-67.36-16.15-.764z" fill="#97CC64"/><path d="M384.565 27.613c.021-.714-.508-1.312-1.184-1.337l-3.893 66.964 2.347 1.13 2.73-66.758z" fill="#589BF7"/><path d="m316.317 98.3 2.008 9.245 63.509-13.176-17.874-8.592L316.317 98.3z" fill="#97CC64"/><path d="m172.325 123.273 13.618-16.949s72.96-7.727 80.813-39.283l2.078 3.732c-12.72 47.329-74.708 54.987-74.708 54.987l-21.801-2.487z" fill="#FFC562"/><path d="M285.542 110.982s10.662-6.717 13.969-9.596c3.306-2.88 10.166-10.643 11.654-11.08 1.488-.436 11.076-3.925 12.894-3.053 1.819.873 13.225 2.923 13.225 2.923 1.447 4.71-11.902 1.962-11.902 1.962s6.448 4.188 6.53 5.06c.081.872-.249 1.047-.249 1.047l2.459 1.09c1.736 3.925-10.786 2.028-10.786 2.028l-12.501 11.842-28.351 10.73 3.058-12.953z" fill="#FF9763"/><mask id="r" style="mask-type:luminance" maskUnits="userSpaceOnUse" x="282" y="87" width="56" height="37"><path fill-rule="evenodd" clip-rule="evenodd" d="M285.542 110.982s10.662-6.717 13.969-9.596c3.306-2.88 10.166-10.643 11.654-11.08 1.488-.436 11.076-3.925 12.894-3.053 1.819.873 13.225 2.923 13.225 2.923 1.447 4.71-11.902 1.962-11.902 1.962s6.448 4.188 6.53 5.06c.081.872-.249 1.047-.249 1.047l2.459 1.09c1.736 3.925-10.786 2.028-10.786 2.028l-12.501 11.842-28.351 10.73 3.058-12.953z" fill="#fff"/></mask><g mask="url(#r)"><path d="M300.793 125.76c3.627-5.877-.335-20.81-4.4-21.987-4.065-1.177-5.274 21.447-5.274 21.447l9.344 2.088" fill="#E84B23"/></g><path d="m242.231 64.878 17.402 46.013 36.76-7.118c3.689 8.988 4.458 19.011 2.188 28.509l-43.863 11.93c-6.935 3.255-15.063.051-18.28-7.205l-25.284-52.15" fill="#589BF7"/><mask id="s" style="mask-type:luminance" maskUnits="userSpaceOnUse" x="211" y="64" width="89" height="82"><path fill-rule="evenodd" clip-rule="evenodd" d="m242.231 64.878 17.402 46.013 36.76-7.118c3.689 8.988 4.458 19.011 2.188 28.509l-43.863 11.93c-6.935 3.255-15.063.051-18.28-7.205l-25.284-52.15" fill="#fff"/></mask><g mask="url(#s)"><ellipse cx="244.423" cy="146.148" rx="22.905" ry="15.957" fill="#FFC562"/></g><path d="M287.93 29.394c6.867 1.65 5.724 8.366 1.35 8.366l-1.35-8.366z" fill="#FF9763"/><path d="M23.564 256.2c-.73 2.597-.741 5.36-.03 7.963.09.342.345.607.67.697a.908.908 0 0 0 .908-.264c.236-.253.326-.619.237-.961a12.849 12.849 0 0 1 .029-6.908c.138-.529-.156-1.076-.657-1.221-.501-.146-1.02.164-1.157.693v.001zM27.587 256.687l6.077 6.413a.91.91 0 0 0 .915.272.97.97 0 0 0 .672-.71 1.03 1.03 0 0 0-.257-.966l-6.076-6.413a.906.906 0 0 0-1.319.013 1.032 1.032 0 0 0-.012 1.391zM364.876 313.713a86.011 86.011 0 0 1-1.886 11.086c-.119.521.175 1.048.665 1.19.49.142.998-.151 1.149-.663a90.07 90.07 0 0 0 1.953-11.613c-.003-.547-.423-.99-.941-.993-.515.012-.929.45-.94.993zM373.459 315.962a16.47 16.47 0 0 1-6.133 4.177c-.492.157-.781.694-.657 1.221.142.526.657.835 1.157.694a18.468 18.468 0 0 0 6.964-4.688c.849-.912-.48-2.318-1.33-1.404h-.001z" fill="#190000"/><path d="m301.478 201.018-7.011 8.879a1.062 1.062 0 0 0 0 1.405.915.915 0 0 0 1.331 0l7.01-8.88a1.06 1.06 0 0 0 0-1.404.913.913 0 0 0-1.33 0zM147.783 255.319a21.824 21.824 0 0 0 5.108 8.226c.878.879 2.21-.522 1.33-1.404a19.613 19.613 0 0 1-4.624-7.351c-.15-.519-.658-.823-1.157-.693-.498.15-.791.693-.657 1.222z" fill="#6F4EB9"/><path d="m255.428 115.797 5.58-2.539c.447-.277.598-.884.337-1.358a.942.942 0 0 0-1.287-.356l-5.578 2.539c-.447.277-.598.885-.337 1.358.272.46.836.616 1.287.356h-.002zM175.371 84.584a17.604 17.604 0 0 0 2.534 5.438c.271.462.837.619 1.287.356.444-.28.594-.884.338-1.359a16.614 16.614 0 0 1-1.7-3.061c-.014-.034-.15-.373-.076-.182a16.963 16.963 0 0 1-.569-1.722.97.97 0 0 0-.67-.712.908.908 0 0 0-.916.266c-.237.258-.325.63-.229.974l.001.002z" fill="#2976DF"/><path d="M265.321 11.764c1.85.333 3.75.163 5.522-.493.497-.15.787-.694.649-1.22-.137-.526-.65-.836-1.149-.696a9.789 9.789 0 0 1-1.759.49c-.034.005-.393.056-.201.033a9.534 9.534 0 0 1-2.362.003c-.113-.014-.12-.015-.02-.002l-.18-.03c-.499-.131-1.009.174-1.157.694-.132.528.16 1.07.657 1.222v-.002z" fill="#D6DCF2"/><path d="m308.212 98.984 2.805 1.48a.96.96 0 0 0 .725.1.978.978 0 0 0 .683-.829 1.012 1.012 0 0 0-.458-.986l-2.805-1.48a.953.953 0 0 0-.725-.1.977.977 0 0 0-.683.828c-.05.396.131.785.458.987zM341.404 114.905c.508-.017.911-.457.911-.993s-.403-.976-.911-.993c-.508.017-.911.457-.911.993s.403.976.911.993z" fill="#E84B23"/><ellipse cx="534.742" cy="395.15" rx="12.876" ry="14.422" fill="#FFC562"/><path d="M449.462 304.745c-5.261-1.643-1.428 21.598-1.428 21.598s-8.471 6.669-9.077 10.308c-.606 3.638 5.571 24.432 5.571 24.432l12.441-4.339-7.507-51.999z" fill="#FF9763"/><mask id="t" style="mask-type:luminance" maskUnits="userSpaceOnUse" x="438" y="304" width="19" height="58"><path fill-rule="evenodd" clip-rule="evenodd" d="M449.462 304.745c-5.261-1.643-1.428 21.598-1.428 21.598s-8.471 6.669-9.077 10.308c-.606 3.638 5.571 24.432 5.571 24.432l12.441-4.339-7.507-51.999z" fill="#fff"/></mask><g mask="url(#t)"><path d="M433.113 354.794c6.559-12.308 13.187-8.214 22.367-8.362 9.18-.147 4.449 7.374 4.449 7.374l-11.987 11.718-7.293 1.11" fill="#E84B23"/></g><ellipse cx="510.81" cy="423.698" rx="27.317" ry="28.548" fill="#FFC562"/><path d="m250.558 571.383-41.927 37.588 8.293 26.015 56.815-43.318-23.181-20.285z" fill="#FF9763"/><mask id="u" style="mask-type:luminance" maskUnits="userSpaceOnUse" x="208" y="571" width="66" height="64"><path fill-rule="evenodd" clip-rule="evenodd" d="m250.558 571.383-41.927 37.588 8.293 26.015 56.815-43.318-23.181-20.285z" fill="#fff"/></mask><g mask="url(#u)"><path d="M231.81 579.296c-4.683 22.082 7.393 32.572 19.468 36.16 12.075 3.589-.493 16.562-.493 16.562l14.786-30.088-36.718-24.014" fill="#E84B23"/></g><path d="M164.287 585.011c6.325-5.001 15.275-3.771 20.176 2.773 15.994 18.253 37.539 9.201 37.539 9.201s-.71 22.608 13.294 25.617l-7.953 13.071c-4.318 5.672-11.261 6.518-15.458 1.886l-47.598-52.548z" fill="#3A3530"/><path d="M230.29 586.643c-5.38 16.541 45.511 24.585 45.511 24.585l64.371-75.374 92.117 64.039 50.391-32.252-125.837-74.455c-12.538-8.329-28.791-6.864-39.808 3.59l-86.745 89.867z" fill="#BB393C"/><mask id="v" style="mask-type:luminance" maskUnits="userSpaceOnUse" x="229" y="487" width="254" height="125"><path fill-rule="evenodd" clip-rule="evenodd" d="M230.29 586.643c-5.38 16.541 45.511 24.585 45.511 24.585l64.371-75.374 92.117 64.039 50.391-32.252-125.837-74.455c-12.538-8.329-28.791-6.864-39.808 3.59l-86.745 89.867z" fill="#fff"/></mask><g mask="url(#v)"><path d="M266.821 538.142c-20.332 7.3 63.799 36.066 63.799 36.066l-25.941 46.709-89.038.741-12.821-53.277M287.966 557.519l46.159-50.32" stroke="#90282A" stroke-width=".973" stroke-linecap="round" stroke-linejoin="round"/><path d="M257.06 543.104c43.818-9.285 52.698 10.852 78.404 17.019 25.707 6.166 53.523-40.338 53.523-40.338S327.519 499.2 332.66 482.92c5.141-16.279-39.027 4.89-39.027 4.89l-11.451 16.194" fill="#90282A"/></g><path d="m238.761 445.653-47.656-29.568-21.689 15.967 57.486 42.376 11.859-28.775z" fill="#FF9763"/><mask id="w" style="mask-type:luminance" maskUnits="userSpaceOnUse" x="169" y="416" width="70" height="59"><path fill-rule="evenodd" clip-rule="evenodd" d="m238.761 445.653-47.656-29.568-21.689 15.967 57.486 42.376 11.859-28.775z" fill="#fff"/></mask><g mask="url(#w)"><path d="M161.33 476.613a52.082 52.082 0 0 1 1.962-3.051c18.982-27.393 62.392-35.976 62.392-35.976l-13.425 36.841-42.844 2.186" fill="#E84B23"/></g><path d="M199.978 365.53c3.124 2.167 5.27 5.591 5.936 9.473.666 3.882-.205 7.883-2.411 11.069-12.14 21.141-.142 35.335-.142 35.335s-18.305 10.254-16.866 24.841l-14.567-3.811c-6.583-2.501-9.472-9.025-6.432-14.525l34.482-62.382z" fill="#3A3530"/><path d="M225.684 437.586c-37.505 6.625-17.571 48.444-17.571 48.444l114.294 62.521 111.403 73.852c20.687 13.708 47.854 8.59 62.769-11.825l24.58-34.337-179.853-76.824-115.622-61.831z" fill="#BB393C"/><mask id="x" style="mask-type:luminance" maskUnits="userSpaceOnUse" x="202" y="437" width="320" height="194"><path fill-rule="evenodd" clip-rule="evenodd" d="M225.684 437.586c-37.505 6.625-17.571 48.444-17.571 48.444l114.294 62.521 111.403 73.852c20.687 13.708 47.854 8.59 62.769-11.825l24.58-34.337-179.853-76.824-115.622-61.831z" fill="#fff"/></mask><g mask="url(#x)"><path d="M461.565 540.1c26.043 49.133 20.963 114.601-51.138 66.803-72.1-47.798-20.407 36.984-15.478 41.953 4.929 4.968 91.52 25.395 91.52 25.395l29.439-23.187 26.409-39.836-31.153-72.784-55.073 2.056" fill="#90282A"/><path d="M456.969 564.52c-14.176 23.1 3.71 38.725 3.71 38.725M280.142 451.829c-56.088 1.858-21.033 77.624-21.033 77.624l-94.822-28.085 32.426-69.46M249.749 477.885 451.51 581.909" stroke="#90282A" stroke-width=".973" stroke-linecap="round" stroke-linejoin="round"/></g><path d="M432.744 370.565c7.903-21.731 22.736-24.133 22.736-24.133l15.914 62.694 17.219 60.946-21.917 40.571s-18.85-58.982-21.016-75.159c-2.167-16.176-12.936-64.919-12.936-64.919z" fill="#589BF7"/><mask id="y" style="mask-type:luminance" maskUnits="userSpaceOnUse" x="432" y="346" width="57" height="165"><path fill-rule="evenodd" clip-rule="evenodd" d="M432.744 370.565c7.903-21.731 22.736-24.133 22.736-24.133l15.914 62.694 17.219 60.946-21.917 40.571s-18.85-58.982-21.016-75.158c-2.167-16.177-12.936-64.92-12.936-64.92z" fill="#fff"/></mask><g mask="url(#y)"><path d="M481.835 474.759c-16.869 14.524-19.183 37.069-20.27 48.899-1.087 11.83 10.203 2.628 10.203 2.628l10.067-51.527z" fill="#E84B23"/><path d="M434.785 444.646c26.943 32.755 30.914 38.95 35.547 32.089 4.634-6.861 8.076 33.907 8.076 33.907l-13.143 14.183-23.33-22.449-8.215-20.611" fill="#2976DF"/><path d="M426.318 395.151c10.868-23.072 22.085-40.961 38.56-41.345 16.475-.385-4.207-12.593-4.207-12.593l-37.157 9.619" fill="#F0F3FC"/></g><path d="m487.683 468.502 33.721-2.892c14.998 45.032 1.118 127.682 1.118 127.682-17.743.552-85.283-55.214-74.248-54.11 0 0 19.407-6.641 16.45-38.661-1.322-14.331 3.137-22.248 8.469-26.622" fill="#589BF7"/><mask id="z" style="mask-type:luminance" maskUnits="userSpaceOnUse" x="447" y="465" width="82" height="129"><path fill-rule="evenodd" clip-rule="evenodd" d="m487.683 468.502 33.721-2.892c14.998 45.032 1.118 127.682 1.118 127.682-17.743.552-85.283-55.214-74.248-54.11 0 0 19.407-6.641 16.45-38.661-1.322-14.331 3.137-22.248 8.469-26.622" fill="#fff"/></mask><g mask="url(#z)" fill="#F0F3FC"><path d="M483.494 484.272c-4.478 12.086 5.12 36.998 5.12 36.998l10.5-3.699s-17.586-25.036-13.467-34.038l-2.153.739z"/><path d="M488.613 480.819c-.016 8.139 12.576 10.93 12.576 10.93v4.362s-17.425-6.906-17.696-11.839c-.27-4.933 5.12-3.453 5.12-3.453z"/><path d="m487.998 460.469-4.504 3.454-2.377 23.885 34.911-17.348v-10.454"/></g><path d="m495.445 438.803-8.975 41.08 24.693-13.394 4.746-38.072-20.464 10.386z" fill="#FF9763"/><mask id="A" style="mask-type:luminance" maskUnits="userSpaceOnUse" x="486" y="428" width="30" height="52"><path fill-rule="evenodd" clip-rule="evenodd" d="m495.445 438.803-8.976 41.08 24.694-13.394 4.746-38.072-20.464 10.386z" fill="#fff"/></mask><g mask="url(#A)"><path d="M487.683 468.502c7.617 2.53 14.892-16.421 14.892-16.421l-18.496-7.87v16.01" fill="#E84B23"/></g><path d="M520.162 430.693a71.124 71.124 0 0 0 2.36-6.825l-32.527-13.061c-1.124 5.598-16.548 39.278 4.386 41.988 3.268.472 6.596.034 9.655-1.271" fill="#FF9763"/><mask id="B" style="mask-type:luminance" maskUnits="userSpaceOnUse" x="483" y="410" width="40" height="43"><path fill-rule="evenodd" clip-rule="evenodd" d="M520.162 430.693a71.124 71.124 0 0 0 2.36-6.825l-32.527-13.061c-1.124 5.598-16.548 39.278 4.386 41.988 3.268.472 6.596.034 9.655-1.271" fill="#fff"/></mask><g mask="url(#B)"><ellipse opacity=".27" cx="5.714" cy="4.458" rx="5.714" ry="4.458" transform="matrix(.98497 -.17272 .1555 .98784 471.58 433.284)" fill="#E84B23"/><ellipse opacity=".27" cx="501.452" cy="440.132" rx="5.706" ry="4.464" fill="#E84B23"/><rect width="3.003" height="5.809" rx=".78" transform="matrix(.96745 .25305 -.22858 .97352 487.173 425.248)" fill="#190000"/><path d="M498.035 427.626c.802.21 1.291 1.066 1.092 1.913l-.608 2.589c-.198.847-1.01 1.363-1.812 1.153a1.508 1.508 0 0 1-.922-.718 1.657 1.657 0 0 1-.171-1.195l.608-2.589c.199-.847 1.01-1.363 1.813-1.154v.001zM489.114 421.919c-3.179.136-2.763 2.056-.771 2.107 1.992.051 2.847-2.197.771-2.107zM498.826 423.869c2.75 1.688 1.788 3.107.004 2.17-1.784-.936-1.801-3.273-.004-2.17z" fill="#190000"/><path d="M493.7 432.402c-.182.778-.918.258-1.915-.003s-1.878-.163-1.695-.941c.36-.864 1.301-1.276 2.136-.935.996.26 1.657 1.102 1.474 1.879z" fill="#E84B23"/></g><path d="M516.029 437.565c4.637-.15 8.283-4.234 8.15-9.129 0-.163-.036-.316-.043-.476a16.2 16.2 0 0 0 2.459-8.65c.097-6.328-3.588-12.035-9.202-14.255-2.487-5.119-7.453-8.366-12.903-8.436" fill="#FFC562"/><path d="M504.49 396.617c-8.158.525-14.588 7.535-14.82 16.158-.232 8.623 5.809 16.007 13.925 17.021a13.232 13.232 0 0 0 5.802 3.913c1.458 2.378 3.949 3.825 6.632 3.854" fill="#FFC562"/><path d="M507.126 435.512c1.173-1.623 2.832-2.779 4.708-3.28a6.218 6.218 0 0 1 5.039.151c1.593.759 2.831 2.161 3.437 3.892.389 3.868-2.135 7.39-5.768 8.046a8.209 8.209 0 0 1-3.732.194M584.059 325.236c5.476-.544-4.794 21.813-4.794 21.813s6.164 8.405 5.704 12.157c-.46 3.751-12.264 23.18-12.264 23.18l-10.605-6.911 21.959-50.239z" fill="#FF9763"/><mask id="C" style="mask-type:luminance" maskUnits="userSpaceOnUse" x="562" y="325" width="24" height="58"><path fill-rule="evenodd" clip-rule="evenodd" d="M584.059 325.236c5.476-.544-4.794 21.813-4.794 21.813s6.164 8.405 5.704 12.157c-.46 3.751-12.264 23.18-12.264 23.18l-10.605-6.911 21.959-50.239z" fill="#fff"/></mask><g mask="url(#C)"><path d="M565.618 363.057c8.939 3.762 14.255 8.756 15.95 6.66 1.694-2.097-.76 3.823-.76 3.823l-5.258 1.357-5.9-4.317-1.811-2.96" fill="#E84B23"/></g><path d="m507.769 475.331 28.089-45.091 30.751-68.01c12.577 9.045 19.058 26.103 19.058 26.103l-27.438 62.687-34.051 63.303" fill="#589BF7"/><mask id="D" style="mask-type:luminance" maskUnits="userSpaceOnUse" x="507" y="362" width="79" height="153"><path fill-rule="evenodd" clip-rule="evenodd" d="m507.769 475.331 28.089-45.091 30.751-68.01c12.577 9.045 19.058 26.103 19.058 26.103l-27.438 62.687-34.051 63.303" fill="#fff"/></mask><g mask="url(#D)"><path d="M557.07 369.825c8.88-1.727 25.239 30.338 25.239 30.338l8.881-9.866-23.721-35.025-14.722 6.413" fill="#F0F3FC"/></g><path d="M482.68 470.213c4.557-1.295 5.932-1.498 5.932-1.498l-5.932 1.498z" fill="#589BF7"/><ellipse cx="490.656" cy="438.683" rx="3.27" ry="1.713" fill="#C1525F"/><ellipse cx="480.038" cy="491.749" rx="1.704" ry="1.798" fill="#000"/><ellipse cx="477.935" cy="501.368" rx="1.704" ry="1.798" fill="#000"/><path d="m512.987 437.967.045.006-.251-.035c.158.024.312.07.458.136l-.225-.101c.146.068.284.153.411.255l-.191-.156c.132.109.251.234.355.373l-.148-.202c.097.133.178.279.241.433l-.097-.238c.032.082.059.165.081.25.068.25.223.463.434.596a.92.92 0 0 0 .728.103.97.97 0 0 0 .565-.458c.124-.234.159-.509.097-.769a2.93 2.93 0 0 0-.839-1.429 2.821 2.821 0 0 0-.661-.47 3.168 3.168 0 0 0-.484-.197 3.277 3.277 0 0 0-.519-.09.683.683 0 0 0-.364.086.702.702 0 0 0-.304.206 1.023 1.023 0 0 0-.277.705c0 .265.099.519.277.706l.191.155c.144.09.309.137.477.137v-.002zM509.942 411.856a5.515 5.515 0 0 0 1.634 1.389 5.755 5.755 0 0 0 2.207.687.92.92 0 0 0 .668-.292c.177-.187.277-.441.277-.706 0-.264-.1-.518-.277-.705a1.045 1.045 0 0 0-.668-.292l-.149-.018.252.034a4.667 4.667 0 0 1-1.199-.342l.225.102a4.88 4.88 0 0 1-.974-.579c-.129-.1.006.03.052.045a.579.579 0 0 1-.116-.099 4.674 4.674 0 0 1-.596-.635.93.93 0 0 0-.669-.292.94.94 0 0 0-.668.292 1.031 1.031 0 0 0-.276.705c.012.262.109.511.276.706h.001z" fill="#190000"/><path d="M484.024 545.942a18.134 18.134 0 0 0 8.899 3.441c.52-.004.941-.448.945-.997-.012-.546-.428-.985-.945-.998a16.314 16.314 0 0 1-7.944-3.168c-.451-.273-1.027-.114-1.293.358-.252.477-.103 1.079.339 1.364h-.001z" fill="#2976DF"/><path d="m329.007 503.739-.701 3.7c-.096.345-.009.72.23.978.238.258.59.361.92.268a.974.974 0 0 0 .673-.716l.701-3.7c.138-.531-.157-1.08-.66-1.227-.504-.146-1.024.166-1.163.697zM268.673 576.002l9.815 2.96c.496.127.998-.185 1.134-.704.136-.52-.144-1.059-.631-1.219l-9.816-2.961c-.496-.126-.998.186-1.134.705-.135.52.144 1.059.632 1.219z" fill="#90282A"/><path d="m578.307 346.803-.702.74a1.067 1.067 0 0 0 0 1.41l.192.156a.89.89 0 0 0 .477.136l.251-.034a.942.942 0 0 0 .417-.256l.701-.74a1.067 1.067 0 0 0 0-1.41l-.192-.156a.888.888 0 0 0-.476-.136l-.252.034a.933.933 0 0 0-.416.256zM502.55 467.513l-1.168.74c-.21.134-.365.347-.434.596a.801.801 0 0 0-.017.398c.005.132.044.26.112.371a.963.963 0 0 0 .565.458.932.932 0 0 0 .728-.102l1.168-.74c.21-.135.365-.347.434-.596a.79.79 0 0 0 .017-.398.767.767 0 0 0-.112-.371.96.96 0 0 0-.565-.458.932.932 0 0 0-.728.102zM205.534 431.528a6.657 6.657 0 0 0-2.491 2.274c-.193.35-.167.789.068 1.11.234.321.629.46.999.353.232-.08.431-.242.564-.458.048-.071.097-.141.146-.209l-.147.202c.288-.391.621-.743.991-1.048l-.192.156a5.684 5.684 0 0 1 1.016-.66 1 1 0 0 0 .435-.596 1.078 1.078 0 0 0-.097-.768.963.963 0 0 0-.565-.458 1.006 1.006 0 0 0-.728.1l.001.002z" fill="#E84B23"/><path d="m549.764 433.588.961 7.89c.016.543.43.98.945.997.521-.003.942-.448.945-.997l-.962-7.89c-.016-.543-.429-.98-.945-.997-.52.003-.942.448-.944.997zM452.069 396.224l-6.076 4.934c-.437.289-.585.887-.339 1.365.265.472.841.632 1.292.357l6.077-4.934c.436-.289.584-.886.339-1.364-.266-.473-.842-.633-1.293-.358z" fill="#2976DF"/></svg>