<svg width="77" height="18" fill="none" xmlns="http://www.w3.org/2000/svg"><path d="M22.286 1.644 17.996 17h-3.63L11.484 6.066 8.47 17l-3.608.022L.726 1.644h3.3l2.706 11.924L9.856 1.644h3.432l2.948 11.858 2.728-11.858h3.322zm1.22 9.218c0-1.232.241-2.325.725-3.278.499-.953 1.166-1.687 2.002-2.2.851-.513 1.797-.77 2.838-.77.91 0 1.702.183 2.376.55.69.367 1.24.829 1.65 1.386V4.812H36.2V17h-3.102v-1.782c-.396.572-.946 1.049-1.65 1.43-.689.367-1.488.55-2.398.55a5.235 5.235 0 0 1-2.816-.792c-.836-.528-1.503-1.269-2.002-2.222-.484-.968-.726-2.075-.726-3.322zm9.591.044c0-.748-.146-1.386-.44-1.914A3.01 3.01 0 0 0 31.47 7.76a3.114 3.114 0 0 0-1.606-.44c-.572 0-1.1.14-1.584.418-.484.279-.88.69-1.188 1.232-.293.528-.44 1.159-.44 1.892 0 .733.147 1.379.44 1.936.308.543.704.96 1.188 1.254.499.293 1.027.44 1.584.44a3.24 3.24 0 0 0 1.606-.418 3.2 3.2 0 0 0 1.188-1.232c.294-.543.44-1.188.44-1.936zM42.287.72V17h-3.08V.72h3.08zm6.123 0V17h-3.08V.72h3.08zm14.373 9.922c0 .44-.029.836-.087 1.188h-8.91c.073.88.38 1.57.923 2.068.543.499 1.21.748 2.002.748 1.145 0 1.959-.491 2.443-1.474h3.321c-.352 1.173-1.026 2.141-2.023 2.904-.998.748-2.222 1.122-3.674 1.122-1.174 0-2.23-.257-3.169-.77a5.668 5.668 0 0 1-2.178-2.222c-.513-.953-.77-2.053-.77-3.3 0-1.261.257-2.369.77-3.322a5.373 5.373 0 0 1 2.157-2.2c.923-.513 1.987-.77 3.19-.77 1.158 0 2.192.25 3.102.748a5.16 5.16 0 0 1 2.133 2.134c.514.91.77 1.958.77 3.146zm-3.19-.88c-.014-.792-.3-1.423-.858-1.892-.557-.484-1.239-.726-2.045-.726-.763 0-1.408.235-1.936.704-.514.455-.83 1.093-.947 1.914h5.786zm9.025-2.42v5.896c0 .41.095.711.286.902.205.176.542.264 1.012.264h1.43V17H69.41c-2.596 0-3.894-1.261-3.894-3.784V7.342h-1.452v-2.53h1.452V1.798h3.102v3.014h2.728v2.53h-2.728zm6.307 9.812c-.557 0-1.02-.169-1.386-.506a1.764 1.764 0 0 1-.528-1.298c0-.513.176-.939.528-1.276.367-.352.829-.528 1.386-.528.543 0 .99.176 1.342.528.352.337.528.763.528 1.276s-.176.946-.528 1.298c-.352.337-.8.506-1.342.506z" fill="#000"/></svg>