<svg width="338" height="429" fill="none" xmlns="http://www.w3.org/2000/svg"><path d="m286.428 97.92-6.651-.843-.595-.076A69.27 69.27 0 0 1 250.1 86.357l-.077-.05-6.074-3.94a155.507 155.507 0 0 1 3.35-6.717c.082-.155.163-.31.246-.463a8.334 8.334 0 0 1 10.185-3.844l10.461 3.829 14.824 5.426a8.327 8.327 0 0 1 5.296 9.513c-.094.456-.201.91-.302 1.364-.479 2.161-1.007 4.31-1.581 6.446z" fill="#FF999A"/><path d="M270.082 134.39a8.326 8.326 0 0 1-6.965.57l-3.991-1.46-9.911-3.628-8.793-3.218-2.537-.929a8.333 8.333 0 0 1-5.292-9.534c.152-.723.325-1.441.488-2.162a154.754 154.754 0 0 1 4.445-15.735 155.094 155.094 0 0 1 6.423-15.928l4.515 2.93 1.635 1.06a69.136 69.136 0 0 0 23.57 9.721 71.9 71.9 0 0 0 5.663.944l7.095.9a155.465 155.465 0 0 1-5.347 16.318 155.11 155.11 0 0 1-7.127 15.638c-.214.408-.424.819-.643 1.224a8.309 8.309 0 0 1-3.228 3.289z" fill="#FE7578"/><mask id="a" style="mask-type:luminance" maskUnits="userSpaceOnUse" x="232" y="82" width="55" height="54"><path fill-rule="evenodd" clip-rule="evenodd" d="M270.082 134.39a8.326 8.326 0 0 1-6.965.57l-3.991-1.46-9.911-3.628-8.793-3.218-2.537-.929a8.333 8.333 0 0 1-5.292-9.534c.152-.723.325-1.441.488-2.162a154.754 154.754 0 0 1 4.445-15.735 155.094 155.094 0 0 1 6.423-15.928l4.515 2.93 1.635 1.06a69.136 69.136 0 0 0 23.57 9.721 71.9 71.9 0 0 0 5.663.944l7.095.9a155.465 155.465 0 0 1-5.347 16.318 155.11 155.11 0 0 1-7.127 15.638c-.214.408-.424.819-.643 1.224a8.309 8.309 0 0 1-3.228 3.289z" fill="#fff"/></mask><g mask="url(#a)" fill="#E55A61"><path d="M230.729 121.05c43.203 14.181 44.182 3.487 49.585-4.645 5.403-8.132 2.104 19.456 2.104 19.456s-11.997 7.731-12.848 7.885c-.851.154-38.404-12.882-38.404-12.882l-3.24-1.348M269.2 103.444a10.152 10.152 0 0 1-8.289.122 10.167 10.167 0 0 1-.273-18.57 10.169 10.169 0 1 1 8.562 18.448z"/></g><path d="M268.781 101.288a10.148 10.148 0 0 1-8.289.122 10.166 10.166 0 0 1-.273-18.57 10.169 10.169 0 1 1 8.562 18.448z" fill="#FFC562"/><path d="M267.527 98.585a7.176 7.176 0 0 1-5.861.087 7.189 7.189 0 0 1-1.574-12.29 7.191 7.191 0 1 1 7.436 12.203h-.001z" fill="#FF9763"/><path d="M276.651 84.739A2.124 2.124 0 0 1 278 86.856c.001.171.139.31.31.312a.317.317 0 0 0 .311-.312 2.745 2.745 0 0 0-1.807-2.718.315.315 0 0 0-.383.218.318.318 0 0 0 .218.383h.002z" fill="#FE7578"/><path d="M244.875 115.327a6.766 6.766 0 0 0 4.484 3.795.312.312 0 0 0 .166-.6 6.184 6.184 0 0 1-4.113-3.509.312.312 0 0 0-.425-.111.318.318 0 0 0-.111.426l-.001-.001z" fill="#E55A61"/><path d="m312.975 215.343-28.407 16.808-4.562-27.239 28.409-16.808 4.56 27.239z" fill="#F0F3FC"/><path d="m312.975 215.343 21.396 16.252-28.41 16.811-21.393-16.255 28.407-16.808z" fill="#97CC64"/><mask id="b" style="mask-type:luminance" maskUnits="userSpaceOnUse" x="284" y="215" width="51" height="34"><path fill-rule="evenodd" clip-rule="evenodd" d="m312.975 215.343 21.396 16.252-28.41 16.811-21.393-16.255 28.407-16.808z" fill="#fff"/></mask><g mask="url(#b)" stroke="#fff" stroke-width=".6"><path d="M273.018 248.605h72.902M273.018 245.816h72.902M273.018 243.028h72.902M273.018 240.239h72.902M273.018 237.451h72.902M273.018 234.662h72.902M273.018 231.874h72.902M273.018 229.085h72.902M273.018 226.297h72.902M273.018 223.508h72.902M273.018 220.72h72.902M273.018 217.931h72.902M273.018 215.143h72.902"/></g><path d="m308.415 188.104 21.393 16.252 4.563 27.239-21.396-16.252-4.56-27.239z" fill="#589BF7"/><mask id="c" style="mask-type:luminance" maskUnits="userSpaceOnUse" x="308" y="188" width="27" height="44"><path fill-rule="evenodd" clip-rule="evenodd" d="m308.415 188.104 21.393 16.252 4.563 27.239-21.396-16.252-4.56-27.239z" fill="#fff"/></mask><g mask="url(#c)"><path d="M306.29 188.104c23.721 17.46 23.255 16.055 23.42 17.34.165 1.284 4.66 23.983 4.66 25.067 0 1.084.643-28.328.643-28.328l-8.96-11.2-16.585-5.402" fill="#2976DF"/></g><path d="M297.526 205.278a51.35 51.35 0 0 1-5.534 6.914c-.498.523.295 1.319.794.794a53.092 53.092 0 0 0 5.71-7.141c.402-.603-.57-1.166-.97-.567z" fill="#D6DCF2"/><rect x="272.276" y="315.45" width="65.659" height="87.917" rx="5.593" fill="#589BF7"/><mask id="d" style="mask-type:luminance" maskUnits="userSpaceOnUse" x="272" y="315" width="66" height="89"><rect x="272.276" y="315.45" width="65.659" height="87.917" rx="5.593" fill="#fff"/></mask><g mask="url(#d)"><path d="M340.912 388.339c-6.914-15.304.055 19.928-64.291 15.028s31.205 26.245 31.205 26.245l45.678-28.42" fill="#2976DF"/></g><rect x="277.934" y="322.673" width="54.344" height="49.237" rx="3.339" fill="#EFF3FC"/><mask id="e" style="mask-type:luminance" maskUnits="userSpaceOnUse" x="277" y="322" width="56" height="50"><rect x="277.934" y="322.673" width="54.344" height="49.237" rx="3.339" fill="#fff"/></mask><g mask="url(#e)"><path d="M255.73 339.457c19.011 1.729 19.482-16.784 34.431-16.784 14.949 0-17.885-5.438-17.885-5.438l-2.226 4.445" fill="#D6DCF2"/></g><rect x="281.953" y="380.708" width="44.732" height="4.993" rx="1.892" fill="#2976DF"/><rect x="281.953" y="388.339" width="32.534" height="4.993" rx="1.892" fill="#2976DF"/><path d="M292.403 337.11a135.647 135.647 0 0 0-2.242 26.153h5.231a65.864 65.864 0 0 1 1.245-15.069l.529.248-.179 5.57 3.464.526v1.231l-3.504-.532-.121 3.792a12.578 12.578 0 0 0 7.514 2.235V333.08a10.2 10.2 0 0 1-3.146-.311 11.92 11.92 0 0 1 6.975-.373 4.535 4.535 0 0 1-2.476.871v28.003a12.76 12.76 0 0 0 7.693-2.239l-.121-3.787-3.466.526v-1.23l3.426-.52-.179-5.576.529-.248a65.804 65.804 0 0 1 1.246 15.069h5.23c.102-8.77-.648-17.529-2.241-26.153a30.146 30.146 0 0 0-7.6-3.001v-2.042a18.668 18.668 0 0 0-10.461 0v2.109a30.012 30.012 0 0 0-7.345 2.934l-.001-.002z" fill="#97CC64"/><mask id="f" style="mask-type:luminance" maskUnits="userSpaceOnUse" x="290" y="331" width="31" height="33"><path fill-rule="evenodd" clip-rule="evenodd" d="M292.403 337.11a135.647 135.647 0 0 0-2.242 26.153h5.231a65.864 65.864 0 0 1 1.245-15.069l.529.248-.179 5.57 3.464.526v1.231l-3.504-.532-.121 3.792a12.578 12.578 0 0 0 7.514 2.235V333.08a10.2 10.2 0 0 1-3.146-.311 11.92 11.92 0 0 1 6.975-.373 4.535 4.535 0 0 1-2.476.871v28.003a12.76 12.76 0 0 0 7.693-2.239l-.121-3.787-3.466.526v-1.23l3.426-.52-.179-5.576.529-.248a65.804 65.804 0 0 1 1.246 15.069h5.23c.102-8.77-.648-17.529-2.241-26.153a30.146 30.146 0 0 0-7.6-3.001v-2.042a18.668 18.668 0 0 0-10.461 0v2.109a30.012 30.012 0 0 0-7.345 2.934l-.001-.002z" fill="#fff"/></mask><g mask="url(#f)"><path d="M281.952 343.345c10.628 5.37 10.147-7.188 16.267-8.727 6.12-1.539-6.565-3.298-6.565-3.298l-1.493 3.137" fill="#75AA3C"/></g><path d="m299.973 339.857-1.111.74a.395.395 0 0 0 .398.682l1.112-.741a.395.395 0 1 0-.399-.681z" fill="#75AA3C"/><path d="M331.041 387.356a11.597 11.597 0 0 1-2.929 2.485.395.395 0 1 0 .4.682 12.25 12.25 0 0 0 3.088-2.609.404.404 0 0 0 0-.558.397.397 0 0 0-.558 0h-.001z" fill="#2976DF"/><rect x="5.272" y="315.45" width="65.659" height="87.917" rx="5.593" fill="#FFC562"/><mask id="g" style="mask-type:luminance" maskUnits="userSpaceOnUse" x="5" y="315" width="66" height="89"><rect x="5.272" y="315.45" width="65.659" height="87.917" rx="5.593" fill="#fff"/></mask><g mask="url(#g)"><path d="M74.603 317.316c8.104 96.226-38.21 95.885-70.051 92.352-31.84-3.533 47.98 16.837 47.98 16.837l22.507-3.704 13.602-54.779" fill="#D89D35"/></g><rect x="10.93" y="322.673" width="54.344" height="49.237" rx="3.339" fill="#EFF3FC"/><mask id="h" style="mask-type:luminance" maskUnits="userSpaceOnUse" x="10" y="322" width="56" height="50"><rect x="10.93" y="322.673" width="54.344" height="49.237" rx="3.339" fill="#fff"/></mask><g mask="url(#h)"><path d="M.677 357.613c6.191-42.961 45.4-37.406 45.4-37.406l-60.764-1.969" fill="#D6DCF2"/></g><rect x="14.949" y="380.708" width="44.732" height="4.993" rx="1.892" fill="#E84B23"/><rect x="14.949" y="388.339" width="32.534" height="4.993" rx="1.892" fill="#E84B23"/><path d="M49.324 332.862h-5.035a6.382 6.382 0 0 1-12.37 0h-5.043v.004l-9.614 4.806 3.207 8.016 6.407-3.208v19.241h22.447V342.48l6.411 3.208 3.207-8.016-9.617-4.81z" fill="#FFC562"/><mask id="i" style="mask-type:luminance" maskUnits="userSpaceOnUse" x="17" y="332" width="42" height="30"><path fill-rule="evenodd" clip-rule="evenodd" d="M49.324 332.862h-5.035a6.382 6.382 0 0 1-12.37 0h-5.043v.004l-9.614 4.806 3.207 8.016 6.407-3.208v19.241h22.447V342.48l6.411 3.208 3.207-8.016-9.617-4.81z" fill="#fff"/></mask><g mask="url(#i)"><path d="M15.756 345.021c1.506-7.349 15.433-11.439 20.756-9.999 5.322 1.439-7.423-8.657-7.423-8.657l-25.184 7.247" fill="#D89D35"/></g><path d="m37.347 348.464-1.114 1.109a.394.394 0 1 0 .558.558l1.114-1.109a.394.394 0 1 0-.558-.558zM63.931 392.042a5.995 5.995 0 0 1-.104.142l-.003.004-.056.068a4.67 4.67 0 0 1-.6.597l-.069.055a4.404 4.404 0 0 1-.885.52c-.066.031.022-.007-.02.009l-.081.032c-.055.023-.111.041-.166.06a.394.394 0 1 0 .21.761 4.956 4.956 0 0 0 2.456-1.85.397.397 0 0 0-.142-.54.405.405 0 0 0-.54.142z" fill="#D89D35"/><rect x="58.21" y="294.95" width="96.28" height="128.918" rx="8.201" fill="#FE7578"/><mask id="j" style="mask-type:luminance" maskUnits="userSpaceOnUse" x="58" y="294" width="97" height="130"><rect x="58.21" y="294.95" width="96.28" height="128.918" rx="8.201" fill="#fff"/></mask><g mask="url(#j)"><path d="M159.066 344.539c-12.872-24.692 36.676 90.15-90.035 79.329-126.71-10.822 100.018 39.894 100.018 39.894l16.05-90.15" fill="#E55A61"/></g><rect x="66.506" y="305.541" width="79.689" height="72.2" rx="4.896" fill="#EFF3FC"/><mask id="k" style="mask-type:luminance" maskUnits="userSpaceOnUse" x="66" y="305" width="81" height="73"><rect x="66.506" y="305.541" width="79.689" height="72.2" rx="4.896" fill="#fff"/></mask><g mask="url(#k)"><path d="M57.216 356.233c1.334-73.315 87.591-50.692 87.591-50.692l-97.65-6.504-5.757 6.503" fill="#D6DCF2"/></g><rect x="72.399" y="390.641" width="65.594" height="7.322" rx="2.774" fill="#FFC562"/><rect x="72.399" y="401.832" width="47.707" height="7.322" rx="2.774" fill="#FFC562"/><path d="m128.127 365.589-5.859-42.501a1.906 1.906 0 0 0-1.974-1.507H92.405a1.906 1.906 0 0 0-1.975 1.507l-5.858 42.501a1.825 1.825 0 0 0 1.975 1.909h15.346a1.889 1.889 0 0 0 1.983-1.592l2.043-25.747a.483.483 0 0 1 .942 0l1.966 25.742a1.888 1.888 0 0 0 1.985 1.596h15.341a1.826 1.826 0 0 0 1.974-1.908z" fill="#FE7578"/><path d="M92.582 318.732h27.408a1.474 1.474 0 0 0 0-2.949H92.583a1.474 1.474 0 1 0 0 2.949zM101.587 331.386l-5.974 6.517c-.502.549.314 1.369.819.819l5.974-6.518c.502-.548-.314-1.369-.819-.818zM143.85 400.081a5.589 5.589 0 0 1-.219.676c-.057.152.029-.059-.009.026l-.052.116a5.722 5.722 0 0 1-.476.838c-.043.063-.088.123-.133.186-.053.076.083-.102-.018.024l-.064.078a5.463 5.463 0 0 1-.87.85c.044-.035.036-.028-.004.001l-.124.089a.58.58 0 1 0 .584.999 6.31 6.31 0 0 0 2.501-3.575.576.576 0 0 0-.144-.563.576.576 0 0 0-.972.255z" fill="#E55A61"/><rect x="188.718" y="294.95" width="96.28" height="128.918" rx="8.201" fill="#9A7ED9"/><mask id="l" style="mask-type:luminance" maskUnits="userSpaceOnUse" x="188" y="294" width="97" height="130"><rect x="188.718" y="294.95" width="96.28" height="128.918" rx="8.201" fill="#fff"/></mask><g mask="url(#l)"><path d="M284.998 365.061c-5.403-13.548 3.68 65.268-55.169 58.806-58.849-6.461 70.402 22.865 70.402 22.865l10.5-48.769" fill="#6F4EB9"/></g><rect x="197.014" y="305.541" width="79.689" height="72.2" rx="4.896" fill="#EFF3FC"/><mask id="m" style="mask-type:luminance" maskUnits="userSpaceOnUse" x="197" y="305" width="80" height="73"><rect x="197.014" y="305.541" width="79.689" height="72.2" rx="4.896" fill="#fff"/></mask><g mask="url(#m)"><path d="M194.513 341.641c-5.795-32.85 18.129-36.331 54.307-36.1 36.178.23-60.102-10.591-60.102-10.591l-11.584 3.703" fill="#D6DCF2"/></g><rect x="202.907" y="390.641" width="65.594" height="7.322" rx="2.774" fill="#6F4EB9"/><rect x="202.907" y="401.832" width="47.707" height="7.322" rx="2.774" fill="#6F4EB9"/><path d="M249.023 330.562v-5.806h-10.77v13.821a1.395 1.395 0 0 1-2.789 0v-13.821h-10.77v5.911c0 4.581-2.654 8.748-6.806 10.685l-2.109.985v22.374c0 .87.705 1.576 1.575 1.576h14.261c.748 0 1.393-.526 1.543-1.259l2.93-14.238h1.539l2.93 14.238c.15.733.795 1.259 1.543 1.259h14.261c.418 0 .819-.166 1.114-.462.296-.295.462-.696.462-1.114v-22.479l-2.109-.985a11.79 11.79 0 0 1-6.805-10.685z" fill="#9A7ED9"/><path d="M251.934 324.755v5.807a8.909 8.909 0 0 0 5.125 8.047l.879.41v-14.265l-6.004.001zM221.783 330.666v-5.911h-6.005v14.369l.879-.41a8.913 8.913 0 0 0 5.126-8.048z" fill="#9A7ED9"/><path d="M257.748 319.085a2.09 2.09 0 0 0-2.089-2.089h-37.601a2.09 2.09 0 0 0-2.089 2.089v3.547h41.779v-3.547zM249.588 346.152l-1.629 3.802a.597.597 0 0 0 .207.791.583.583 0 0 0 .792-.207l1.629-3.802a.6.6 0 0 0-.208-.792.582.582 0 0 0-.791.208zM260.042 407.46l-2.729 2.155a.58.58 0 0 0 0 .818c.23.217.589.217.819 0l2.728-2.155a.58.58 0 0 0 0-.818.595.595 0 0 0-.818 0z" fill="#6F4EB9"/><circle cx="35.029" cy="193.077" r="34.15" fill="#9A7ED9"/><rect x="25.912" y="176.483" width="18.235" height="40.664" rx="1.769" fill="#589BF7"/><path d="M30.547 169.007h8.965c1.17 0 2.117.947 2.117 2.116v5.36H28.432v-5.361c0-1.168.947-2.115 2.116-2.115z" fill="#FFC562"/><mask id="n" style="mask-type:luminance" maskUnits="userSpaceOnUse" x="28" y="169" width="14" height="8"><path fill-rule="evenodd" clip-rule="evenodd" d="M30.547 169.007h8.965c1.17 0 2.117.947 2.117 2.116v5.36H28.432v-5.361c0-1.168.947-2.115 2.116-2.115z" fill="#fff"/></mask><g mask="url(#n)"><path d="M30.6 176.483c-.78-1.045 11.263-.023 11.312-4.361.049-4.339 2.828 5.607 2.828 5.607l-8.045 1.755" fill="#D89D35"/></g><rect x="28.866" y="185.617" width="12.328" height="3.12" rx="1.182" fill="#2976DF"/><rect x="31.324" y="190.915" width="7.411" height=".878" rx=".332" fill="#2976DF"/><path fill="#2976DF" d="M28.159 209.345H41.9v.683H28.159z"/><path d="m32.694 172.853-.39.26a.18.18 0 0 0-.079.101.174.174 0 0 0 .017.131.17.17 0 0 0 .232.061l.39-.26a.18.18 0 0 0 .079-.101.174.174 0 0 0-.017-.131.172.172 0 0 0-.104-.079.17.17 0 0 0-.128.018z" fill="#D89D35"/><path d="m37.191 203.415 1.17-1.3a.173.173 0 0 0 0-.24.172.172 0 0 0-.24 0l-1.17 1.3a.174.174 0 0 0 0 .24.17.17 0 0 0 .24 0z" fill="#2976DF"/><path d="M30.698 213.742a.17.17 0 0 0 0-.339.17.17 0 0 0 0 .339z" fill="#7B5CB7"/><circle cx="208.65" cy="279.234" r="42.853" fill="#97CC64"/><path d="M204.241 296.022h8.818v10.345c0 .616-.499 1.116-1.116 1.116h-6.586a1.117 1.117 0 0 1-1.116-1.116v-10.345z" fill="#935738"/><mask id="o" style="mask-type:luminance" maskUnits="userSpaceOnUse" x="204" y="296" width="10" height="12"><path fill-rule="evenodd" clip-rule="evenodd" d="M204.241 296.022h8.818v10.345c0 .616-.499 1.116-1.116 1.116h-6.586a1.117 1.117 0 0 1-1.116-1.116v-10.345z" fill="#fff"/></mask><g mask="url(#o)"><path d="M203.576 301.754c1.627-2.637-1.946 5.318 8.368 5.73 10.313.411-9.628 2.13-9.628 2.13l-2.063-3.932" fill="#6D3417"/></g><path d="M218.159 253.582H199.14l5.097 42.478h8.825l5.097-42.478z" fill="#F0F3FC"/><mask id="p" style="mask-type:luminance" maskUnits="userSpaceOnUse" x="199" y="253" width="20" height="44"><path fill-rule="evenodd" clip-rule="evenodd" d="M218.159 253.582H199.14l5.097 42.478h8.825l5.097-42.478z" fill="#fff"/></mask><g mask="url(#p)"><path d="M200.221 270.122c1.98-7.152.546 26.084 12.838 29.407 12.292 3.323-19.453 2.892-19.453 2.892l-.115-12.078" fill="#D6DCF2"/></g><path fill="#D6DCF2" d="M199.141 250.984h19.019v2.598h-19.019zM207.893 258.577a41.598 41.598 0 0 1-3.862 3.277c-.224.168-.005.55.222.38a42.578 42.578 0 0 0 3.95-3.346c.205-.196-.106-.507-.31-.31v-.001zM212.131 279.432l-.344.344a.22.22 0 0 0 .31.311l.344-.344a.227.227 0 0 0 .065-.155.225.225 0 0 0-.065-.155.225.225 0 0 0-.155-.065.227.227 0 0 0-.155.065v-.001z"/><path d="M207.645 302.834a8.132 8.132 0 0 0 2.117-.822c.247-.138.025-.518-.222-.379a7.734 7.734 0 0 1-2.011.777c-.276.065-.159.488.117.424h-.001z" fill="#6D3417"/><path d="M60.34 74.532c-2.313-2.698-47.792-55.5-48.95-56.657C10.235 16.72 6.22-1.657 1.883.121c-2.697 1.106-2.825 18.525 1.8 24.307 4.625 5.78 52.417 78.201 52.417 78.201l4.24-28.097z" fill="#FF9763"/><mask id="q" style="mask-type:luminance" maskUnits="userSpaceOnUse" x="0" y="0" width="61" height="103"><path fill-rule="evenodd" clip-rule="evenodd" d="M60.34 74.532c-2.313-2.698-47.792-55.5-48.95-56.657C10.235 16.72 6.22-1.657 1.883.121c-2.697 1.106-2.825 18.525 1.8 24.307 4.625 5.78 52.417 78.201 52.417 78.201l4.24-28.097z" fill="#fff"/></mask><g mask="url(#q)"><path d="M21.678 61.686c21.109 23.109 33.027 4.841 36.401 6.087 3.375 1.246 4.263 11.69 4.263 11.69L48.565 94.234l-21.11-3.663" fill="#E84B23"/></g><path d="M39.527 92.261c1.542-15.93 18.551-24.488 18.551-24.488S83.722 92.26 102.222 92.26c12.44 0 3.597 18.5 3.597 18.5l-14.483 26.723-51.809-45.223z" fill="#FFC562"/><mask id="r" style="mask-type:luminance" maskUnits="userSpaceOnUse" x="39" y="67" width="70" height="71"><path fill-rule="evenodd" clip-rule="evenodd" d="M39.527 92.261c1.542-15.93 18.551-24.488 18.551-24.488S83.722 92.26 102.222 92.26c12.44 0 3.597 18.5 3.597 18.5l-14.483 26.723-51.809-45.223z" fill="#fff"/></mask><g mask="url(#r)"><path d="M34.995 111.316c20.764-4.886 21.798-9.12 36.923 1.112 15.125 10.232 20.817-6.34 27.359-4.004 6.542 2.337 7.117 34.699 7.117 34.699l-28.47 4.893-42.93-36.7z" fill="#D89D35"/><path d="M82.885 73.452c-28.874-4.158-34.502 34.26-34.502 34.26" stroke="#fff" stroke-width="3.454" stroke-linecap="round" stroke-linejoin="round"/></g><path d="M151.094 137.484c.838.837 10.309 23.238 12.349 39.636 2.651 21.321-.358 48.909-.067 49.781.514 1.542 4.426 23.613.022 19.084-3.372-3.468-6.613-14.683-6.613-14.683s-5.829 6.165-3.946.995c1.227-3.367-1.477-32.3-5.527-50.069a38.035 38.035 0 0 0-6.549-13.501c-4.11-5.806 10.331-31.243 10.331-31.243z" fill="#FF9763"/><mask id="s" style="mask-type:luminance" maskUnits="userSpaceOnUse" x="140" y="137" width="26" height="110"><path fill-rule="evenodd" clip-rule="evenodd" d="M151.094 137.484c.838.837 10.309 23.238 12.349 39.636 2.651 21.321-.358 48.909-.067 49.781.514 1.542 4.426 23.613.022 19.084-3.372-3.468-6.613-14.683-6.613-14.683s-5.829 6.165-3.946.995c1.227-3.367-1.477-32.3-5.527-50.069a38.035 38.035 0 0 0-6.549-13.501c-4.11-5.806 10.331-31.243 10.331-31.243z" fill="#fff"/></mask><g mask="url(#s)"><path d="M138.556 179.601c13.332.074 12.779-17.197 18.722-22.227 5.943-5.03-13.39-1.03-13.39-1.03l-9.58 12.383" fill="#E84B23"/></g><path d="m94.225 401.263 2.175 21.692h14.964l-4.25-27.855-12.889 6.163z" fill="#FF9763"/><mask id="t" style="mask-type:luminance" maskUnits="userSpaceOnUse" x="94" y="395" width="18" height="28"><path fill-rule="evenodd" clip-rule="evenodd" d="m94.225 401.263 2.175 21.692h14.964l-4.25-27.855-12.889 6.163z" fill="#fff"/></mask><g mask="url(#t)"><path d="M92.341 409.028c-.003 3.848 15.656 2.523 17.713 5.352 2.057 2.829 1.308-5.352 1.308-5.352l-4.583-4.596-7.222.222" fill="#E84B23"/></g><path d="M62.099 427.834s0-12.712 19.28-9.242c9.813 1.766 14.237-3.47 14.237-3.47s11.287 7.04 15.441 6.2l1.223 6.512H62.099z" fill="#3A3530"/><path d="m170.442 382.767 11.978 39.867h-15.675l-12.302-36.533 15.999-3.334z" fill="#FF9763"/><mask id="u" style="mask-type:luminance" maskUnits="userSpaceOnUse" x="154" y="382" width="29" height="41"><path fill-rule="evenodd" clip-rule="evenodd" d="m170.442 382.767 11.978 39.867h-15.675l-12.302-36.533 15.999-3.334z" fill="#fff"/></mask><g mask="url(#u)"><path d="M154.444 415.122c16.331.975 11.894-11.347 21.223-14.963 9.329-3.615-10.09-5.059-10.09-5.059l-12.444 9.865" fill="#E84B23"/></g><path d="M213.795 428.1s4.462-14.495-16.665-8.864c-8.755 2.333-17.993-7.527-17.993-7.527s-8.764 8.396-13.56 7.455l2.79 8.936h45.428z" fill="#3A3530"/><path d="M92.692 411.003c17.615 2.848 22.677-3.559 22.677-3.559l-10.32-125.556 13.875-108.689-43.94 3.083s-5.78 94.6-5.01 102.908c.772 8.308 22.718 131.813 22.718 131.813z" fill="#589BF7"/><mask id="v" style="mask-type:luminance" maskUnits="userSpaceOnUse" x="69" y="173" width="50" height="239"><path fill-rule="evenodd" clip-rule="evenodd" d="M92.692 411.003c17.615 2.848 22.677-3.559 22.677-3.559l-10.32-125.556 13.875-108.689-43.94 3.083s-5.78 94.6-5.01 102.908c.772 8.308 22.718 131.813 22.718 131.813z" fill="#fff"/></mask><g mask="url(#v)"><path d="M96.524 202.426c4.615 34.886-1.925 56.465 8.02 98.494 9.946 42.028 14.38-51.333 14.38-51.333l3.266-15.399" fill="#2976DF"/></g><path d="m96.344 212.551 15.128 55.976 44.613 137.499a33.262 33.262 0 0 0 22.193-7.707l-34.944-135.445-12.685-94.147-44.94 4.472" fill="#589BF7"/><mask id="w" style="mask-type:luminance" maskUnits="userSpaceOnUse" x="85" y="168" width="94" height="239"><path fill-rule="evenodd" clip-rule="evenodd" d="m96.344 212.551 15.128 55.976 44.613 137.499a33.262 33.262 0 0 0 22.193-7.707l-34.944-135.445-12.685-94.147-44.94 4.472" fill="#fff"/></mask><g mask="url(#w)"><path d="M65.083 172.326c21.252 59.388 55.613-16.122 74.945 41.207 19.331 57.328-9.378-44.806-9.378-44.806l-47.2-20.604-23.11 15.998-20.812 15.48-9.357 12.439" fill="#2976DF"/></g><path d="M74.986 176.283c-16.663 26.112 15.803 23.177 47.533 7.962 31.731-15.216-30.188-10.083-30.188-10.083" fill="#F0F3FC"/><path d="M102.222 92.26s25.694 3.084 35.459 15.932c0 0 0 42.139-5.225 73.943 0 0-51.817 12.847-66.206-.456-10.27-9.496 12.446-50.99 26.292-73.967" fill="#FFC562"/><mask id="x" style="mask-type:luminance" maskUnits="userSpaceOnUse" x="63" y="92" width="75" height="96"><path fill-rule="evenodd" clip-rule="evenodd" d="M102.222 92.26s25.694 3.084 35.459 15.932c0 0 0 42.139-5.225 73.943 0 0-51.817 12.847-66.206-.456-10.27-9.496 12.446-50.99 26.292-73.967" fill="#fff"/></mask><g mask="url(#x)"><path d="M136.846 183.382c-38.24 26.856-.649.578-12.253-31.316-4.33-11.902-3.296-18.731-3.296-18.731l25.357 42.262-9.808 10.231" fill="#D89D35"/><path fill-rule="evenodd" clip-rule="evenodd" d="M82.444 134.474a20.607 20.607 0 0 1 20.547-14.087c8.619.864 13.395 8.574 10.666 17.217a20.607 20.607 0 0 1-20.547 14.087c-8.618-.864-13.394-8.574-10.666-17.217zm3.344.335c-2.144 6.792 1.608 12.849 8.38 13.528a16.191 16.191 0 0 0 16.144-11.068c2.144-6.792-1.608-12.849-8.38-13.528a16.19 16.19 0 0 0-16.144 11.068z" fill="#D89D35"/><path d="M93.917 132.056c.99.048 1.89-.569 2.202-1.509a1.341 1.341 0 0 0-1.143-1.845c-.99-.047-1.89.57-2.202 1.51a1.341 1.341 0 0 0 1.143 1.844zM105.426 129.75a2.209 2.209 0 0 0-2.201 1.51 1.342 1.342 0 0 0 1.143 1.844 2.207 2.207 0 0 0 2.201-1.509 1.342 1.342 0 0 0-1.143-1.845zM103.995 135.197a1.841 1.841 0 0 0-1.831 1.247l-.002.007a5.425 5.425 0 0 1-5.413 3.711 3.283 3.283 0 0 1-2.85-4.394c.02-.048.038-.097.054-.147a1.117 1.117 0 0 0-.953-1.537 1.84 1.84 0 0 0-1.835 1.257h-.01l-.002.007a5.535 5.535 0 0 0 4.713 7.61 9.105 9.105 0 0 0 9.079-6.219l.001-.004v-.003l.003-.007a1.119 1.119 0 0 0-.954-1.528z" fill="#D89D35"/><ellipse cx="118.846" cy="97.741" rx="15.552" ry="13.253" transform="rotate(-65.71 118.846 97.741)" fill="#F0F3FC"/></g><path d="m116.709 136.552 20.971 36.647c10.15-1.156 23.254-20.812 23.254-20.812s-13.513-39.574-25.155-45.33" fill="#FFC562"/><mask id="y" style="mask-type:luminance" maskUnits="userSpaceOnUse" x="116" y="107" width="45" height="67"><path fill-rule="evenodd" clip-rule="evenodd" d="m116.709 136.552 20.971 36.647c10.15-1.156 23.254-20.812 23.254-20.812s-13.513-39.574-25.155-45.33" fill="#fff"/></mask><g mask="url(#y)"><path d="M122.776 163.208c28.875 4.159 34.503-34.26 34.503-34.26" stroke="#fff" stroke-width="3.454" stroke-linecap="round" stroke-linejoin="round"/></g><rect x="109.778" y="80.757" width="16.345" height="26.955" rx="6.193" fill="#FF9763"/><mask id="z" style="mask-type:luminance" maskUnits="userSpaceOnUse" x="109" y="80" width="18" height="28"><rect x="109.778" y="80.757" width="16.345" height="26.955" rx="6.193" fill="#fff"/></mask><g mask="url(#z)"><path d="M107.394 103.912c5.207.926.458-7.977 7.077-9.88a7.644 7.644 0 0 0 5.471-8.646l-10.164-6.3s-7.193 16.88-7.028 17.376" fill="#E84B23"/></g><path d="M119.197 90.884a13.141 13.141 0 0 1-10.384-.271c-6.612-3.042-9.506-10.87-6.464-17.481l4.774-10.377a13.178 13.178 0 0 1 17.481-6.464c6.612 3.043 9.506 10.869 6.464 17.481l-2.638 5.732" fill="#FF9763"/><mask id="A" style="mask-type:luminance" maskUnits="userSpaceOnUse" x="101" y="55" width="32" height="37"><path fill-rule="evenodd" clip-rule="evenodd" d="M119.197 90.884a13.141 13.141 0 0 1-10.384-.271c-6.612-3.042-9.506-10.87-6.464-17.481l4.774-10.377a13.178 13.178 0 0 1 17.481-6.464c6.612 3.043 9.506 10.869 6.464 17.481l-2.638 5.732" fill="#fff"/></mask><g mask="url(#A)"><ellipse opacity=".27" cx="101.139" cy="76.952" rx="4.481" ry="2.744" transform="rotate(-6.116 101.139 76.952)" fill="#E84B23"/><ellipse opacity=".27" cx="118.017" cy="80.578" rx="2.766" ry="3.731" transform="rotate(-72.765 118.017 80.578)" fill="#E84B23"/><rect x="106.674" y="69.506" width="2.679" height="4.942" rx="1.015" transform="rotate(17.236 106.674 69.506)" fill="#190000"/><rect x="116.404" y="71.737" width="2.679" height="4.942" rx="1.015" transform="rotate(17.235 116.404 71.737)" fill="#190000"/><path d="M108.569 66.788c-2.848-.048-2.57 1.598-.792 1.745 1.778.146 2.653-1.713.792-1.745zM118.573 68.993c2.375 1.572 1.446 2.725-.102 1.839-1.549-.886-1.449-2.865.102-1.839z" fill="#190000"/><path d="M112.168 76.184c-.169.89-.864.393-1.803.215-.939-.179-1.769.03-1.6-.86a1.734 1.734 0 0 1 3.403.645z" fill="#E84B23"/><path d="M105.889 79.875c-.163 6.639 6.425 5.247 7.375 1.301a.5.5 0 0 0-.219-.53 10.205 10.205 0 0 0-6.699-1.261.511.511 0 0 0-.457.49z" fill="#C1525F"/><mask id="B" style="mask-type:luminance" maskUnits="userSpaceOnUse" x="105" y="79" width="9" height="6"><path fill-rule="evenodd" clip-rule="evenodd" d="M105.889 79.875c-.163 6.639 6.425 5.247 7.375 1.301a.5.5 0 0 0-.219-.53 10.205 10.205 0 0 0-6.699-1.261.511.511 0 0 0-.457.49z" fill="#fff"/></mask><g mask="url(#B)"><ellipse cx="109.695" cy="84.315" rx="3.329" ry="2.971" transform="rotate(-7.193 109.695 84.315)" fill="#993443"/><path d="M107.228 79.083a2.7 2.7 0 0 0-.056 1.135 6.777 6.777 0 0 0 4.444.83 6.43 6.43 0 0 0 .421-1.444l-4.262-.657" fill="#F0F3FC"/></g></g><path d="M135.915 45.936a12.517 12.517 0 0 0-10.403-.03c-4.211-5.601-12.068-6.928-17.885-3.02-5.817 3.907-7.559 11.683-3.966 17.699 3.593 6.016 11.265 8.169 17.464 4.9.061.073.118.15.181.22-.176.305-.383.581-.532.906a11.105 11.105 0 1 0 19.511-1.215 12.52 12.52 0 0 0-4.37-19.46z" fill="#3A3530"/><path d="M121.267 78.251a6.008 6.008 0 1 1 2.772 8.32" fill="#FF9763"/><path d="M115.514 51.218a4.961 4.961 0 0 0-.523 4.51.938.938 0 0 0 .397.517.883.883 0 0 0 .666.087.873.873 0 0 0 .604-1.065 4.172 4.172 0 0 1-.208-.7l-.022-.12a.897.897 0 0 0 .005.049 1.38 1.38 0 0 1-.03-.488c0-.153.013-.304.023-.457.008-.067.004-.04-.012.079l.019-.121a4.228 4.228 0 0 1 .187-.707l.044-.114c-.048.112-.054.125-.016.038.035-.073.069-.147.107-.22.076-.143.161-.282.253-.416a.87.87 0 0 0-.31-1.183.886.886 0 0 0-1.183.31l-.001.001zM126.548 79.85c.051.047.099.099.142.154l-.135-.175c.065.086.12.18.163.28l-.087-.207c.048.115.08.235.098.358l-.031-.23c.016.124.016.249 0 .372l.031-.23a1.384 1.384 0 0 1-.092.335l.087-.207a1.32 1.32 0 0 1-.113.204.864.864 0 0 0 .977 1.27.959.959 0 0 0 .517-.398c.128-.191.22-.405.271-.63.057-.23.075-.468.053-.704-.018-.3-.1-.594-.241-.86a1.878 1.878 0 0 0-.417-.555.908.908 0 0 0-.612-.253.865.865 0 0 0-.611 1.476z" fill="#190000"/><path d="M78.25 167.715a22.57 22.57 0 0 0 9.312 5.445.866.866 0 0 0 .46-1.668 20.7 20.7 0 0 1-8.548-5c-.798-.776-2.023.446-1.223 1.223z" fill="#D89D35"/><path d="M110.431 199.527a11.71 11.71 0 0 0 13.537 14.658c1.094-.197.63-1.864-.46-1.668a9.987 9.987 0 0 1-11.409-12.53.866.866 0 0 0-1.668-.46z" fill="#2976DF"/><path d="M88.409 412.742a12.212 12.212 0 0 1 2.485 5.327l1.667-.46c-.773-1.871-3.198-2.307-4.965-2.742a30.328 30.328 0 0 0-6.557-.86.865.865 0 0 0 0 1.729 28.029 28.029 0 0 1 8.209 1.405c.497.164 1.419.377 1.646.928a.865.865 0 0 0 1.668-.46 14.001 14.001 0 0 0-2.93-6.091.872.872 0 0 0-1.223 0 .886.886 0 0 0 0 1.224zM184.833 410.55a12.38 12.38 0 0 0-1.145 5.343.875.875 0 0 0 1.477.612 21.08 21.08 0 0 1 8.323-5.15c1.052-.346.601-2.017-.46-1.668a22.97 22.97 0 0 0-9.086 5.595l1.476.611a10.385 10.385 0 0 1 .909-4.471.892.892 0 0 0-.31-1.183.872.872 0 0 0-1.184.311z" fill="#190000"/><path d="m89.512 402.701 2.138 9.008s15.705 4.011 24.429-4.265l-.714-8.684s-5.321 7.687-25.853 3.941zM177.093 389.958l1.976 9.045s-12.414 10.419-23.864 6.742l-3.119-8.136s8.125 4.623 25.007-7.651z" fill="#FFC562"/><path d="m9.162 18.194-1.926 1.283a.917.917 0 0 0-.397.517.865.865 0 0 0 1.27.977l1.925-1.283a.916.916 0 0 0 .398-.517.865.865 0 0 0-1.27-.977zM159.277 230.889l1.283-3.85a.87.87 0 0 0-.604-1.064.884.884 0 0 0-1.064.604l-1.283 3.85a.87.87 0 0 0 .604 1.064.885.885 0 0 0 1.064-.604z" fill="#E84B23"/><path d="M119.986 144.475a14.722 14.722 0 0 0 3.815 7.466c.768.808 1.99-.416 1.223-1.224a13.093 13.093 0 0 1-3.369-6.701.873.873 0 0 0-1.064-.604.884.884 0 0 0-.605 1.064v-.001zM127.927 117.158a7.816 7.816 0 0 0-4.483 6.988.865.865 0 1 0 1.729 0 5.886 5.886 0 0 1 1.003-3.272c.137-.223.295-.433.47-.628.2-.229.415-.446.643-.647a4.22 4.22 0 0 1 .663-.495 6.79 6.79 0 0 1 .846-.451.87.87 0 0 0 .31-1.183.887.887 0 0 0-1.183-.311l.002-.001zM89.325 114.392a67.323 67.323 0 0 0 3.308-5.121.865.865 0 0 0-1.494-.873 67.594 67.594 0 0 1-3.308 5.121.868.868 0 0 0 .31 1.183.888.888 0 0 0 1.184-.31z" fill="#D89D35"/><path d="M94.063 388.597a15.763 15.763 0 0 0 8.985 1.855.888.888 0 0 0 .865-.864.87.87 0 0 0-.865-.865 14.147 14.147 0 0 1-8.113-1.618c-.98-.531-1.853.962-.873 1.493v-.001zM127.402 281.707l11.994 5.958c.993.494 1.87-.998.873-1.493l-11.994-5.959c-.993-.494-1.871.998-.873 1.494z" fill="#2976DF"/><rect x="165.476" y="119.315" width="55.666" height="100.707" rx="8.373" fill="#2976DF"/><mask id="C" style="mask-type:luminance" maskUnits="userSpaceOnUse" x="165" y="119" width="57" height="102"><rect x="165.476" y="119.315" width="55.666" height="100.707" rx="8.373" fill="#fff"/></mask><g mask="url(#C)"><path d="M185.872 183.304c14.814 27.431 9.882 45.852 9.882 45.852h25.854l3.923-47.823h-49.502" fill="#1665C4"/></g><rect x="172.636" y="129.478" width="14.981" height="18.478" rx="2.623" fill="#589BF7"/><path d="M198.705 181.333s18.048 27.717 3.898 58.553" stroke="#3A3530" stroke-width="1.865" stroke-linecap="round" stroke-linejoin="round"/><path fill="#589BF7" d="M187.618 248.894h11.087V429h-11.087z"/><mask id="D" style="mask-type:luminance" maskUnits="userSpaceOnUse" x="187" y="248" width="12" height="181"><path fill="#fff" d="M187.618 248.894h11.087V429h-11.087z"/></mask><g mask="url(#D)"><path d="M184.995 313.248c2.758-23.989 16.52-25.284 16.52-25.284l1.088-13.555-23.286 3.572" fill="#2976DF"/></g><rect x="183.72" y="270.375" width="18.882" height="18.882" rx="3.056" fill="#F0F3FC"/><path fill-rule="evenodd" clip-rule="evenodd" d="M115.854 137.336c12.952-31.268 43.463-51.655 77.307-51.655 46.213 0 83.677 37.464 83.677 83.677 0 33.844-20.387 64.355-51.655 77.307-31.268 12.951-67.259 5.792-91.19-18.139-23.931-23.931-31.09-59.922-18.139-91.19zm11.101 32.022c0 36.564 29.642 66.206 66.206 66.206 36.565 0 66.206-29.642 66.207-66.206 0-36.565-29.642-66.207-66.207-66.207-36.564 0-66.206 29.642-66.206 66.207z" fill="#F0F3FC"/><mask id="E" style="mask-type:luminance" maskUnits="userSpaceOnUse" x="109" y="85" width="168" height="169"><path fill-rule="evenodd" clip-rule="evenodd" d="M193.161 85.681c-33.844 0-64.355 20.387-77.307 51.655-12.951 31.268-5.792 67.259 18.139 91.19 23.931 23.931 59.922 31.09 91.19 18.139 31.268-12.952 51.655-43.463 51.655-77.307 0-46.213-37.464-83.677-83.677-83.677zm0 149.883c-36.564 0-66.206-29.642-66.206-66.206 0-36.565 29.642-66.207 66.206-66.207 36.565 0 66.207 29.642 66.207 66.207-.001 36.564-29.642 66.206-66.207 66.206z" fill="#fff"/></mask><g mask="url(#E)"><path d="M248.953 190.341c35.864 9.635 63.36-13.628 63.36-13.628l-35.475 60.86-41.634-26.964" fill="#D6DCF2"/></g><rect x="161.319" y="166.665" width="64.212" height="20.095" rx="1.715" fill="#9A7ED9"/><circle cx="198.705" cy="175.096" r="15.245" fill="#6F4EB9"/><path d="m203.635 146.141-2.977 4.789a1.22 1.22 0 0 0 .434 1.653 1.233 1.233 0 0 0 1.653-.433l2.977-4.789a1.218 1.218 0 0 0-.433-1.653 1.234 1.234 0 0 0-1.654.433z" fill="#1665C4"/><path d="m196.693 355.13-1.195 1.196a1.242 1.242 0 0 0 0 1.709c.227.226.534.354.854.355l.322-.043c.201-.056.385-.163.533-.311l1.195-1.195c.454-.48.454-1.23 0-1.709a1.212 1.212 0 0 0-.854-.355l-.321.043a1.213 1.213 0 0 0-.534.311v-.001z" fill="#2976DF"/></svg>