<svg width="462" height="332" fill="none" xmlns="http://www.w3.org/2000/svg"><rect x="206.159" y="11.003" width="84.492" height="113.133" rx="9.497" fill="#9A7ED9"/><mask id="a" style="mask-type:luminance" maskUnits="userSpaceOnUse" x="206" y="11" width="85" height="114"><rect x="206.159" y="11.003" width="84.492" height="113.133" rx="9.497" fill="#fff"/></mask><g mask="url(#a)"><path d="M290.651 72.53c-4.742-11.89 3.231 57.277-48.414 51.607-51.645-5.67 61.783 20.065 61.783 20.065l9.213-42.798" fill="#6F4EB9"/></g><rect x="213.439" y="20.298" width="69.932" height="63.36" rx="5.669" fill="#EFF3FC"/><mask id="b" style="mask-type:luminance" maskUnits="userSpaceOnUse" x="213" y="20" width="71" height="64"><rect x="213.439" y="20.298" width="69.932" height="63.36" rx="5.669" fill="#fff"/></mask><g mask="url(#b)"><path d="M211.244 51.978c-5.085-28.828 15.91-31.882 47.659-31.68 31.749.202-52.744-9.294-52.744-9.294l-10.165 3.25" fill="#D6DCF2"/></g><rect x="218.611" y="94.978" width="57.563" height="6.426" rx="3.213" fill="#6F4EB9"/><rect x="218.611" y="104.799" width="41.866" height="6.426" rx="3.213" fill="#6F4EB9"/><path d="M259.081 42.254V37.16h-9.452v12.13a1.223 1.223 0 1 1-2.447 0v-12.13h-9.452v5.187c0 4.02-2.329 7.677-5.972 9.377l-1.851.864v19.635c0 .764.619 1.383 1.382 1.383h12.515c.657 0 1.223-.461 1.355-1.104l2.57-12.496h1.351l2.57 12.496a1.382 1.382 0 0 0 1.355 1.104h12.516a1.384 1.384 0 0 0 1.382-1.383V52.496l-1.851-.864a10.346 10.346 0 0 1-5.971-9.378z" fill="#9A7ED9"/><path d="M261.635 37.16v5.094a7.82 7.82 0 0 0 4.497 7.063l.772.36V37.16h-5.269zM235.175 42.347v-5.188h-5.268v12.61l.772-.36a7.819 7.819 0 0 0 4.496-7.062z" fill="#9A7ED9"/><path d="M266.737 32.184a1.834 1.834 0 0 0-1.833-1.834h-32.998c-1.012 0-1.833.821-1.833 1.834v3.112h36.664v-3.112zM259.576 55.937l-1.43 3.336a.525.525 0 0 0 .182.694c.243.14.552.059.695-.182l1.43-3.336a.525.525 0 0 0-.182-.695.512.512 0 0 0-.695.183zM268.75 109.738l-2.394 1.891a.508.508 0 0 0 0 .718.521.521 0 0 0 .718 0l2.394-1.891a.508.508 0 0 0 0-.718.521.521 0 0 0-.718 0z" fill="#6F4EB9"/><rect x="371.784" y="40.953" width="58.593" height="78.455" rx="6.586" fill="#FFC562"/><mask id="c" style="mask-type:luminance" maskUnits="userSpaceOnUse" x="371" y="40" width="60" height="80"><rect x="371.784" y="40.953" width="58.593" height="78.455" rx="6.586" fill="#fff"/></mask><g mask="url(#c)"><path d="M433.653 42.618c7.232 85.871-34.098 85.566-62.513 82.413-28.414-3.152 42.817 15.025 42.817 15.025l20.085-3.305 12.138-48.884" fill="#D89D35"/></g><rect x="376.833" y="47.399" width="48.496" height="43.939" rx="3.932" fill="#EFF3FC"/><mask id="d" style="mask-type:luminance" maskUnits="userSpaceOnUse" x="376" y="47" width="50" height="45"><rect x="376.833" y="47.399" width="48.496" height="43.939" rx="3.932" fill="#fff"/></mask><g mask="url(#d)"><path d="M367.683 78.579c5.525-38.338 40.514-33.38 40.514-33.38l-54.224-1.758" fill="#D6DCF2"/></g><rect x="380.419" y="99.188" width="39.918" height="4.456" rx="2.228" fill="#E84B23"/><rect x="380.419" y="105.998" width="29.033" height="4.456" rx="2.228" fill="#E84B23"/><path d="M411.095 56.492h-4.493a5.694 5.694 0 0 1-11.039 0h-4.499v.003l-8.58 4.288 2.862 7.154 5.718-2.862v17.17h20.031v-17.17l5.721 2.862 2.862-7.154-8.583-4.291z" fill="#FFC562"/><mask id="e" style="mask-type:luminance" maskUnits="userSpaceOnUse" x="382" y="56" width="38" height="27"><path fill-rule="evenodd" clip-rule="evenodd" d="M411.095 56.492h-4.493a5.694 5.694 0 0 1-11.039 0h-4.499v.003l-8.58 4.288 2.862 7.154 5.718-2.862v17.17h20.031v-17.17l5.721 2.862 2.862-7.154-8.583-4.291z" fill="#fff"/></mask><g mask="url(#e)"><path d="M381.14 67.342c1.344-6.559 13.771-10.208 18.521-8.923 4.75 1.284-6.623-7.726-6.623-7.726l-22.474 6.468" fill="#D89D35"/></g><path d="m400.407 70.415-.995.988a.353.353 0 0 0 .498.498l.994-.989a.352.352 0 0 0-.497-.498zM424.13 109.302c-.03.043-.061.085-.093.128.021-.029.015-.019-.003.003l-.05.061a4.237 4.237 0 0 1-.428.44 3.26 3.26 0 0 1-.108.092l-.061.049c.039-.031.004-.003-.017.012a3.905 3.905 0 0 1-.773.453c-.06.027.021-.008-.017.007l-.073.029a3.724 3.724 0 0 1-.148.054.353.353 0 0 0 .187.679 4.434 4.434 0 0 0 2.192-1.651.354.354 0 0 0-.126-.482.361.361 0 0 0-.482.126z" fill="#D89D35"/><path d="M71.502 54.06a27.432 27.432 0 0 0 3.558 2.828c1.24.829 2.536 1.57 3.879 2.22 1.674.812 3.41 1.49 5.192 2.026 1.09.325 1.75.457 1.75.457l.027-.008a28.692 28.692 0 0 0 2.3-.808 41.44 41.44 0 0 0 5.522-2.661 36.643 36.643 0 0 0 3.671-2.42 31.29 31.29 0 0 0 2.522-2.106c.999-.927 1.926-1.929 2.772-2.998a21.927 21.927 0 0 0 3.452-6.163c.51-1.422.863-2.896 1.052-4.395a22.31 22.31 0 0 0 .176-2.818c0-.69-.055-1.379-.163-2.06a14.366 14.366 0 0 0-3.813-7.62 13.292 13.292 0 0 0-2.21-1.854 11.794 11.794 0 0 0-3.764-1.665 10.905 10.905 0 0 0-2.569-.307 12.42 12.42 0 0 0-8.976 3.805 12.42 12.42 0 0 0-8.977-3.805c-.695 0-1.389.067-2.07.2-1.287.252-2.521.723-3.65 1.39a13.188 13.188 0 0 0-2.822 2.236 14.367 14.367 0 0 0-3.825 7.702c-.1.655-.15 1.316-.15 1.979-.002 1.043.059 2.086.181 3.122.18 1.542.517 3.063 1.003 4.537a21.589 21.589 0 0 0 3.284 6.24c.799 1.054 1.685 2.04 2.648 2.946z" fill="#BB393C"/><mask id="f" style="mask-type:luminance" maskUnits="userSpaceOnUse" x="64" y="23" width="44" height="39"><path fill-rule="evenodd" clip-rule="evenodd" d="M71.502 54.06a27.432 27.432 0 0 0 3.558 2.828c1.24.829 2.536 1.57 3.879 2.22 1.674.812 3.41 1.49 5.192 2.026 1.09.325 1.75.457 1.75.457l.027-.008a28.692 28.692 0 0 0 2.3-.808 41.44 41.44 0 0 0 5.522-2.661 36.643 36.643 0 0 0 3.671-2.42 31.29 31.29 0 0 0 2.522-2.106c.999-.927 1.926-1.929 2.772-2.998a21.927 21.927 0 0 0 3.452-6.163c.51-1.422.863-2.896 1.052-4.395a22.31 22.31 0 0 0 .176-2.818c0-.69-.055-1.379-.163-2.06a14.366 14.366 0 0 0-3.813-7.62 13.292 13.292 0 0 0-2.21-1.854 11.794 11.794 0 0 0-3.764-1.665 10.905 10.905 0 0 0-2.569-.307 12.42 12.42 0 0 0-8.976 3.805 12.42 12.42 0 0 0-8.977-3.805c-.695 0-1.389.067-2.07.2-1.287.252-2.521.723-3.65 1.39a13.188 13.188 0 0 0-2.822 2.236 14.367 14.367 0 0 0-3.825 7.702c-.1.655-.15 1.316-.15 1.979-.002 1.043.059 2.086.181 3.122.18 1.542.517 3.063 1.003 4.537a21.589 21.589 0 0 0 3.284 6.24c.799 1.054 1.685 2.04 2.648 2.946z" fill="#fff"/></mask><g mask="url(#f)"><path d="M87.693 22.513c23.121-2.356 15.261 34.976-3.561 38.62-18.823 3.646 14.164 6.738 14.164 6.738l27.392-44.164h-12.371" fill="#90282A"/></g><path d="M76.747 33.149a2.776 2.776 0 0 0-.017 2.226c.066.112.21.15.321.084a.242.242 0 0 0 .084-.322 2.254 2.254 0 0 1 .018-1.751.243.243 0 0 0-.084-.322.237.237 0 0 0-.322.084zM93.837 49.535a4.774 4.774 0 0 1-2.84 2.434c-.288.09-.164.545.126.454a5.242 5.242 0 0 0 3.12-2.65c.135-.271-.272-.51-.406-.238z" fill="#90282A"/><path d="M355.69 20.15a5.235 5.235 0 0 0-3.514-5.14.63.63 0 0 0-.151-.012h-10.303c-.039 0-.062-.2-.053-.235a22.412 22.412 0 0 0 .73-9.441l-.003-.01A5.026 5.026 0 0 0 337.714 0a4.939 4.939 0 0 0-4.651 4.67h-.003c-.946 8.902-6.984 11.558-8.342 12.05a.07.07 0 0 1-.025 0 1.323 1.323 0 0 0-.247 0h-6.335a1.809 1.809 0 0 0-1.697 1.91v22.08a1.74 1.74 0 0 0 1.697 1.836h29.195c.166.009.333.009.5 0a4.591 4.591 0 0 0 4.156-2.89c.339-.733 3.52-17.959 3.52-17.959h.003c.06-.235.106-.473.137-.713l.014-.078V20.9c.034-.248.052-.498.054-.749" fill="#FFC562"/><mask id="g" style="mask-type:luminance" maskUnits="userSpaceOnUse" x="316" y="0" width="40" height="43"><path fill-rule="evenodd" clip-rule="evenodd" d="M355.69 20.15a5.235 5.235 0 0 0-3.514-5.14.63.63 0 0 0-.151-.012h-10.303c-.039 0-.062-.2-.053-.235a22.412 22.412 0 0 0 .73-9.441l-.003-.01A5.026 5.026 0 0 0 337.714 0a4.939 4.939 0 0 0-4.651 4.67h-.003c-.946 8.902-6.984 11.558-8.342 12.05a.07.07 0 0 1-.025 0 1.323 1.323 0 0 0-.247 0h-6.335a1.809 1.809 0 0 0-1.697 1.91v22.08a1.74 1.74 0 0 0 1.697 1.836h29.195c.166.009.333.009.5 0a4.591 4.591 0 0 0 4.156-2.89c.339-.733 3.52-17.959 3.52-17.959h.003c.06-.235.106-.473.137-.713l.014-.078V20.9c.034-.248.052-.498.054-.749" fill="#fff"/></mask><g mask="url(#g)" fill="#D89D35"><path d="M322.789 25.7c4.185-3.615.571 17.475 17.883 18.345 17.311.87-30.456 6.767-30.456 6.767l4.942-16.741M344.155 7.626 341.723 15s-.053 1.318-2.174 3.187c-2.122 1.868 12.627-3.176 12.627-3.176l-3.626-3.429"/></g><rect x="310.216" y="13.656" width="14.824" height="30.388" rx="1.596" fill="#FE7578"/><mask id="h" style="mask-type:luminance" maskUnits="userSpaceOnUse" x="310" y="13" width="16" height="32"><rect x="310.216" y="13.656" width="14.824" height="30.388" rx="1.596" fill="#fff"/></mask><g mask="url(#h)"><path d="M309.608 30.392c-1.323-13.045 2.028-16.956 9.567-16.736 7.54.22-15.439-3.01-15.439-3.01l-1.675 4.787" fill="#E55A61"/></g><circle cx="317.628" cy="21.275" r="2.47" fill="#EFF3FC"/><path d="M337.844 19.166c2.48-.187 4.022-5.14 4.022-5.14z" fill="#FFC562"/><path d="M346.84 23.272a10.845 10.845 0 0 1-2.598 4.181.255.255 0 0 0 .36.361 11.415 11.415 0 0 0 2.73-4.407c.106-.311-.386-.445-.492-.135z" fill="#D89D35"/><path d="M318.323 33.794a6.343 6.343 0 0 0 1 4.74c.185.268.628.013.441-.258a5.826 5.826 0 0 1-.949-4.347c.059-.32-.432-.458-.492-.135z" fill="#E55A61"/><mask id="i" style="mask-type:luminance" maskUnits="userSpaceOnUse" x="0" y="28" width="462" height="295"><path fill="#fff" d="M0 28.59h461.751v294.277H0z"/></mask><g mask="url(#i)"><path d="M35.32 171.9s1.453-73.217 4.638-84.219c0 0-2.672-6.653-4.21-11.285-1.537-4.632 3.797-20.21 10.219-17.56 0 0 5.372-1.314 6.612 1.426 0 0 4.628-1.233 5.596-.056 0 0 4.07-.513 4.445.104 1.186 1.951 1.173 14.525 1.173 14.525a11.49 11.49 0 0 1-1.14 5.684c-1.308 1.823-6.932 7.826-6.932 7.826l1.844 70.838-1.199 18.768L35.32 171.9z" fill="#FF9763"/><mask id="j" style="mask-type:luminance" maskUnits="userSpaceOnUse" x="35" y="58" width="29" height="120"><path fill-rule="evenodd" clip-rule="evenodd" d="M35.32 171.9s1.453-73.217 4.638-84.219c0 0-2.672-6.653-4.21-11.285-1.537-4.632 3.797-20.21 10.219-17.56 0 0 5.372-1.314 6.612 1.426 0 0 4.628-1.233 5.596-.056 0 0 4.07-.513 4.445.104 1.186 1.951 1.173 14.525 1.173 14.525a11.49 11.49 0 0 1-1.14 5.684c-1.308 1.823-6.932 7.826-6.932 7.826l1.844 70.838-1.199 18.768L35.32 171.9z" fill="#fff"/></mask><g mask="url(#j)"><path d="M14.264 101.613c14.595-7.658 43.622-1.406 43.622-1.406l-.957 5.483-29.205 2.028" fill="#E84B23"/></g><path d="M47.496 81.247c.992-2.906 2.728-6.728 5.215-7.72l-4.17-2.04s-7.124 5.463-7.875 1.56c0 0 7.172-6.656 8.606-6.904 1.435-.249 14.978 3.545 15.186 4.321.209.776-.578 8.536-1.806 10.054-1.227 1.518-6.931 7.826-6.931 7.826" fill="#FF9763"/><path d="M29.186 109.768c-.16-7.229 28.7-9.561 28.7-9.561l3.82 60.398 76.022-3.226 11.567 47.129-102.223-7.198a20.175 20.175 0 0 1-15.95-19.221c-.582-21.865-1.81-62.667-1.936-68.321z" fill="#FE7578"/><mask id="k" style="mask-type:luminance" maskUnits="userSpaceOnUse" x="29" y="100" width="121" height="105"><path fill-rule="evenodd" clip-rule="evenodd" d="M29.186 109.768c-.16-7.229 28.7-9.561 28.7-9.561l3.82 60.398 76.022-3.226 11.567 47.129-102.223-7.198a20.175 20.175 0 0 1-15.95-19.221c-.582-21.865-1.81-62.667-1.936-68.321z" fill="#fff"/></mask><g mask="url(#k)"><path d="M-1.11 190.686c112.913 22.402 130.769-13.845 130.769-13.845l14.266 42.068-59.322 17.782-88.411-34.056" fill="#BA393C"/><path d="M21.19 132.214c8.201-14.864 42.61-18.802 42.61-18.802" stroke="#BA393C" stroke-width="2.329" stroke-linecap="round" stroke-linejoin="round"/><path d="M35.32 101.748c-2.114 3.935-.664 19.53-.664 19.53M41.24 98.11c-2.113 3.935-.663 19.53-.663 19.53M48.422 96.391c-2.114 3.935-.664 19.53-.664 19.53M54.472 95.197c-2.113 3.935-.663 19.53-.663 19.53" stroke="#BA393C" stroke-width="2.329" stroke-linecap="round" stroke-linejoin="round"/><ellipse cx="36.298" cy="196.473" rx="12.806" ry="22.938" transform="rotate(-75.64 36.298 196.473)" fill="#BA393C"/></g><path d="M160.749 600.439c18.417 8.908 45.27-6.809 45.27-6.809L164.92 434.162l13.486-169.512-66.118 19.605s-2.52 103.245.91 149.849c1.649 22.384 47.551 166.335 47.551 166.335z" fill="#274B69"/><mask id="l" style="mask-type:luminance" maskUnits="userSpaceOnUse" x="111" y="264" width="96" height="340"><path fill-rule="evenodd" clip-rule="evenodd" d="M160.749 600.439c18.417 8.908 45.27-6.809 45.27-6.809L164.92 434.162l13.486-169.512-66.118 19.605s-2.52 103.245.91 149.849c1.649 22.384 47.551 166.335 47.551 166.335z" fill="#fff"/></mask><g mask="url(#l)"><path d="M156.369 278.251c-6.534 57.23-42.941-10.453-41.611 64.711 1.615 91.234-34.81-16.507-34.81-16.507l15.664-51.405" fill="#11314B"/></g><path d="m145.821 336.017 30.496 91.737 93.753 180.362s35.432-.883 42.755-12.153l-85.891-177.945-32.713-153.35-65.668 19.407" fill="#274B69"/><path d="m201.996 286.407.793 13.429s-30.26 21.701-91.394-2.237l-1.446-13.955c34.611 14.196 92.047 2.763 92.047 2.763z" fill="#FF9763"/><path d="M143.154 292.927a1.978 1.978 0 0 0-1.572-.972 1.982 1.982 0 0 0-2.109 1.841l-.802 11.813a1.982 1.982 0 0 0 1.841 2.109 1.982 1.982 0 0 0 2.108-1.841" fill="#FFC562"/><path d="m177.557 299.63 2.395 3.67a2.399 2.399 0 0 1-.347 3.039l-3.347 3.215a2.599 2.599 0 0 1-2.027.727c-5.633-.474-29.882-2.599-34.561-4.507l1.762-11.812s23.899 4.486 32.97 4.093a3.543 3.543 0 0 1 3.155 1.575z" fill="#FFC562"/><path d="M153.968 308.494a12.699 12.699 0 0 0 1.958-6.616 11.806 11.806 0 0 0-2.027-7.57" stroke="#fff" stroke-width="2.329" stroke-linecap="round" stroke-linejoin="round"/><path d="M130.196 157.798s25.395-9.768 84.561 1.644a7.767 7.767 0 0 1 5.787 10.34c-5.237 14.115-14.254 48.248-15.775 118.348 0 0-52.92 29.363-98.452-.826 0 0-7.37-63.957 8.088-104.922" fill="#FE7578"/><mask id="m" style="mask-type:luminance" maskUnits="userSpaceOnUse" x="104" y="153" width="118" height="148"><path fill-rule="evenodd" clip-rule="evenodd" d="M130.196 157.798s25.395-9.768 84.561 1.644a7.767 7.767 0 0 1 5.787 10.34c-5.237 14.115-14.254 48.248-15.775 118.348 0 0-52.92 29.363-98.452-.826 0 0-7.37-63.957 8.088-104.922" fill="#fff"/></mask><g mask="url(#m)"><path d="M201.136 201.943c-18.387 80.706 11.038 93.61-90.17 90.811-112.796-3.119-4.179 45.56-4.179 45.56s129.981-9.468 129.988-15.801c.006-6.332 6.396-114.403 6.396-114.403l-22.858-24.507-13.107 1.777" fill="#BA393C"/><path d="m149.924 192.688-28.473 37.157 50.6 7.604-22.127-44.761z" fill="#FFC562"/><ellipse cx="147.889" cy="218.95" rx="20.251" ry="21.762" transform="rotate(-37.784 147.889 218.95)" stroke="#BA393C" stroke-width="2.329" stroke-linecap="round" stroke-linejoin="round"/><path d="M136.074 148.829c4.137 36.801 18.473 46.882 56.513 5.077 38.039-41.805-27.176-13.583-27.176-13.583l-25.816 9.421" fill="#F0F3FC"/></g><path d="M298.915 209.947s33.797-69.401 36.231-81.148c0 0 5.571-5.06 9.162-8.725 3.592-3.665 6.301-20.668-.695-21.035 0 0-4.161-3.625-6.58-1.603 0 0-3.536-3.217-4.963-2.542 0 0-3.383-2.293-4.013-1.88-1.993 1.304-8.008 13.117-8.008 13.117a12.677 12.677 0 0 0-1.708 5.846c.292 2.294 2.43 10.433 2.43 10.433l-35.598 65.697-7.926 18.157 21.668 3.683z" fill="#FF9763"/><mask id="n" style="mask-type:luminance" maskUnits="userSpaceOnUse" x="277" y="92" width="71" height="118"><path fill-rule="evenodd" clip-rule="evenodd" d="M298.915 209.947s33.797-69.401 36.231-81.148c0 0 5.571-5.06 9.162-8.725 3.592-3.665 6.301-20.668-.695-21.035 0 0-4.161-3.625-6.58-1.603 0 0-3.536-3.217-4.963-2.542 0 0-3.383-2.293-4.013-1.88-1.993 1.304-8.008 13.117-8.008 13.117a12.677 12.677 0 0 0-1.708 5.846c.292 2.294 2.43 10.433 2.43 10.433l-35.598 65.697-7.926 18.157 21.668 3.683z" fill="#fff"/></mask><g mask="url(#n)"><path d="M338.585 151.003c-3.62-20.572-22.636-19.695-22.636-19.695l.414 24.355 13.017.771" fill="#E84B23"/></g><path d="M331.895 114.875a8.032 8.032 0 0 0-1.338-5.04l4.697-.062s3.733 8.3 6.274 4.97c0 0-3.205-9.442-4.365-10.313-1.16-.871-15.056-3.334-15.613-2.698-.558.636-3.576 8.272-3.209 10.244.367 1.972 2.43 10.433 2.43 10.433" fill="#FF9763"/><path d="m186.585 194.052 87.43 33.817c8.382 1.831 17.633-2.962 22.37-11.602 11.087-20.22 35.439-61.296 38.304-66.523 3.783-6.9-20.575-19.488-20.575-19.488l-32.662 52.884-64.247-22.779" fill="#FE7578"/><mask id="o" style="mask-type:luminance" maskUnits="userSpaceOnUse" x="186" y="130" width="150" height="99"><path fill-rule="evenodd" clip-rule="evenodd" d="m186.585 194.052 87.43 33.817c8.382 1.831 17.633-2.962 22.37-11.602 11.087-20.22 35.439-61.296 38.304-66.523 3.783-6.9-20.575-19.488-20.575-19.488l-32.662 52.884-64.247-22.779" fill="#fff"/></mask><g mask="url(#o)"><circle cx="294.706" cy="237.299" r="27.352" fill="#BA393C"/></g><path d="m178.98 155.003-25.383 16.198-2.522-8.882.052-46.23 27.896.03-.043 38.884z" fill="#FF9763"/><mask id="p" style="mask-type:luminance" maskUnits="userSpaceOnUse" x="151" y="116" width="29" height="56"><path fill-rule="evenodd" clip-rule="evenodd" d="m178.98 155.003-25.383 16.198-2.522-8.882.052-46.23 27.896.03-.043 38.884z" fill="#fff"/></mask><g mask="url(#p)"><path d="M139.424 160.664c22.134-6.329 10.719-13.435 22.335-18.242 11.616-4.807-.292-10.202-.292-10.202l-7.91-3.513-13.446 4.573 3.455 16.873" fill="#E84B23"/></g><path d="m179.234 117.34 5.429-25.996-41.199 2.873c-5.245 7.359-8.243 30.576-5.577 43.314 1.087 5.2 16.971 2.056 27.822-.738" fill="#FF9763"/><mask id="q" style="mask-type:luminance" maskUnits="userSpaceOnUse" x="136" y="91" width="49" height="50"><path fill-rule="evenodd" clip-rule="evenodd" d="m179.234 117.34 5.429-25.996-41.199 2.873c-5.245 7.359-8.243 30.576-5.577 43.314 1.087 5.2 16.971 2.056 27.822-.738" fill="#fff"/></mask><g mask="url(#q)"><ellipse opacity=".27" cx="135.234" cy="119.613" rx="3.971" ry="5.353" transform="rotate(-86.487 135.234 119.613)" fill="#E84B23"/><ellipse opacity=".27" cx="160.457" cy="121.271" rx="3.971" ry="5.353" transform="rotate(-86.487 160.457 121.271)" fill="#E84B23"/><path d="M141.215 114.774a1.865 1.865 0 0 1-1.621-2.094l.446-3.101a1.896 1.896 0 0 1 2.149-1.579 1.864 1.864 0 0 1 1.621 2.093l-.446 3.101a1.897 1.897 0 0 1-2.149 1.58zM155.369 115.653a1.86 1.86 0 0 1-1.621-2.093l.446-3.101a1.896 1.896 0 0 1 2.149-1.58 1.866 1.866 0 0 1 1.621 2.094l-.446 3.101a1.897 1.897 0 0 1-2.149 1.579zM142.341 103.609c-4.004.568-3.238 2.755-.712 2.559 2.527-.197 3.327-2.93.712-2.559zM156.872 104.393c3.689 1.618 2.65 3.398.276 2.534-2.374-.865-2.686-3.591-.276-2.534z" fill="#190000"/><path d="M149.536 115.641c-.034 1.253-1.122.729-2.48.694-1.359-.034-2.474.435-2.44-.818a2.47 2.47 0 0 1 4.92.124z" fill="#E84B23"/><path d="M141.575 122.079c1.289 9.104 10.208 5.736 10.638.136a.692.692 0 0 0-.428-.676 14.862 14.862 0 0 0-9.682-.232.709.709 0 0 0-.528.772z" fill="#C1525F"/><mask id="r" style="mask-type:luminance" maskUnits="userSpaceOnUse" x="141" y="120" width="12" height="8"><path fill-rule="evenodd" clip-rule="evenodd" d="M141.575 122.079c1.289 9.104 10.208 5.736 10.638.136a.692.692 0 0 0-.428-.676 14.862 14.862 0 0 0-9.682-.232.709.709 0 0 0-.528.772z" fill="#fff"/></mask><g mask="url(#r)"><ellipse cx="147.959" cy="127.363" rx="4.721" ry="4.119" transform="rotate(-13.443 147.959 127.363)" fill="#993443"/><path d="M143.271 120.7a3.635 3.635 0 0 0 .181 1.562c.963.934 5.754.648 6.421.144a8.72 8.72 0 0 0 .26-2.066l-6.126.053" fill="#F0F3FC"/></g></g><path d="M145.769 75.793c-31.467-2.1-17.909 6.223-11.958 8.573 5.952 2.35-41.98-12.915-33.86-.037 8.12 12.878 33.562 12.136 58.728 13.966 25.166 1.829 4.595 20.285 16.581 22.394 11.986 2.109 32.153-40.78-29.491-44.896z" fill="#3A3530"/><path d="m142.304 154.368 8.541-6.715 2.752 23.548-5.264 5.5-6.029-22.333z" fill="#F0F3FC"/><path d="m156.629 177.451-3.032-6.25 25.426-25.87 7.562 9.882-29.956 22.238z" fill="#F0F3FC"/><path d="M175.826 319.789c2.623 24.485 23.319 18.363 23.319 18.363z" fill="#274B69"/><path d="M175.826 319.789c2.623 24.485 23.319 18.363 23.319 18.363" stroke="#11314B" stroke-width="3.106"/><ellipse cx="139.713" cy="111.744" rx="7.652" ry="4.737" transform="rotate(-83.17 139.713 111.744)" stroke="#190000" stroke-width="2.329" stroke-linecap="round" stroke-linejoin="round"/><ellipse cx="155.763" cy="111.882" rx="7.652" ry="5.896" transform="rotate(-83.17 155.763 111.882)" stroke="#190000" stroke-width="2.329" stroke-linecap="round" stroke-linejoin="round"/><path d="M149.839 112.438a3.443 3.443 0 0 0-5.601.474M161.98 111.19l9.182.693" stroke="#190000" stroke-width="2.329" stroke-linecap="round" stroke-linejoin="round"/><path d="M166.353 116.473c5.707-10.071 24.736-11.059 10.799 10.52z" fill="#FF9763"/><path d="M146.114 85.744a3.61 3.61 0 0 0 1.872 2.425 8.105 8.105 0 0 0 3.294.765 1.182 1.182 0 0 0 1.178-1.179 1.209 1.209 0 0 0-1.178-1.179 21.481 21.481 0 0 1-.936-.093l.314.042a6.555 6.555 0 0 1-1.056-.218c-.091-.028-.181-.062-.271-.093-.214-.073.244.119-.024-.013a3.246 3.246 0 0 1-.385-.222c-.096-.065-.204-.215.024.025-.053-.056-.121-.103-.177-.156a2.88 2.88 0 0 1-.238-.26c.117.155.15.196.097.122-.079-.123-.142-.25-.214-.376.178.31.053.127.021.01a2.201 2.201 0 0 1-.048-.227 1.18 1.18 0 0 0-2.155-.282c-.144.28-.186.601-.119.909h.001zM173.79 119.388c.114-.105.228-.209.351-.304l-.239.185a1.86 1.86 0 0 1 .39-.234l-.281.119c.088-.036.181-.061.275-.075l-.313.042a.871.871 0 0 1 .191-.001l-.313-.042a.669.669 0 0 1 .153.043l-.281-.119a.794.794 0 0 1 .156.093l-.239-.185a.92.92 0 0 1 .142.144l-.185-.238a.792.792 0 0 1 .088.152l-.119-.281a.595.595 0 0 1 .039.143l-.042-.313a.479.479 0 0 1 0 .107l.042-.314a.446.446 0 0 1-.027.103l.119-.282a.488.488 0 0 1-.046.08l.185-.239-.038.044c-.217.224-.34.522-.345.834.002.312.126.611.345.833.222.22.521.344.833.345a1.21 1.21 0 0 0 .834-.345c.092-.096.173-.201.243-.314a2.11 2.11 0 0 0 .158-.371 2.565 2.565 0 0 0 .057-.401 1.908 1.908 0 0 0-.077-.519 2.351 2.351 0 0 0-.165-.378 2.489 2.489 0 0 0-.328-.417 1.919 1.919 0 0 0-1.239-.525c-.1 0-.2.009-.299.027-.104.01-.207.027-.309.052a3.352 3.352 0 0 0-.558.238 4.084 4.084 0 0 0-.529.385c-.103.082-.2.172-.296.262a1.176 1.176 0 0 0 0 1.666c.221.221.521.345.833.346.311-.009.608-.132.833-.346h.001z" fill="#190000"/><path d="M123.874 262.15a37.35 37.35 0 0 0 19.879 9.271 1.221 1.221 0 0 0 1.449-.824 1.185 1.185 0 0 0-.823-1.449 35.246 35.246 0 0 1-18.838-8.665c-1.125-1.012-2.797.65-1.667 1.667zM59.422 160.325a8.974 8.974 0 0 1-.339 1.045c-.014.036-.081.194-.008.023l-.024.055-.06.129a8.436 8.436 0 0 1-.45.844c-.105.172-.215.34-.33.504-.061.087-.125.172-.188.258-.09.122.15-.187.054-.071-.038.045-.075.092-.112.138a8.95 8.95 0 0 1-.884.919 1.187 1.187 0 0 0 0 1.667c.466.446 1.2.446 1.667 0a10.043 10.043 0 0 0 2.947-4.885 1.179 1.179 0 1 0-2.273-.626zM280.123 183.668a17.338 17.338 0 0 1-.388 6.705 1.18 1.18 0 0 0 2.273.627c.623-2.392.783-4.88.473-7.332a1.211 1.211 0 0 0-1.179-1.179c-.57.026-1.264.524-1.179 1.179z" fill="#BA393C"/><path d="M53.944 87.361h-1.166a1.212 1.212 0 0 0-1.179 1.179l.043.313c.053.197.158.376.302.52.224.218.522.341.833.346h1.166a1.211 1.211 0 0 0 1.179-1.179l-.042-.313a1.176 1.176 0 0 0-.303-.52 1.225 1.225 0 0 0-.833-.346z" fill="#E84B23"/><path d="M396.605 214.695s16.019-29.904 28.323-39.259c11.323-8.61 16.641-6.535 17.726-10.754.828-3.222-12.101 1.524-13.709-2.092-1.608-3.616 4.983-14.963 10.377-17.125 4.55-1.824.798-4.377-4.471-3.317-7.026 1.413-17.799 17.127-20.692 25.264-2.893 8.136-23.712 23.205-31.119 36.798-5.649 10.37 13.565 10.485 13.565 10.485z" fill="#FF9763"/><mask id="s" style="mask-type:luminance" maskUnits="userSpaceOnUse" x="382" y="141" width="61" height="74"><path fill-rule="evenodd" clip-rule="evenodd" d="M396.605 214.695s16.019-29.904 28.323-39.259c11.323-8.61 16.641-6.535 17.726-10.754.828-3.222-12.101 1.524-13.709-2.092-1.608-3.616 4.983-14.963 10.377-17.125 4.55-1.824.798-4.377-4.471-3.317-7.026 1.413-17.799 17.127-20.692 25.264-2.893 8.136-23.712 23.205-31.119 36.798-5.649 10.37 13.565 10.485 13.565 10.485z" fill="#fff"/></mask><g mask="url(#s)"><path d="M386.305 191.339c7.588 13.409 14.806 8.782 18.322 19.146s-19.601 1.697-19.601 1.697l-4.643-23.535" fill="#E84B23"/></g><path d="M264.658 382.633c.097 2.231 11.146 34.166 14.184 83.734L265.59 606.036s38.324 5.725 43.033 1.066c0 0 22.711-292.72 5.788-304.008-11.601-7.74-34.559 16.321-34.559 16.321l-15.194 63.218z" fill="#274B69"/><path d="M306.622 309.292s-35.457-50.687-52.169-30.308c-14.36 17.51-18.573 162.436-18.573 162.436-9.823 43.447-63.715 142.984-63.715 142.984-2.595-.617 20.877 26.909 33.1 19.51 0 0 44.369-61.109 73.577-137.547 0 0 10.694-75.618 20.821-118.694" fill="#274B69"/><path d="M388.648 194.287c-.704 2.422 10.437 12.034 11.623 14.602 0 0-14.081 24.346-28.677 31.408-14.595 7.062-67.611-3.784-67.611-3.784l-17.196-44.193s77.137 20.82 83.729 18.613c5.556-1.861 12.252-9.634 14.217-12.029.104-.127 3.96-4.771 3.915-4.617z" fill="#FFC562"/><mask id="t" style="mask-type:luminance" maskUnits="userSpaceOnUse" x="286" y="192" width="115" height="51"><path fill-rule="evenodd" clip-rule="evenodd" d="M388.648 194.287c-.704 2.422 10.437 12.034 11.623 14.602 0 0-14.081 24.346-28.677 31.408-14.595 7.062-67.611-3.784-67.611-3.784l-17.196-44.193s77.137 20.82 83.729 18.613c5.556-1.861 12.252-9.634 14.217-12.029.104-.127 3.96-4.771 3.915-4.617z" fill="#fff"/></mask><g mask="url(#t)"><path d="M382.001 235.839c-56.507 16.903-54.11-9.71-72.313-23.657-13.148-10.073-8.513 35.131-8.513 35.131l69.338 5.182" fill="#D89D35"/></g><path d="m286.787 192.32-22.169-.114a32.017 32.017 0 0 0-6.172 1.351c-7.577 1.03-57.193 21.475-70.966 82.115-7.113 31.323 23.917 13.536 23.917 13.536s9.209-23.604 26.424-37.469a146.84 146.84 0 0 0 5.276 14.958 24.947 24.947 0 0 1-4.462 27.233 7.562 7.562 0 0 0 3.613 12.26c17.978 5.904 51.213 14.25 74.452 4.907a7.53 7.53 0 0 0 3.635-11.267c-6.032-8.955-14.82-24.913-9.047-35.045 6.179-10.846 13.719-33.949-.275-53.548" fill="#FFC562"/><mask id="u" style="mask-type:luminance" maskUnits="userSpaceOnUse" x="186" y="192" width="136" height="124"><path fill-rule="evenodd" clip-rule="evenodd" d="m286.787 192.32-22.169-.114a32.017 32.017 0 0 0-6.172 1.351c-7.577 1.03-57.193 21.475-70.966 82.115-7.113 31.323 23.917 13.536 23.917 13.536s9.209-23.604 26.424-37.469a146.84 146.84 0 0 0 5.276 14.958 24.947 24.947 0 0 1-4.462 27.233 7.562 7.562 0 0 0 3.613 12.26c17.978 5.904 51.213 14.25 74.452 4.907a7.53 7.53 0 0 0 3.635-11.267c-6.032-8.955-14.82-24.913-9.047-35.045 6.179-10.846 13.719-33.949-.275-53.548" fill="#fff"/></mask><g mask="url(#u)"><path d="M249.785 242.686c-15.158 9.036 23.837 17.842 6.343 34.542-17.494 16.701 8.975 34.619 20.183 36.295 11.207 1.676-34.834 1.769-34.834 1.769l-10.93-23.486 6.024-39.027 13.214-10.093z" fill="#D89D35"/><path d="m291.97 233.104-17.293 36.878 40.583-3.464-23.29-33.414z" fill="#F0F3FC"/><circle cx="277.7" cy="243.721" r="15.063" fill="#935738"/><path fill="#FE7578" d="M298.767 230.111h21.911v21.911h-21.911z"/></g><path d="M290.145 170.495v24.767s13.536 16.966 3.678 16.92c-9.7-.044-27.742-11.711-27.006-16.37l-.022-37.145 23.35 11.828z" fill="#FF9763"/><mask id="v" style="mask-type:luminance" maskUnits="userSpaceOnUse" x="266" y="158" width="32" height="55"><path fill-rule="evenodd" clip-rule="evenodd" d="M290.145 170.495v24.767s13.536 16.966 3.678 16.92c-9.7-.044-27.742-11.711-27.006-16.37l-.022-37.145 23.35 11.828z" fill="#fff"/></mask><g mask="url(#v)"><path d="M303.553 192.443c-23.963-.238-16.999-17.083-22.454-17.194-5.456-.112 11.005-6.007 11.005-6.007l12.458 14.259-1.009 8.942z" fill="#E84B23"/></g><path d="M280.715 176.192a21.388 21.388 0 0 0 5.324 1.167c8.684 0 11.813-11.464 11.813-24.035a31.791 31.791 0 0 0-1.145-8.501c-4.005-5.588-18.283-7.786-21.719-11.777-.339.251-.667.525-.992.809-4.119 3.614-7.004 9.878-7.509 17.168a6.9 6.9 0 1 0 .327 13.731 8.607 8.607 0 0 0 1.663-.168" fill="#FF9763"/><mask id="w" style="mask-type:luminance" maskUnits="userSpaceOnUse" x="259" y="133" width="39" height="45"><path fill-rule="evenodd" clip-rule="evenodd" d="M280.715 176.192a21.388 21.388 0 0 0 5.324 1.167c8.684 0 11.813-11.464 11.813-24.035a31.791 31.791 0 0 0-1.145-8.501c-4.005-5.588-18.283-7.786-21.719-11.777-.339.251-.667.525-.992.809-4.119 3.614-7.004 9.878-7.509 17.168a6.9 6.9 0 1 0 .327 13.731 8.607 8.607 0 0 0 1.663-.168" fill="#fff"/></mask><g mask="url(#w)"><ellipse opacity=".27" cx="299.79" cy="164.149" rx="5.16" ry="6.961" transform="rotate(-66.776 299.79 164.149)" fill="#E84B23"/><ellipse opacity=".27" cx="276.61" cy="161.035" rx="3.77" ry="5.086" transform="rotate(-66.776 276.61 161.035)" fill="#E84B23"/><rect x="295.84" y="157.898" width="3.652" height="6.735" rx="1.826" transform="rotate(179.873 295.84 157.898)" fill="#190000"/><rect x="282.288" y="156.881" width="3.652" height="6.735" rx="1.826" transform="rotate(179.874 282.288 156.881)" fill="#190000"/><path d="M294.446 146.862c3.728 1.079 2.707 3.112.332 2.59-2.375-.523-2.768-3.295-.332-2.59zM280.531 145.723c-3.724 1.096-2.976 2.969-.603 2.436 2.372-.532 3.036-3.151.603-2.436z" fill="#190000"/><path d="M285.99 157.658c-.136 1.226.968.857 2.264 1.002 1.296.145 2.292.748 2.429-.479a2.363 2.363 0 0 0-4.693-.523z" fill="#E84B23"/><path d="M292.69 164.981c-2.449 8.713-10.472 4.259-10.127-1.261a.682.682 0 0 1 .497-.603 13.911 13.911 0 0 1 9.232 1.042.696.696 0 0 1 .398.822z" fill="#C1525F"/><mask id="x" style="mask-type:luminance" maskUnits="userSpaceOnUse" x="282" y="162" width="11" height="8"><path fill-rule="evenodd" clip-rule="evenodd" d="M292.69 164.981c-2.449 8.713-10.472 4.259-10.127-1.261a.682.682 0 0 1 .497-.603 13.911 13.911 0 0 1 9.232 1.042.696.696 0 0 1 .398.822z" fill="#fff"/></mask><g mask="url(#x)"><ellipse cx="285.912" cy="169.299" rx="4.05" ry="4.537" transform="rotate(-65.7 285.912 169.299)" fill="#993443"/><path d="M291.264 163.413a3.676 3.676 0 0 1-.382 1.501c-1.041.785-5.555-.121-6.122-.7a8.787 8.787 0 0 1 .031-2.05l5.815.854" fill="#F0F3FC"/></g></g><path d="M246.719 334.388s8.89 1.385 18.33-11.424c1.618-2.195-9.72-7.853-16.763-11.394-6.313-3.175-33.372-26.178-38.916-30.914a3.812 3.812 0 0 0-2.483-.916 16.097 16.097 0 0 0-15.276 9.488 1.82 1.82 0 0 0 .837 2.356c7.321 3.902 37.625 22.7 46.791 28.028 2.113 2.203 1.376 13.575 7.48 14.776z" fill="#FF9763"/><mask id="y" style="mask-type:luminance" maskUnits="userSpaceOnUse" x="191" y="279" width="75" height="56"><path fill-rule="evenodd" clip-rule="evenodd" d="M246.719 334.388s8.89 1.385 18.33-11.424c1.618-2.195-9.72-7.853-16.763-11.394-6.313-3.175-33.372-26.178-38.916-30.914a3.812 3.812 0 0 0-2.483-.916 16.097 16.097 0 0 0-15.276 9.488 1.82 1.82 0 0 0 .837 2.356c7.321 3.902 37.625 22.7 46.791 28.028 2.113 2.203 1.376 13.575 7.48 14.776z" fill="#fff"/></mask><g mask="url(#y)"><path d="M211.788 278.867c-18.877 4.442-16.378 15.731-16.378 15.731l-10.549-4.719 4.534-9.069 17.858-5.274" fill="#E84B23"/></g><path d="M271.045 120.349c-30.747 1.444-49.98 53.817-4.937 55.516 0 0 4.81-6.995 2.369-11.279a8.75 8.75 0 0 1-1.663.168 6.902 6.902 0 1 1-.327-13.732c11.63-1.801 8.501-17.976 8.501-17.976 3.437 3.991 17.83 15.116 24.676 10.613a6.516 6.516 0 0 0 1.135-.926c6.641-6.894-8.42-23.387-29.754-22.384z" fill="#3A3530"/><path d="M253.059 240.309c-8.308 2.769-16.488 12.469-16.488 12.469z" fill="#FFC562"/><path d="M266.03 320.324c-3.935 13.7-20.841 15.157-20.841 15.157" stroke="#11314B" stroke-width="2.329" stroke-linecap="round" stroke-linejoin="round"/><path d="m266.548 155.187-.044-.013c-.056-.011-.13-.018-.175-.024-.052-.007-.12-.02-.179-.023a.323.323 0 0 0-.044 0l-.012.001a8.554 8.554 0 0 0-.316.043l-.025.004-.042.012a2.92 2.92 0 0 0-.321.137l-.039.022-.019.013c-.084.061-.173.13-.253.196a.53.53 0 0 0-.068.066 6.744 6.744 0 0 0-.194.252l-.014.019-.025.042a1.88 1.88 0 0 0-.078.178c-.023.056-.056.121-.075.183l-.011.043a2.859 2.859 0 0 0-.047.357.277.277 0 0 0 .001.05l.001.013c.012.096.027.224.043.319l.005.024a2.071 2.071 0 0 0 .161.375c.235.415.704.64 1.175.562a.878.878 0 0 0 .438-.139l.238-.185c.145-.145.249-.324.303-.521l.042-.313c0-.209-.055-.415-.161-.595a.315.315 0 0 1-.028-.051l.119.282a.309.309 0 0 1-.02-.072l.042.313a.422.422 0 0 1 0-.087l-.042.313a.416.416 0 0 1 .029-.103l-.119.281a.49.49 0 0 1 .06-.101l-.185.239a.466.466 0 0 1 .083-.083l-.238.185a.426.426 0 0 1 .087-.052l-.281.119a.349.349 0 0 1 .084-.023l-.314.042a.275.275 0 0 1 .081 0l-.313-.042a.332.332 0 0 1 .062.016.887.887 0 0 0 .471.021.875.875 0 0 0 .438-.139c.257-.165.448-.414.542-.705l.042-.313c0-.209-.055-.415-.161-.595l-.185-.238a1.17 1.17 0 0 0-.521-.303l.002-.002z" fill="#190000"/><path d="M281.126 288.478a27.758 27.758 0 0 0 17.732 1.553c1.473-.361.849-2.635-.627-2.273a25.1 25.1 0 0 1-15.915-1.315 1.218 1.218 0 0 0-1.613.423 1.185 1.185 0 0 0 .423 1.612zM368.565 212.753a7.397 7.397 0 0 0 .573 5.019c.331.559 1.05.748 1.613.423a1.21 1.21 0 0 0 .423-1.613c-.037-.075-.071-.151-.107-.227-.05-.104.106.268.009.017a6.257 6.257 0 0 1-.35-1.347l.042.314a6.304 6.304 0 0 1-.007-1.641l-.042.314c.03-.213.07-.424.12-.633a1.18 1.18 0 0 0-2.273-.626h-.001z" fill="#D89D35"/><path d="M259.558 134.207c.004.267-.015.528-.036.794-.012.162.051-.297.003-.024l-.03.165a6.32 6.32 0 0 1-.091.408 8.332 8.332 0 0 1-.249.755c-.055.151.122-.262.004-.012l-.071.151a6.535 6.535 0 0 1-.603 1.004c-.159.225.11-.128.006-.006-.045.053-.088.109-.133.161a6.135 6.135 0 0 1-.554.569c-.061.055-.266.17-.286.244.021-.074.177-.13.006-.007a6.206 6.206 0 0 1-.528.34 1.178 1.178 0 0 0 1.19 2.035 7.585 7.585 0 0 0 3.73-6.577 1.179 1.179 0 1 0-2.357 0h-.001z" fill="#190000"/><path d="m427.886 162.078-1.312.655a1.136 1.136 0 0 0-.563 1.175.876.876 0 0 0 .14.438c.156.265.408.459.704.541l.314.043c.209 0 .414-.056.595-.161l1.311-.655c.416-.235.641-.704.563-1.175a.876.876 0 0 0-.14-.438 1.189 1.189 0 0 0-.704-.542l-.314-.042a1.17 1.17 0 0 0-.594.161z" fill="#E84B23"/><path d="M250.433 226.771a10.698 10.698 0 0 1-.228 12.448 1.218 1.218 0 0 0 0 1.667 1.187 1.187 0 0 0 1.667 0 13.064 13.064 0 0 0 .597-15.305c-.861-1.236-2.905-.059-2.036 1.19z" fill="#D89D35"/></g><rect x="374.707" y="149.792" width="30.36" height="54.924" rx="6.026" fill="#2976DF"/><mask id="z" style="mask-type:luminance" maskUnits="userSpaceOnUse" x="374" y="149" width="32" height="56"><rect x="374.707" y="149.792" width="30.36" height="54.924" rx="6.026" fill="#fff"/></mask><g mask="url(#z)"><path d="M385.831 184.691c8.079 14.961 5.39 25.008 5.39 25.008h14.1l2.139-26.083h-26.997" fill="#1665C4"/></g><rect x="378.612" y="155.335" width="8.171" height="10.078" rx="1.888" fill="#589BF7"/><path d="M392.83 183.616s9.843 15.117 2.125 31.934" stroke="#3A3530" stroke-width="1.342" stroke-linecap="round" stroke-linejoin="round"/><path fill="#589BF7" d="M386.783 220.464h6.047v98.228h-6.047z"/><mask id="A" style="mask-type:luminance" maskUnits="userSpaceOnUse" x="386" y="220" width="7" height="99"><path fill="#fff" d="M386.783 220.464h6.047v98.228h-6.047z"/></mask><g mask="url(#A)"><path d="M385.353 255.561c1.503-13.084 9.009-13.79 9.009-13.79l.593-7.392-12.699 1.949" fill="#2976DF"/></g><rect x="384.657" y="232.179" width="10.298" height="10.298" rx="2.199" fill="#F0F3FC"/><path fill-rule="evenodd" clip-rule="evenodd" d="M347.644 159.621a45.635 45.635 0 0 1 87.798 17.464 45.637 45.637 0 1 1-87.798-17.464zm8.803 31.282a36.106 36.106 0 0 0 33.359 22.29c19.942 0 36.108-16.166 36.108-36.108a36.107 36.107 0 1 0-69.467 13.818z" fill="#F0F3FC"/><mask id="B" style="mask-type:luminance" maskUnits="userSpaceOnUse" x="344" y="131" width="92" height="92"><path fill-rule="evenodd" clip-rule="evenodd" d="M389.806 131.449a45.635 45.635 0 0 0-42.162 28.172 45.637 45.637 0 1 0 42.162-28.172zm0 81.744a36.107 36.107 0 1 1 13.818-69.467 36.106 36.106 0 0 1 22.29 33.359c0 19.942-16.166 36.108-36.108 36.108z" fill="#fff"/></mask><g mask="url(#B)"><path d="M420.234 188.529c19.56 5.254 34.556-7.433 34.556-7.433l-19.348 33.192-22.705-14.705" fill="#D6DCF2"/></g><rect x="372.44" y="175.617" width="35.021" height="10.96" rx="1.234" fill="#9A7ED9"/><circle cx="392.83" cy="180.215" r="8.314" fill="#6F4EB9"/><path d="m395.519 164.423-1.624 2.612a.666.666 0 0 0 .236.902.673.673 0 0 0 .902-.236l1.624-2.612a.666.666 0 0 0-.236-.902.673.673 0 0 0-.902.236z" fill="#1665C4"/><path d="m391.732 278.404-.652.652a.679.679 0 0 0 0 .932.668.668 0 0 0 .467.193l.175-.024c.11-.03.21-.088.291-.169l.652-.652a.679.679 0 0 0 0-.932.66.66 0 0 0-.466-.193l-.176.023a.666.666 0 0 0-.291.17z" fill="#2976DF"/><path fill="#F0F3FC" d="M76.96 163.163h5.61v150.53h-5.61z"/><mask id="C" style="mask-type:luminance" maskUnits="userSpaceOnUse" x="76" y="163" width="7" height="151"><path fill="#fff" d="M76.96 163.163h5.61v150.53h-5.61z"/></mask><g mask="url(#C)"><path d="M84.606 202.911c-29.192 2.206-1.258 30.159 0 31.407 1.258 1.249 14.368-22.259 14.368-22.259l-2.96-10.385" fill="#D6DCF2"/></g><path fill="#F0F3FC" d="m83.605 132.94 5.422 1.246-7.055 30.699-5.422-1.246z"/><circle cx="79.368" cy="162.164" r="6.513" fill="#2976DF"/><path d="m73.357 314.705-.564-.233a356.007 356.007 0 0 0 13.072-39.318c7.232-27.43 7.646-46.599 1.197-55.434-5.079-6.957-15.312-12.657-25.208-18.17-13.423-7.478-26.103-14.541-26.817-24.493-.47-6.555 4.41-13.637 14.919-21.649l.37.485c-10.333 7.878-15.134 14.787-14.68 21.121.69 9.621 13.23 16.607 26.505 24.002 9.954 5.545 20.246 11.279 25.404 18.344 6.655 9.118 6.285 27.944-1.101 55.956a356.812 356.812 0 0 1-13.097 39.389z" fill="#3A3530"/><path d="m50.345 157.397 10.699-5.042a1.482 1.482 0 0 0 .664-2.051l-.727-1.317a1.477 1.477 0 0 0-2.089-.533l-9.972 6.36a1.478 1.478 0 0 0 1.424 2.583z" fill="#9A7ED9"/><ellipse cx="65.646" cy="147.869" rx="7.039" ry="8.797" transform="rotate(-28.88 65.646 147.869)" fill="#589BF7"/><rect x="119.491" y="129.836" width="55.175" height="20.435" rx="3.92" transform="rotate(151.12 119.491 129.836)" fill="#9A7ED9"/><rect x="111.239" y="135.725" width="48.268" height="22.777" rx="3.912" transform="rotate(151.12 111.239 135.725)" fill="#589BF7"/><mask id="D" style="mask-type:luminance" maskUnits="userSpaceOnUse" x="59" y="117" width="51" height="41"><rect x="111.239" y="135.725" width="48.268" height="22.777" rx="3.912" transform="rotate(151.12 111.239 135.725)" fill="#fff"/></mask><g mask="url(#D)"><path d="M83.336 129.95c-4.691-1.787 8.827 16.238-1.687 25.251-10.514 9.012 13.519 9.012 15.02 7.509 1.502-1.502 3.005-28.539 3.005-28.539" fill="#2976DF"/></g><path d="m113.391 135.933-17.21 9.493a4.434 4.434 0 0 1-6.026-1.741l-7.897-14.317a4.434 4.434 0 0 1 1.741-6.025l17.211-9.493c5.536-3.054 12.499-1.042 15.553 4.494l1.123 2.037c3.054 5.536 1.041 12.499-4.495 15.553v-.001z" fill="#935738"/><mask id="E" style="mask-type:luminance" maskUnits="userSpaceOnUse" x="81" y="112" width="39" height="34"><path fill-rule="evenodd" clip-rule="evenodd" d="m113.391 135.933-17.21 9.493a4.434 4.434 0 0 1-6.026-1.741l-7.897-14.317a4.434 4.434 0 0 1 1.741-6.025l17.211-9.493c5.536-3.054 12.499-1.042 15.553 4.494l1.123 2.037c3.054 5.536 1.041 12.499-4.495 15.553v-.001z" fill="#fff"/></mask><g mask="url(#E)"><path d="M107.318 112.447c17.665 7.241 4.131 30.3 4.131 30.3l13.851-11.429-9.304-22.838-16.282 3.701" fill="#6D3417"/></g><rect x="96.759" y="147.201" width="4.087" height="28.885" rx="2.044" transform="rotate(151.12 96.76 147.201)" fill="#9A7ED9"/><path d="M98.968 125.327v2.537a.57.57 0 1 0 1.14 0v-2.537a.57.57 0 1 0-1.14 0z" fill="#6D3417"/><path d="m70.245 144.633-1.106 4.235a.57.57 0 0 0 1.1.302l1.105-4.235a.57.57 0 1 0-1.1-.302z" fill="#2976DF"/><path d="m80.622 250.392.275.848a.601.601 0 0 0 .262.341.421.421 0 0 0 .212.067.428.428 0 0 0 .227-.01.571.571 0 0 0 .398-.701l-.274-.848a.603.603 0 0 0-.262-.341.42.42 0 0 0-.212-.067.438.438 0 0 0-.228.01.571.571 0 0 0-.398.701z" fill="#D6DCF2"/><rect x="35.006" y="305.909" width="377.773" height="25.986" rx="12.993" fill="#9A7ED9"/><mask id="F" style="mask-type:luminance" maskUnits="userSpaceOnUse" x="35" y="305" width="378" height="27"><rect x="35.006" y="305.909" width="377.773" height="25.986" rx="12.993" fill="#fff"/></mask><g mask="url(#F)"><path d="M41.42 352.296c-30.316-45.041 382.289-27.61 394.022-32.827 11.734-5.218 41.501 65.792-9.528 71.096-51.028 5.304-293.549 7.698-293.549 7.698" fill="#6F4EB9"/></g></svg>