<svg width="199" height="174" fill="none" xmlns="http://www.w3.org/2000/svg"><path d="m167.793 88.47 3.267 3.144c.358.305.537.772.472 1.238l-.758 4.596c-.069.4.054.808.333 1.102.402.434 1.046.54 1.566.26l2.583-1.38 1.527-.815c.714-.382 1.362.07 1.993.396l3.357 1.737a1.302 1.302 0 0 0 1.881-1.386l-.103-.577-.595-3.34c-.116-.649-.28-1.304.248-1.825l.8-.79 2.515-2.483a1.3 1.3 0 0 0-.737-2.218l-2.413-.334-2.201-.306a1.302 1.302 0 0 1-.986-.706l-1.968-3.923-.121-.241a1.3 1.3 0 0 0-2.336.015l-1.544 3.18-.491 1.011c-.324.667-.997.722-1.649.821l-3.354.51-.579.088a1.304 1.304 0 0 0-.707 2.227z" fill="#FFC562"/><mask id="a" style="mask-type:luminance" maskUnits="userSpaceOnUse" x="167" y="79" width="21" height="20"><path fill-rule="evenodd" clip-rule="evenodd" d="m167.793 88.47 3.267 3.144c.358.305.537.772.472 1.238l-.758 4.596c-.069.4.054.808.333 1.102.402.434 1.046.54 1.566.26l2.583-1.38 1.527-.815c.714-.382 1.362.07 1.993.396l3.357 1.737a1.302 1.302 0 0 0 1.881-1.386l-.103-.577-.595-3.34c-.116-.649-.28-1.304.248-1.825l.8-.79 2.515-2.483a1.3 1.3 0 0 0-.737-2.218l-2.413-.334-2.201-.306a1.302 1.302 0 0 1-.986-.706l-1.968-3.923-.121-.241a1.3 1.3 0 0 0-2.336.015l-1.544 3.18-.491 1.011c-.324.667-.997.722-1.649.821l-3.354.51-.579.088a1.304 1.304 0 0 0-.707 2.227z" fill="#fff"/></mask><g mask="url(#a)" fill="#D89D35"><path d="m170.172 102.312 6.611-5.697s1.04-3.598 5.351 2.133c4.311 5.73-1.25 3.623-1.25 3.623M167.392 85.981c7.814-.41 9.637.193 8.725-5.347-.911-5.54-8.725-.096-8.725-.096"/></g><path d="m180.139 90.565-.829.928a.128.128 0 0 0 0 .176.127.127 0 0 0 .177 0l.829-.928a.128.128 0 0 0 0-.176.127.127 0 0 0-.177 0z" fill="#D89D35"/><path d="m165.521 63.894-2.608-1.503-.233-.134a31.1 31.1 0 0 1-10.195-9.453l-.023-.034-1.831-2.685a70.196 70.196 0 0 1 2.552-2.2c.061-.049.122-.1.183-.148a3.74 3.74 0 0 1 4.884.175l3.667 3.4 5.196 4.818a3.738 3.738 0 0 1 .543 4.857c-.118.173-.241.342-.362.513a66.944 66.944 0 0 1-1.773 2.394z" fill="#FF999A"/><path d="M152.427 76.159a3.737 3.737 0 0 1-2.983-.972l-1.398-1.297-3.475-3.22-3.082-2.858-.89-.825a3.74 3.74 0 0 1-.537-4.866c.188-.273.384-.54.577-.81a68.85 68.85 0 0 1 4.57-5.744 69.707 69.707 0 0 1 5.422-5.481l1.361 1.996.493.723a31.03 31.03 0 0 0 10.254 9.486l2.782 1.603a69.498 69.498 0 0 1-5.045 5.83 69.663 69.663 0 0 1-5.663 5.238c-.16.132-.318.266-.479.395a3.724 3.724 0 0 1-1.907.802z" fill="#FE7578"/><mask id="b" style="mask-type:luminance" maskUnits="userSpaceOnUse" x="139" y="50" width="27" height="27"><path fill-rule="evenodd" clip-rule="evenodd" d="M152.427 76.159a3.737 3.737 0 0 1-2.983-.972l-1.398-1.297-3.475-3.22-3.082-2.858-.89-.825a3.74 3.74 0 0 1-.537-4.866c.188-.273.384-.54.577-.81a68.85 68.85 0 0 1 4.57-5.744 69.707 69.707 0 0 1 5.422-5.481l1.361 1.996.493.723a31.03 31.03 0 0 0 10.254 9.486l2.782 1.603a69.498 69.498 0 0 1-5.045 5.83 69.663 69.663 0 0 1-5.663 5.238c-.16.132-.318.266-.479.395a3.724 3.724 0 0 1-1.907.802z" fill="#fff"/></mask><g mask="url(#b)" fill="#E55A61"><path d="M138.447 63.81c15.428 13.365 17.689 9.108 21.336 6.677 3.648-2.43-2.503 8.421-2.503 8.421s-6.309 1.12-6.688 1.036c-.379-.084-13.666-11.995-13.666-11.995l-1.108-1.12M157.43 63.193a4.553 4.553 0 1 1-.334-9.1 4.553 4.553 0 0 1 .334 9.1z"/></g><path d="M157.63 62.227a4.571 4.571 0 1 1-.338-9.135 4.571 4.571 0 0 1 .338 9.135z" fill="#FFC562"/><path d="M157.58 60.891a3.22 3.22 0 1 1-.236-6.434 3.22 3.22 0 0 1 .236 6.434z" fill="#FF9763"/><path d="M163.747 56.73c.305.282.391.73.212 1.105a.143.143 0 0 0 .05.19.141.141 0 0 0 .191-.05 1.234 1.234 0 0 0-.256-1.443c-.133-.121-.331.076-.198.197h.001z" fill="#FE7578"/><path d="M145.295 63.875c.02.937.468 1.814 1.216 2.379.144.108.283-.135.141-.242a2.763 2.763 0 0 1-1.077-2.137.14.14 0 0 0-.28 0z" fill="#E55A61"/><circle cx="157.776" cy="19.594" r="18.131" fill="#589BF7"/><path d="M158.692 6.705h.52c.471 0 .853.382.853.853v7.512h-4.578V9.91a3.205 3.205 0 0 1 3.205-3.205z" fill="#E84B23"/><mask id="c" style="mask-type:luminance" maskUnits="userSpaceOnUse" x="155" y="6" width="6" height="10"><path fill-rule="evenodd" clip-rule="evenodd" d="M158.692 6.705h.52c.471 0 .853.382.853.853v7.512h-4.578V9.91a3.205 3.205 0 0 1 3.205-3.205z" fill="#fff"/></mask><g mask="url(#c)"><ellipse cx="156.092" cy="6.044" rx="3.973" ry="2.628" fill="#FF9763"/></g><rect x="154.742" y="13.943" width="6.068" height="9.448" rx="1.756" fill="#97CC64"/><mask id="d" style="mask-type:luminance" maskUnits="userSpaceOnUse" x="154" y="13" width="7" height="11"><rect x="154.742" y="13.943" width="6.068" height="9.448" rx="1.756" fill="#fff"/></mask><g mask="url(#d)"><path d="M154.742 19.159c-.414.721 8.116 1.576 7.54 1.892-.576.316-7.54 1.632-7.54 1.632l-1.487-1.632" fill="#75AA3C"/></g><rect x="153.845" y="20.66" width="7.861" height="11.824" rx="1.756" fill="#EFF3FC"/><path d="M153.845 22.938h7.861v8.748c0 .44-.357.798-.798.798h-6.265a.797.797 0 0 1-.798-.798v-8.748z" fill="#3A3530"/><mask id="e" style="mask-type:luminance" maskUnits="userSpaceOnUse" x="153" y="22" width="9" height="11"><path fill-rule="evenodd" clip-rule="evenodd" d="M153.845 22.938h7.861v8.748c0 .44-.357.798-.798.798h-6.265a.797.797 0 0 1-.798-.798v-8.748z" fill="#fff"/></mask><g mask="url(#e)"><path d="M153.445 28.857c2.588 4.834 9.342 2.84 9.089 3.627-.252.786-8.143.925-8.143.925l-2.272-1.924" fill="#190000"/></g><path d="m158.644 16.157-.505.397a.144.144 0 0 0-.043.103c0 .039.016.076.043.103a.145.145 0 0 0 .103.043.169.169 0 0 0 .103-.043l.505-.397a.144.144 0 0 0 .043-.103.148.148 0 0 0-.043-.103.145.145 0 0 0-.103-.043.169.169 0 0 0-.103.043z" fill="#75AA3C"/><path d="m157.855 9.341-1.151.628c-.166.09-.018.343.147.252l1.151-.628c.165-.09.018-.342-.147-.252z" fill="#BF290C"/><path d="m156.283 28.874.379.198a.147.147 0 0 0 .219-.107.147.147 0 0 0-.072-.145l-.379-.198a.147.147 0 0 0-.219.107.147.147 0 0 0 .072.145z" fill="#190000"/><circle cx="73.859" cy="26.622" r="26.337" fill="#9A7ED9"/><rect x="66.828" y="13.825" width="14.063" height="31.36" rx="3.962" fill="#589BF7"/><path d="M70.403 8.059h6.913a1.632 1.632 0 0 1 1.632 1.632v4.133H68.771V9.692a1.632 1.632 0 0 1 1.632-1.632z" fill="#FFC562"/><mask id="f" style="mask-type:luminance" maskUnits="userSpaceOnUse" x="68" y="8" width="11" height="6"><path fill-rule="evenodd" clip-rule="evenodd" d="M70.403 8.059h6.913a1.632 1.632 0 0 1 1.632 1.632v4.133H68.771V9.692a1.632 1.632 0 0 1 1.632-1.632z" fill="#fff"/></mask><g mask="url(#f)"><path d="M70.445 13.824c-.602-.806 8.686-.016 8.723-3.363.037-3.346 2.181 4.325 2.181 4.325l-6.204 1.353" fill="#D89D35"/></g><rect x="69.106" y="20.868" width="9.507" height="2.407" rx="1.203" fill="#2976DF"/><rect x="71.002" y="24.955" width="5.715" height=".677" rx=".338" fill="#2976DF"/><path fill="#2976DF" d="M68.561 39.168h10.597v.526H68.561z"/><path d="m72.058 11.025-.3.2a.139.139 0 0 0-.06.079.13.13 0 0 0 .192.148l.3-.2a.139.139 0 0 0 .06-.079.13.13 0 0 0-.192-.148z" fill="#D89D35"/><path d="m75.527 34.595.902-1.003a.134.134 0 0 0 0-.185.132.132 0 0 0-.185 0l-.903 1.003a.134.134 0 0 0 0 .185c.052.05.134.05.186 0z" fill="#2976DF"/><path d="M70.52 42.559a.13.13 0 0 0 0-.262.13.13 0 0 0 0 .262z" fill="#7B5CB7"/><circle cx="20.892" cy="76.293" r="20.189" fill="#97CC64"/><path d="M18.815 84.203h4.155v4.873c0 .29-.236.526-.526.526h-3.103a.526.526 0 0 1-.526-.526v-4.873z" fill="#935738"/><mask id="g" style="mask-type:luminance" maskUnits="userSpaceOnUse" x="18" y="84" width="5" height="6"><path fill-rule="evenodd" clip-rule="evenodd" d="M18.815 84.203h4.155v4.873c0 .29-.236.526-.526.526h-3.103a.526.526 0 0 1-.526-.526v-4.873z" fill="#fff"/></mask><g mask="url(#g)"><path d="M18.502 86.902c.767-1.242-.917 2.506 3.942 2.7 4.858.194-4.536 1.004-4.536 1.004l-.972-1.853" fill="#6D3417"/></g><path d="M25.373 64.209h-8.96l2.4 20.01h4.158l2.402-20.01z" fill="#F0F3FC"/><mask id="h" style="mask-type:luminance" maskUnits="userSpaceOnUse" x="16" y="64" width="10" height="21"><path fill-rule="evenodd" clip-rule="evenodd" d="M25.373 64.209h-8.96l2.4 20.01h4.158l2.402-20.01z" fill="#fff"/></mask><g mask="url(#h)"><path d="M16.921 72c.933-3.369.258 12.289 6.049 13.854 5.79 1.566-9.165 1.362-9.165 1.362l-.054-5.69" fill="#D6DCF2"/></g><path fill="#D6DCF2" d="M16.412 62.984h8.96v1.224h-8.96zM20.536 66.562a19.656 19.656 0 0 1-1.82 1.544c-.105.079-.002.258.105.178a20.109 20.109 0 0 0 1.861-1.576c.097-.092-.05-.239-.146-.146zM22.532 76.387l-.162.162a.104.104 0 0 0 .147.146l.162-.162c.019-.02.03-.046.03-.073a.104.104 0 0 0-.104-.104.108.108 0 0 0-.073.03z"/><path d="M20.42 87.411c.348-.082.683-.212.996-.387.116-.065.012-.244-.104-.179-.297.166-.617.29-.948.367-.13.03-.075.23.055.2z" fill="#6D3417"/><path d="M192.97 62.569a2.166 2.166 0 0 0-2.568-.202.292.292 0 0 0-.043.046l-2.672 3.319c-.01.013-.081-.032-.09-.044a9.266 9.266 0 0 0-2.853-2.685l-.004-.001a2.078 2.078 0 0 0-2.925.13 2.043 2.043 0 0 0 .297 2.71l-.001.001c2.623 2.614 1.913 5.248 1.719 5.813-.001.004-.005.006-.007.008a.545.545 0 0 0-.064.08l-1.643 2.041a.748.748 0 0 0 .175 1.043l7.113 5.727a.72.72 0 0 0 1.032-.07l7.573-9.406c.046-.051.09-.105.13-.161a1.899 1.899 0 0 0 .147-2.089c-.148-.299-4.872-5.792-4.872-5.792l.001-.001a2.346 2.346 0 0 0-.195-.23l-.021-.024-.002-.001a2.442 2.442 0 0 0-.227-.212" fill="#FFC562"/><mask id="i" style="mask-type:luminance" maskUnits="userSpaceOnUse" x="181" y="62" width="18" height="19"><path fill-rule="evenodd" clip-rule="evenodd" d="M192.97 62.569a2.166 2.166 0 0 0-2.568-.202.292.292 0 0 0-.043.046l-2.672 3.319c-.01.013-.081-.032-.09-.044a9.266 9.266 0 0 0-2.853-2.685l-.004-.001a2.078 2.078 0 0 0-2.925.13 2.043 2.043 0 0 0 .297 2.71l-.001.001c2.623 2.614 1.913 5.248 1.719 5.813-.001.004-.005.006-.007.008a.545.545 0 0 0-.064.08l-1.643 2.041a.748.748 0 0 0 .175 1.043l7.113 5.727a.72.72 0 0 0 1.032-.07l7.573-9.406c.046-.051.09-.105.13-.161a1.899 1.899 0 0 0 .147-2.089c-.148-.299-4.872-5.792-4.872-5.792l.001-.001a2.346 2.346 0 0 0-.195-.23l-.021-.024-.002-.001a2.442 2.442 0 0 0-.227-.212" fill="#fff"/></mask><g mask="url(#i)" fill="#D89D35"><path d="M186.223 74.607c-.079-2.286 5.778 4.35 10.549-1.002 4.77-5.352-5.721 11.567-5.721 11.567l-4.111-5.935M185.943 63.036l1.744 2.695c.34.434.505.979.463 1.528.051 1.168 2.252-4.892 2.252-4.892l-2.045.279"/></g><rect x="179.081" y="75.534" width="6.131" height="12.569" rx="1.453" transform="rotate(-51.16 179.081 75.534)" fill="#FE7578"/><mask id="j" style="mask-type:luminance" maskUnits="userSpaceOnUse" x="179" y="71" width="14" height="12"><rect x="179.081" y="75.534" width="6.131" height="12.569" rx="1.453" transform="rotate(-51.16 179.081 75.534)" fill="#fff"/></mask><g mask="url(#j)"><path d="M184.316 80.071c-4.546-2.957-4.937-5.052-2.91-7.424 2.026-2.371-4.975 4.193-4.975 4.193l1.107 1.782" fill="#E55A61"/></g><circle cx="183.459" cy="75.123" r="1.022" fill="#EFF3FC"/><path d="M188.023 68.063c.584-.848-.612-2.63-.612-2.63l.612 2.63z" fill="#FFC562"/><path d="M191.674 66.22c.37.58.602 1.237.678 1.92.015.133.226.135.211 0a4.732 4.732 0 0 0-.706-2.026c-.073-.114-.256-.008-.183.107z" fill="#D89D35"/><path d="M187.683 78.159a2.62 2.62 0 0 0 1.791.895c.136.01.135-.201 0-.21a2.41 2.41 0 0 1-1.642-.834c-.088-.104-.237.046-.149.149z" fill="#E55A61"/><path d="M185.975 111.462a1.703 1.703 0 0 0-1.904-.687.219.219 0 0 0-.041.026l-2.716 1.958c-.01.008-.054-.041-.059-.052a7.291 7.291 0 0 0-1.602-2.628l-.003-.002a1.633 1.633 0 0 0-2.243-.51 1.604 1.604 0 0 0-.339 2.115h-.001a4.398 4.398 0 0 1 .092 4.762l-.007.005a.37.37 0 0 0-.065.047l-1.67 1.204a.587.587 0 0 0-.084.826l4.196 5.82a.567.567 0 0 0 .796.162l7.696-5.549a1.38 1.38 0 0 0 .132-.095c.476-.361.691-.972.546-1.552-.05-.257-2.485-5.403-2.485-5.403h.001a2.075 2.075 0 0 0-.099-.214l-.011-.023-.002-.002a1.922 1.922 0 0 0-.128-.207" fill="#FF9763"/><mask id="k" style="mask-type:luminance" maskUnits="userSpaceOnUse" x="175" y="109" width="14" height="16"><path fill-rule="evenodd" clip-rule="evenodd" d="M185.975 111.462a1.703 1.703 0 0 0-1.904-.687.219.219 0 0 0-.041.026l-2.716 1.958c-.01.008-.054-.041-.059-.052a7.291 7.291 0 0 0-1.602-2.628l-.003-.002a1.633 1.633 0 0 0-2.243-.51 1.604 1.604 0 0 0-.339 2.115h-.001a4.398 4.398 0 0 1 .092 4.762l-.007.005a.37.37 0 0 0-.065.047l-1.67 1.204a.587.587 0 0 0-.084.826l4.196 5.82a.567.567 0 0 0 .796.162l7.696-5.549a1.38 1.38 0 0 0 .132-.095c.476-.361.691-.972.546-1.552-.05-.257-2.485-5.403-2.485-5.403h.001a2.075 2.075 0 0 0-.099-.214l-.011-.023-.002-.002a1.922 1.922 0 0 0-.128-.207" fill="#fff"/></mask><g mask="url(#k)"><path d="M178.52 119.4c.088-1.763 4.625 4.058 8.035 1.599 3.41-2.459-5.084 5.365-5.084 5.365l-2.658-4.201" fill="#E84B23"/></g><rect x="172.754" y="118.393" width="4.817" height="9.875" rx="1.142" transform="rotate(-35.792 172.754 118.393)" fill="#589BF7"/><mask id="l" style="mask-type:luminance" maskUnits="userSpaceOnUse" x="173" y="116" width="9" height="10"><rect x="172.754" y="118.393" width="4.817" height="9.875" rx="1.142" transform="rotate(-35.792 172.754 118.393)" fill="#fff"/></mask><g mask="url(#l)"><path d="M175.396 122.575c-2.986-4.599-.002-5.751.845-6.696.847-.946-4.524 1.076-4.524 1.076l-.167 1.112 1.157 2.423" fill="#2976DF"/></g><circle cx="176.156" cy="118.992" r=".803" fill="#EFF3FC"/><path d="M184.86 116.531a3.385 3.385 0 0 1-.342 2.195c-.051.097.096.183.148.086a3.575 3.575 0 0 0 .359-2.326c-.02-.108-.185-.063-.165.046v-.001z" fill="#E84B23"/><path d="m177.079 122.627.282.391c.025.04.076.054.117.031a.086.086 0 0 0 .031-.117l-.283-.392a.088.088 0 0 0-.117-.03.086.086 0 0 0-.03.117z" fill="#2976DF"/><path d="M66.22 128.516c-11.337 3.405-7.562 12.596-7.562 12.596s13.543 16.857 18.791 9.44c6.233-7.085 14.322-39.571 14.322-39.571s-.186-24.778-6.944-22.342c-10.968 3.953-16.022 41.665-16.022 41.665l-2.586-1.788z" fill="#9A7ED9"/><mask id="m" style="mask-type:luminance" maskUnits="userSpaceOnUse" x="58" y="88" width="34" height="65"><path fill-rule="evenodd" clip-rule="evenodd" d="M66.22 128.516c-11.337 3.405-7.562 12.596-7.562 12.596s13.543 16.857 18.791 9.44c6.233-7.085 14.322-39.571 14.322-39.571s-.186-24.778-6.944-22.342c-10.968 3.953-16.022 41.665-16.022 41.665l-2.586-1.788z" fill="#fff"/></mask><g mask="url(#m)" fill="#6F4EB9"><path d="M83.47 106.9c-10.658-2.941 4.651 37.331-8.557 45.972-13.209 8.64 18.976 3.357 18.976 3.357l.232-35.781M68.46 110.314a1.146 1.146 0 0 0-.87.114l-.23.177a1.125 1.125 0 0 0-.266.456l.005-.011c-.12.264-.267.515-.44.748a4.037 4.037 0 0 1-.593.594 1.26 1.26 0 0 0-.331.799c.002.299.12.585.33.799.213.211.5.33.8.33l.3-.04c.189-.052.36-.152.499-.29a5.052 5.052 0 0 0 1.585-2.286.852.852 0 0 0 .02-.45.841.841 0 0 0-.134-.42 1.155 1.155 0 0 0-.675-.52zM58.29 101.172a1.089 1.089 0 0 0-1.125-.54.847.847 0 0 0-.42.134l-.228.177c-.139.138-.24.31-.291.498l-.04.301c0 .2.053.397.154.57l.318.636c.224.399.674.614 1.125.539a.827.827 0 0 0 .42-.134l.229-.176c.138-.138.238-.31.29-.499l.04-.3c0-.201-.052-.397-.154-.57l-.317-.636zM70.027 119.946a1.089 1.089 0 0 0-1.125-.54.847.847 0 0 0-.42.134l-.229.177c-.138.138-.238.31-.29.498l-.04.301c-.001.2.052.397.153.57l.319.636c.224.399.674.614 1.125.54a.847.847 0 0 0 .42-.134l.228-.177c.139-.138.24-.31.291-.499l.04-.3c0-.2-.052-.397-.154-.57l-.318-.636z"/><path d="m73.912 145.475-.229-.177a1.131 1.131 0 0 0-.57-.154l-.3.04c-.19.052-.361.153-.5.291l-1.06.848a1.163 1.163 0 0 0 0 1.598l.23.176c.172.102.37.155.57.155l.3-.041c.189-.052.36-.152.499-.29l1.06-.848a1.162 1.162 0 0 0 0-1.598zM71.208 136.215c.219.201.502.318.799.33l.3-.04c.189-.052.36-.152.499-.29l.176-.229c.102-.173.155-.37.154-.571v-.53a1.16 1.16 0 0 0-1.13-1.129l-.3.04c-.188.052-.36.152-.498.29l-.177.229c-.101.173-.154.37-.154.571v.53c.013.297.13.58.33.799zM90.107 130.917l-.742-2.862a1.129 1.129 0 0 0-1.894-.493 1.13 1.13 0 0 0-.285 1.094l.742 2.863a1.13 1.13 0 0 0 2.179-.601v-.001zM80.29 109.162a8.3 8.3 0 0 1-.901-1.522 1.131 1.131 0 0 0-.675-.519 1.155 1.155 0 0 0-.87.114c-.254.149-.44.391-.52.675l-.04.3c0 .201.053.397.155.57a9.01 9.01 0 0 0 2.193 2.984c.215.206.5.324.799.331a1.13 1.13 0 0 0 .799-1.929 8.32 8.32 0 0 1-.94-1.004z"/></g><path d="M82.262 105.852c-.29 23.608 11.974 42.242 7.57 61.931 23.275 10.202 66.061 3.689 58.09-6.832-7.971-10.522-.831-68.683-2.107-72.48-1.275-3.799-27.848-19.653-60.988.168" fill="#9A7ED9"/><mask id="n" style="mask-type:luminance" maskUnits="userSpaceOnUse" x="82" y="78" width="67" height="95"><path fill-rule="evenodd" clip-rule="evenodd" d="M82.262 105.852c-.29 23.608 11.974 42.242 7.57 61.931 23.275 10.202 66.061 3.689 58.09-6.832-7.971-10.522-.831-68.683-2.107-72.48-1.275-3.799-27.848-19.653-60.988.168" fill="#fff"/></mask><g mask="url(#n)"><path d="M83.929 108.184a1.146 1.146 0 0 0-1.546.405 12.658 12.658 0 0 0-1.275 3.863c-.07.294-.03.603.113.87a1.129 1.129 0 0 0 1.546.405 1.09 1.09 0 0 0 .52-.675c.14-.913.388-1.806.738-2.661.098-.223.198-.445.309-.661a1.15 1.15 0 0 0-.405-1.546zM101.897 124.599a1.146 1.146 0 0 0-1.546.405 12.657 12.657 0 0 0-1.275 3.862c-.07.294-.03.604.114.87a1.129 1.129 0 0 0 1.546.406c.257-.146.444-.39.519-.676.141-.912.389-1.806.738-2.66.098-.223.198-.445.309-.662a1.15 1.15 0 0 0-.405-1.545zM105.28 140.9a1.146 1.146 0 0 0-1.546.405 12.67 12.67 0 0 0-1.275 3.862c-.07.295-.029.604.114.871a1.132 1.132 0 0 0 1.546.405c.257-.146.444-.389.519-.675.141-.913.389-1.806.738-2.661.098-.223.198-.445.309-.662a1.15 1.15 0 0 0-.405-1.545zM98.298 98.153a8.014 8.014 0 0 0-.793-.672.84.84 0 0 0-.42-.134 1.16 1.16 0 0 0-1.125.54l-.114.27a1.136 1.136 0 0 0 0 .6l.114.27c.098.168.237.307.405.405l-.214-.165c.386.3.733.647 1.032 1.034l-.165-.214c.225.399.675.614 1.126.54a.847.847 0 0 0 .42-.134l.229-.177c.138-.138.238-.31.29-.499l.04-.3c0-.2-.052-.397-.154-.57a7.978 7.978 0 0 0-.671-.794zM109.45 75.908c-.3-.004-.589.116-.799.331-.303.37-.573.766-.807 1.183a8.241 8.241 0 0 0-.567 1.321 1.13 1.13 0 0 0 1.66 1.276c.247-.156.431-.395.519-.675.036-.11.08-.217.122-.325a6.58 6.58 0 0 1 .783-1.328 8.801 8.801 0 0 0-.107.138c.199-.217.314-.497.326-.791a1.15 1.15 0 0 0-.331-.799 1.136 1.136 0 0 0-.799-.33zM114.905 95.832a1.142 1.142 0 0 0-.87.114l-.229.177a1.118 1.118 0 0 0-.266.456l.005-.011a3.39 3.39 0 0 1-1.034 1.342 1.263 1.263 0 0 0-.331.798c.003.3.121.586.331.8.213.21.5.33.799.33l.3-.04c.189-.052.361-.152.499-.29a5.048 5.048 0 0 0 1.585-2.286.85.85 0 0 0 .02-.45.838.838 0 0 0-.134-.42 1.15 1.15 0 0 0-.675-.52zM88.676 90.607a1.143 1.143 0 0 0-.87.114l-.23.176a1.123 1.123 0 0 0-.265.457l.005-.012c-.12.264-.267.515-.44.748a4.027 4.027 0 0 1-.594.594 1.258 1.258 0 0 0-.33.799c.002.3.12.586.33.799.213.211.5.33.8.33l.3-.04c.188-.052.36-.152.498-.29a5.044 5.044 0 0 0 1.585-2.286.855.855 0 0 0 .02-.45.841.841 0 0 0-.134-.42 1.15 1.15 0 0 0-.675-.52zM133.316 85.715a1.144 1.144 0 0 0-.87.114l-.229.177a1.129 1.129 0 0 0-.266.456l.005-.011c-.225.527-.581.989-1.033 1.342a1.257 1.257 0 0 0-.331.798c.002.3.121.586.331.8.212.21.499.33.799.33l.3-.04c.189-.052.36-.152.499-.29a5.038 5.038 0 0 0 1.584-2.286.85.85 0 0 0 .02-.45.837.837 0 0 0-.133-.42 1.152 1.152 0 0 0-.676-.52zM123.148 76.572a1.09 1.09 0 0 0-1.126-.54.844.844 0 0 0-.42.135l-.228.177c-.139.138-.239.31-.291.498l-.04.3c-.001.2.053.398.154.57l.318.637c.224.398.674.614 1.125.54a.838.838 0 0 0 .42-.135l.229-.177a1.13 1.13 0 0 0 .29-.498l.041-.3c0-.2-.053-.398-.154-.57a83.729 83.729 0 0 1-.318-.637zM134.884 95.346a1.088 1.088 0 0 0-1.126-.54.839.839 0 0 0-.419.135l-.229.177c-.139.138-.239.31-.291.498l-.04.3c-.001.2.053.398.154.57l.318.637c.225.398.674.614 1.126.54a.838.838 0 0 0 .419-.135l.229-.177c.138-.138.239-.31.29-.498l.041-.3c0-.2-.053-.398-.154-.57l-.318-.637zM118.411 121.724l-.53-.424a1.16 1.16 0 0 0-1.597 0 45.66 45.66 0 0 0-.177.229 1.109 1.109 0 0 0-.154.57l.04.3c.052.189.152.36.291.499l.53.424a1.162 1.162 0 0 0 1.597 0l.177-.229c.101-.173.155-.37.154-.57l-.04-.301a1.124 1.124 0 0 0-.291-.498zM138.769 120.876l-.229-.177a1.121 1.121 0 0 0-.57-.154l-.301.04c-.188.052-.36.152-.498.291l-1.06.848a1.163 1.163 0 0 0 0 1.598l.228.176c.173.101.37.155.571.155l.3-.041c.188-.052.36-.152.498-.29l1.061-.849a1.162 1.162 0 0 0 0-1.597zM136.065 111.615c.219.201.502.319.799.331l.3-.04c.188-.052.36-.152.498-.291l.177-.229c.101-.173.155-.37.154-.57v-.53a1.16 1.16 0 0 0-1.129-1.13l-.301.041c-.188.052-.36.152-.498.29l-.177.229c-.101.173-.154.37-.154.57v.53c.012.297.13.58.331.799zM145.148 84.563a8.274 8.274 0 0 1-.902-1.523 1.132 1.132 0 0 0-.675-.519 1.154 1.154 0 0 0-.87.114c-.254.15-.44.392-.519.675l-.041.3c0 .201.053.398.154.57a9.013 9.013 0 0 0 2.194 2.984c.215.207.5.325.799.332a1.13 1.13 0 0 0 .799-1.929 8.376 8.376 0 0 1-.939-1.004zM107.183 162.581a1.146 1.146 0 0 0-1.546.405 12.67 12.67 0 0 0-1.275 3.862c-.07.294-.029.604.114.87a1.128 1.128 0 0 0 1.546.406c.257-.146.445-.389.519-.675.141-.913.389-1.806.738-2.661.099-.223.198-.445.31-.662a1.15 1.15 0 0 0-.406-1.545zM121.552 152.55a7.92 7.92 0 0 0-.792-.672.84.84 0 0 0-.42-.134 1.161 1.161 0 0 0-1.126.539l-.113.27a1.135 1.135 0 0 0 0 .601l.113.27c.099.167.238.306.405.405l-.213-.166c.386.3.733.648 1.032 1.035l-.165-.214c.225.398.674.614 1.126.539a.834.834 0 0 0 .419-.134l.229-.176c.139-.139.239-.31.291-.499l.04-.3a1.116 1.116 0 0 0-.154-.57 8.08 8.08 0 0 0-.672-.794zM132.705 130.305c-.3-.004-.589.115-.799.331a8.21 8.21 0 0 0-.808 1.183 8.234 8.234 0 0 0-.566 1.321 1.129 1.129 0 0 0 1.659 1.276c.248-.157.432-.396.519-.676.037-.11.08-.217.122-.325.208-.471.471-.917.783-1.327l-.107.138c.199-.217.315-.498.327-.792a1.156 1.156 0 0 0-.331-.799 1.14 1.14 0 0 0-.799-.33zM138.159 150.229a1.146 1.146 0 0 0-.87.114l-.229.176a1.134 1.134 0 0 0-.266.457l.005-.011a3.386 3.386 0 0 1-1.033 1.341 1.258 1.258 0 0 0-.331.799c.002.299.121.586.331.799.212.211.499.33.799.331l.3-.04c.189-.052.36-.153.499-.291a5.046 5.046 0 0 0 1.585-2.285.874.874 0 0 0 .02-.451.844.844 0 0 0-.134-.419 1.148 1.148 0 0 0-.676-.52zM111.931 145.003a1.148 1.148 0 0 0-.871.114l-.229.177a1.13 1.13 0 0 0-.266.456l.005-.011a4.044 4.044 0 0 1-.44.748 4.012 4.012 0 0 1-.593.594 1.258 1.258 0 0 0-.331.799c.002.299.121.586.331.799.212.211.499.33.799.33l.3-.04c.189-.052.36-.152.499-.29a5.054 5.054 0 0 0 1.585-2.286.87.87 0 0 0 .02-.45.844.844 0 0 0-.134-.42 1.157 1.157 0 0 0-.675-.52zM146.402 130.969a1.09 1.09 0 0 0-1.126-.54.85.85 0 0 0-.42.134l-.228.177c-.139.138-.239.31-.291.498l-.04.301c0 .2.053.397.154.57l.318.636a1.09 1.09 0 0 0 1.126.539.83.83 0 0 0 .42-.134l.228-.176c.139-.138.239-.31.291-.499l.04-.3c0-.201-.053-.397-.154-.57l-.318-.636z" fill="#6F4EB9"/><path d="M129.316 80.399c0 9.571-9.156 17.237-17.703 17.237-8.547 0-13.25-7.666-13.25-17.237 0-9.571 6.93-17.33 15.477-17.33s15.476 7.759 15.476 17.33z" fill="#F0F3FC"/><ellipse cx="112.65" cy="76.79" rx="17.359" ry="13.215" transform="rotate(-82.003 112.65 76.79)" fill="#FF9763"/><path d="M130.925 104.656c-13.422 1.559 23.082 36.679 6.496 38.332-16.587 1.653-19.3 3.084-19.3 3.084-8.083 4.657 32.118 20.765 32.655 20.997.538.231 10.818-28.956 10.818-28.956l-8.511-21.33" fill="#6F4EB9"/><path d="M99.841 138.611c-19.012-.768 5.555 21.374-13.56 28.663l-3.735-1.959c20.78-3.302-6.603-30.033 16.598-28.115l.697 1.411z" fill="#97CC64"/><path d="M100.75 134.873c15.732-16.991-5.187-27.005-2.63-1.898l2.63 1.898zM98.443 136.215c-15.731 16.991 5.187 27.006 2.631 1.898l-2.63-1.898zM98.765 134.067c-18.35-21.72-23.102.611-1.168 2.68l1.168-2.68zM100.429 137.021c18.35 21.72 23.101-.611 1.167-2.68l-1.167 2.68z" fill="#F08059"/><path d="M99.824 134.025c-1.851-27.372-20.003-18.664-2.686.553l2.686-.553zM99.37 137.063c1.851 27.372 20.003 18.664 2.685-.553l-2.686.553zM98.193 134.974c-24.1-3.344-12.668 19.528 1.034 3.237l-1.034-3.237zM101.001 136.114c24.099 3.344 12.667-19.528-1.035-3.237l1.035 3.237z" fill="#F08059"/><ellipse cx="99.459" cy="135.471" rx="6.328" ry="8.041" transform="rotate(-28.067 99.459 135.471)" fill="#F0F3FC"/><path d="M88.46 155.706c-11.12.924-11.381-12.078-11.381-12.078s14.188 2.917 11.38 12.078z" fill="#97CC64"/><path d="M83.96 162.169c19.88 19.562 71.526 4.93 66.379-3.341-5.148-8.27 5.879 9.967 5.879 9.967l-9.33 8.695-70.615.848" fill="#6F4EB9"/></g><path d="M146.808 146.94a47.064 47.064 0 0 0-13.429-1.922s-2.568 1.797.939 3.073c0 0 .309.314-1.382 0-6.616-1.23-11.485-3.863-12.102-3.45-.705.472-.965.997-.704 1.112a1.462 1.462 0 0 0-2.009.319c-1.104 1.267 9.466 6.837 13.186 7.581a43.607 43.607 0 0 0 16.296-.036c6.589-1.275-.795-6.677-.795-6.677z" fill="#FF9763"/><mask id="o" style="mask-type:luminance" maskUnits="userSpaceOnUse" x="118" y="144" width="33" height="11"><path fill-rule="evenodd" clip-rule="evenodd" d="M146.808 146.94a47.064 47.064 0 0 0-13.429-1.922s-2.568 1.797.939 3.073c0 0 .309.314-1.382 0-6.616-1.23-11.485-3.863-12.102-3.45-.705.472-.965.997-.704 1.112a1.462 1.462 0 0 0-2.009.319c-1.104 1.267 9.466 6.837 13.186 7.581a43.607 43.607 0 0 0 16.296-.036c6.589-1.275-.795-6.677-.795-6.677z" fill="#fff"/></mask><g mask="url(#o)"><path d="M143.128 146.016c-5.399.445 2.86 5.848-4.395 9.707-7.255 3.859 7.994 3.043 7.994 3.043l2.593-9.447" fill="#E84B23"/></g><path d="M142.114 85.096c8.662 4.404 29.132 40.485 29.132 40.485l-18.163 21.34-21.407-43.644" fill="#9A7ED9"/><mask id="p" style="mask-type:luminance" maskUnits="userSpaceOnUse" x="131" y="85" width="41" height="62"><path fill-rule="evenodd" clip-rule="evenodd" d="M142.114 85.096c8.662 4.404 29.132 40.485 29.132 40.485l-18.163 21.34-21.407-43.644" fill="#fff"/></mask><g mask="url(#p)" fill="#6F4EB9"><path d="M138.072 109.691a1.146 1.146 0 0 0-1.546.405 12.662 12.662 0 0 0-1.275 3.862c-.07.294-.029.604.114.87a1.128 1.128 0 0 0 1.546.406c.257-.146.444-.389.519-.676.141-.912.389-1.805.738-2.66.098-.223.198-.445.309-.662a1.15 1.15 0 0 0-.405-1.545zM156.04 126.105a1.145 1.145 0 0 0-1.545.405 12.646 12.646 0 0 0-1.276 3.862c-.069.295-.029.604.114.871a1.132 1.132 0 0 0 1.546.405c.257-.146.445-.389.519-.675.141-.913.389-1.806.739-2.661.098-.223.197-.445.309-.662a1.15 1.15 0 0 0-.406-1.545zM159.423 142.406a1.147 1.147 0 0 0-1.546.406 12.662 12.662 0 0 0-1.275 3.862c-.07.294-.029.604.114.87a1.128 1.128 0 0 0 1.546.405 1.09 1.09 0 0 0 .519-.675c.141-.913.389-1.806.738-2.661.099-.222.198-.444.31-.661a1.151 1.151 0 0 0-.406-1.546zM152.441 99.66a7.915 7.915 0 0 0-.793-.672.837.837 0 0 0-.419-.134 1.16 1.16 0 0 0-1.126.539l-.114.27a1.132 1.132 0 0 0 0 .6l.114.27c.098.168.238.307.405.405l-.214-.165c.387.3.734.648 1.033 1.034l-.165-.213c.224.398.674.614 1.125.539a.834.834 0 0 0 .42-.134l.229-.177c.138-.138.239-.31.291-.498l.04-.3c0-.201-.053-.398-.154-.571a8.152 8.152 0 0 0-.672-.793zM169.048 97.339a1.143 1.143 0 0 0-.87.114l-.229.176a1.117 1.117 0 0 0-.266.456l.005-.01c-.12.263-.267.514-.44.747a4.09 4.09 0 0 1-.593.594 1.252 1.252 0 0 0-.331.799c.002.299.12.586.331.799.212.211.499.33.798.331l.301-.041c.188-.052.36-.152.498-.29a5.044 5.044 0 0 0 1.585-2.286.85.85 0 0 0 .02-.45.827.827 0 0 0-.134-.42 1.15 1.15 0 0 0-.675-.52zM142.819 92.113a1.144 1.144 0 0 0-.87.114l-.229.177a1.118 1.118 0 0 0-.266.456l.005-.011c-.225.527-.581.99-1.033 1.342a1.257 1.257 0 0 0-.331.798c.002.3.121.586.331.8.212.21.499.33.799.33l.3-.04c.189-.052.36-.152.499-.29a5.038 5.038 0 0 0 1.584-2.286.85.85 0 0 0 .02-.45.837.837 0 0 0-.133-.42 1.152 1.152 0 0 0-.676-.52zM172.555 123.23l-.531-.424a1.162 1.162 0 0 0-1.597 0l-.177.229c-.101.173-.154.37-.154.57l.04.301c.052.188.153.36.291.498l.53.424c.448.424 1.15.424 1.598 0l.176-.229a1.12 1.12 0 0 0 .155-.57l-.041-.3a1.13 1.13 0 0 0-.29-.499zM165.796 114.366c.319 6.785-3.992 5.669-3.992 5.669l-2.263 17.551-4.772-24.175"/></g><path d="M155.071 131.192a130.423 130.423 0 0 0-11.63 13.396c-1.594 4.778 3.418 12.324 3.418 12.324s32.594-19.751 23.828-32.307" fill="#9A7ED9"/><mask id="q" style="mask-type:luminance" maskUnits="userSpaceOnUse" x="143" y="124" width="30" height="33"><path fill-rule="evenodd" clip-rule="evenodd" d="M155.071 131.192a130.423 130.423 0 0 0-11.63 13.396c-1.594 4.778 3.418 12.324 3.418 12.324s32.594-19.751 23.828-32.307" fill="#fff"/></mask><g mask="url(#q)"><path d="M141.295 146.765c9.787 1.626 21.359 2.358 19.095-4.182-2.263-6.541-16.29-5.521-16.29-5.521" fill="#9A7ED9"/><path d="M143.371 120.926a1.148 1.148 0 0 0-.871.114l-.229.177a1.13 1.13 0 0 0-.266.456l.005-.011a4.044 4.044 0 0 1-.44.748 4.012 4.012 0 0 1-.593.594 1.258 1.258 0 0 0-.331.798 1.133 1.133 0 0 0 1.13 1.13l.3-.04c.189-.052.361-.152.499-.291a5.046 5.046 0 0 0 1.585-2.285.86.86 0 0 0 .02-.45.851.851 0 0 0-.134-.421 1.155 1.155 0 0 0-.675-.519zM146.877 146.818l-.53-.424a1.16 1.16 0 0 0-1.598 0l-.177.229c-.101.173-.154.37-.154.57l.041.3c.052.189.152.361.29.499l.53.424c.448.424 1.15.424 1.598 0l.177-.229c.101-.173.154-.37.154-.57l-.04-.301a1.133 1.133 0 0 0-.291-.498zM167.234 145.97l-.228-.177a1.121 1.121 0 0 0-.57-.154l-.3.04a1.122 1.122 0 0 0-.499.291l-1.06.848a1.163 1.163 0 0 0 0 1.598l.229.176c.172.101.369.155.57.155l.3-.041a1.14 1.14 0 0 0 .499-.29l1.06-.849a1.162 1.162 0 0 0 0-1.597h-.001zM164.53 136.709c.219.202.502.319.799.331l.301-.04c.188-.052.36-.152.498-.291l.177-.229c.101-.173.154-.37.154-.57v-.53a1.162 1.162 0 0 0-1.13-1.13l-.3.04c-.189.053-.36.153-.499.291a35.07 35.07 0 0 1-.176.229 1.109 1.109 0 0 0-.154.57v.53c.012.297.129.58.33.799z" fill="#6F4EB9"/><path d="M138.969 151.168c.32-2.979 19.983-3.607 18.687-4.671-1.296-1.064-12.005-2.443-12.005-2.443" fill="#6F4EB9"/></g><path d="M134.19 110.31h18.148a1.756 1.756 0 0 0 1.742-1.932 19.82 19.82 0 0 0-1.705-6.35 1.751 1.751 0 0 0-2.47-.792l-15.716 9.074h.001z" fill="#589BF7"/><path d="m134.19 110.31 15.712-9.072a1.753 1.753 0 0 0 .544-2.541 20.073 20.073 0 0 0-4.643-4.644 1.755 1.755 0 0 0-2.542.544l-9.071 15.713zM122.576 94.053a20.073 20.073 0 0 0-4.643 4.644 1.753 1.753 0 0 0 .544 2.541l10.059 5.808a1.748 1.748 0 0 0 2.389-2.39l-5.807-10.059a1.755 1.755 0 0 0-2.542-.544z" fill="#516DDB"/><path d="m134.189 110.31-15.716-9.074a1.754 1.754 0 0 0-2.47.792 19.845 19.845 0 0 0-1.704 6.35 1.754 1.754 0 0 0 1.741 1.932h18.149z" fill="#589BF7"/><circle cx="134.189" cy="110.31" r="6.351" fill="#589BF7"/><path d="M107.989 113.842h52.401v28.74a4.182 4.182 0 0 1-4.182 4.183h-44.036a4.182 4.182 0 0 1-4.183-4.183v-28.74z" fill="#FFC562"/><mask id="r" style="mask-type:luminance" maskUnits="userSpaceOnUse" x="107" y="113" width="54" height="34"><path fill-rule="evenodd" clip-rule="evenodd" d="M107.989 113.842h52.401v28.74a4.182 4.182 0 0 1-4.182 4.183h-44.036a4.182 4.182 0 0 1-4.183-4.183v-28.74z" fill="#fff"/></mask><g mask="url(#r)" fill="#F0F3FC"><path d="m86.261 134 60.134-31.13 2.548 4.921-60.134 31.13zM94.493 141.441l60.134-31.13 2.548 4.92-60.134 31.132zM103.656 147.792l60.134-31.13 2.548 4.92-60.134 31.132zM113.596 152.854l60.134-31.13 2.548 4.92-60.134 31.132zM120.597 159.87l60.134-31.13 2.548 4.92-60.134 31.132z"/></g><rect x="104.127" y="107.103" width="60.124" height="11.308" rx="4.818" fill="#D89D35"/><path fill="#516DDB" d="M127.084 106.9h14.211v39.866h-14.211z"/><path d="M64.844 86.522c.19 1.732-1.547 3.48-4 3.967-.43.086-.869.128-1.308.126a4.673 4.673 0 0 1-6.876 1.366 6.56 6.56 0 0 1-1.258.383c-2.452.487-4.725-.464-5.212-2.138l-.161.035a6.333 6.333 0 0 1-2.1.068l5.818 29.298c.11.552.646.911 1.198.801l21.046-4.18c.552-.109.91-.646.8-1.197l-5.818-29.299a6.33 6.33 0 0 1-1.967.74l-.162.03z" fill="#BB393C"/><path d="m64.982 80.953-21.047 4.18a1.019 1.019 0 0 0-.8 1.198l.793 3.998a6.332 6.332 0 0 0 2.263-.103c.486 1.674 2.759 2.625 5.211 2.138a6.56 6.56 0 0 0 1.258-.383 4.673 4.673 0 0 0 6.876-1.366c.44.002.877-.04 1.308-.126 2.453-.487 4.19-2.235 4-3.967l.163-.03a6.332 6.332 0 0 0 1.966-.74l-.793-3.998a1.019 1.019 0 0 0-1.198-.801z" fill="#72171B"/><path d="M55.97 89.094c.436 1.688-1.034 3.665-3.392 4.497-.414.147-.842.251-1.277.312a4.673 4.673 0 0 1-6.611 2.332 6.55 6.55 0 0 1-1.19.558c-2.358.832-4.743.215-5.463-1.373-.052.02-.103.04-.155.058a6.331 6.331 0 0 1-2.07.367l9.937 28.169c.187.531.77.809 1.3.622l20.235-7.138c.53-.187.809-.769.622-1.3l-9.937-28.17a6.332 6.332 0 0 1-1.841 1.014l-.157.052z" fill="#BB393C"/><mask id="s" style="mask-type:luminance" maskUnits="userSpaceOnUse" x="35" y="88" width="33" height="37"><path fill-rule="evenodd" clip-rule="evenodd" d="M55.97 89.094c.436 1.688-1.034 3.665-3.392 4.497-.414.147-.842.251-1.277.312a4.673 4.673 0 0 1-6.611 2.332 6.55 6.55 0 0 1-1.19.558c-2.358.832-4.743.215-5.463-1.373-.052.02-.103.04-.155.058a6.331 6.331 0 0 1-2.07.367l9.937 28.169c.187.531.77.809 1.3.622l20.235-7.138c.53-.187.809-.769.622-1.3l-9.937-28.17a6.332 6.332 0 0 1-1.841 1.014l-.157.052z" fill="#fff"/></mask><g mask="url(#s)"><path d="M50.805 99.38c-3.38-1.698-.592 22.94-3.756 25.256-3.165 2.315 7.587-1.382 7.995-1.269.408.114 1.364-9.913 1.364-9.913" fill="#90282A"/></g><path d="M55.314 83.562 35.079 90.7a1.019 1.019 0 0 0-.622 1.3l1.356 3.844a6.329 6.329 0 0 0 2.07-.366l.154-.058c.72 1.588 3.106 2.205 5.464 1.373a6.55 6.55 0 0 0 1.19-.559 4.672 4.672 0 0 0 6.61-2.332c.436-.06.863-.165 1.278-.311 2.358-.832 3.828-2.81 3.392-4.497l.157-.052a6.334 6.334 0 0 0 1.842-1.014l-1.356-3.844a1.02 1.02 0 0 0-1.3-.622z" fill="#872126"/><path d="M71.62 92.932c-.15 1.736-2.195 3.112-4.695 3.112a6.55 6.55 0 0 1-1.308-.131 4.672 4.672 0 0 1-7.01 0 6.55 6.55 0 0 1-1.308.131c-2.5 0-4.545-1.376-4.696-3.112l-.165.003a6.333 6.333 0 0 1-2.074-.343v29.87c0 .563.457 1.019 1.02 1.019H72.84c.562 0 1.019-.456 1.018-1.019v-29.87a6.332 6.332 0 0 1-2.238.34z" fill="#BB393C"/><mask id="t" style="mask-type:luminance" maskUnits="userSpaceOnUse" x="50" y="92" width="24" height="32"><path fill-rule="evenodd" clip-rule="evenodd" d="M71.62 92.932c-.15 1.736-2.195 3.112-4.695 3.112a6.55 6.55 0 0 1-1.308-.131 4.672 4.672 0 0 1-7.01 0 6.55 6.55 0 0 1-1.308.131c-2.5 0-4.545-1.376-4.696-3.112l-.165.003a6.333 6.333 0 0 1-2.074-.343v29.87c0 .563.457 1.019 1.02 1.019H72.84c.562 0 1.019-.456 1.018-1.019v-29.87a6.332 6.332 0 0 1-2.238.34z" fill="#fff"/></mask><g mask="url(#t)"><path d="M58.888 111.999c-2.741-.965-9.842 13.546-12.003 14.703-2.161 1.158 11.17-.818 11.17-.818l1.138-4.816" fill="#90282A"/></g><path d="M72.84 87.497H51.384a1.02 1.02 0 0 0-1.019 1.019v4.076a6.33 6.33 0 0 0 2.074.343c.055 0 .11-.002.165-.004.151 1.737 2.195 3.113 4.696 3.113.44 0 .877-.044 1.308-.131a4.672 4.672 0 0 0 7.01 0c.43.087.869.131 1.308.13 2.5 0 4.545-1.375 4.696-3.112.055.002.11.004.165.004a6.329 6.329 0 0 0 2.073-.343v-4.076c0-.563-.456-1.02-1.018-1.02z" fill="#90282A"/><path d="M67.134 131.928s.305 5.879-6.337 6.185c0 0-9.163-8.094-9.85-10.308-1.342-4.325 7.254-15.119 7.94-15.806.688-.687 2.215.305 1.375 2.443 0 0 1.756-3.283 2.29-2.977.535.305 2.063.687 1.452 2.596 0 0 3.665-.611 1.527 3.894 0 0 4.81-2.062-.306 9.85l1.91 4.123z" fill="#FF9763"/><mask id="u" style="mask-type:luminance" maskUnits="userSpaceOnUse" x="50" y="111" width="18" height="28"><path fill-rule="evenodd" clip-rule="evenodd" d="M67.134 131.928s.305 5.879-6.337 6.185c0 0-9.163-8.094-9.85-10.308-1.342-4.325 7.254-15.119 7.94-15.806.688-.687 2.215.305 1.375 2.443 0 0 1.756-3.283 2.29-2.977.535.305 2.063.687 1.452 2.596 0 0 3.665-.611 1.527 3.894 0 0 4.81-2.062-.306 9.85l1.91 4.123z" fill="#fff"/></mask><g mask="url(#u)"><path d="M55.044 134.421c12.565 4.515 12.09-2.493 12.09-2.493l.475 7.008-11.23.232" fill="#E84B23"/></g><ellipse cx="121.344" cy="57.116" rx="5.554" ry="4.603" transform="rotate(-29.32 121.344 57.116)" fill="#FF9763"/><path d="m102.817 82.359-.311-17.06h18.037l.286 15.634" fill="#FF9763"/><mask id="v" style="mask-type:luminance" maskUnits="userSpaceOnUse" x="102" y="65" width="19" height="18"><path fill-rule="evenodd" clip-rule="evenodd" d="m102.817 82.359-.311-17.06h18.037l.286 15.634" fill="#fff"/></mask><g mask="url(#v)"><path d="M93.24 82.958c22.686-5.998 25.038-14.62 25.038-14.62l-15.355-2-1.937 8.123-6.087 7.373" fill="#E84B23"/></g><path d="M109.251 73.249c-6.965 0-12.612-5.101-12.612-11.393V49.933c0-6.292 5.647-11.393 12.612-11.393a13.28 13.28 0 0 1 8.918 3.337 10.831 10.831 0 0 1 3.694 8.056v11.923c0 6.292-5.646 11.393-12.612 11.393z" fill="#FF9763"/><mask id="w" style="mask-type:luminance" maskUnits="userSpaceOnUse" x="96" y="38" width="26" height="36"><path fill-rule="evenodd" clip-rule="evenodd" d="M109.251 73.249c-6.965 0-12.612-5.101-12.612-11.393V49.933c0-6.292 5.647-11.393 12.612-11.393a13.28 13.28 0 0 1 8.918 3.337 10.831 10.831 0 0 1 3.694 8.056v11.923c0 6.292-5.646 11.393-12.612 11.393z" fill="#fff"/></mask><g mask="url(#w)"><path d="M92.093 51.655c.514-.993 2.776-.909 3.208-1.722 3.05-5.729 5.759-6.153 9.899-3.676 4.907 2.935 10.504-5.332 13.584-.828 3.079 4.504 3.666 22.72-6.746 14.373-10.412-8.346-18.991 10.2-18.991 10.2l11.072 7.088 17.744.398 5.133-24.773-5.133-17.288-19.797-.199-6.6 8.545" fill="#4B4D5C"/></g><ellipse opacity=".27" cx="99.944" cy="58.75" rx="2.419" ry="3.177" transform="rotate(-89.918 99.944 58.75)" fill="#E84B23"/><ellipse opacity=".27" cx="114.948" cy="58.772" rx="2.419" ry="3.177" transform="rotate(-89.918 114.948 58.772)" fill="#E84B23"/><rect x="102.469" y="51.335" width="2.259" height="4.167" rx="1.13" transform="rotate(4.196 102.469 51.335)" fill="#190000"/><rect x="110.888" y="51.316" width="2.259" height="4.167" rx="1.13" transform="rotate(4.195 110.888 51.316)" fill="#190000"/><path d="M103.51 48.742c-2.349.502-1.807 1.801-.319 1.584 1.488-.218 1.853-1.912.319-1.584zM112.147 48.65c2.25.84 1.706 1.962.265 1.53-1.441-.433-1.735-2.078-.265-1.53z" fill="#190000"/><path d="M108.254 55.775c.03.764-.635.487-1.441.52-.806.032-1.448.36-1.478-.403a1.463 1.463 0 0 1 2.919-.117z" fill="#E84B23"/><path d="M104.998 62.968c2.346.728 4.547-1.416 4.547-1.416" stroke="#993443" stroke-width="2.487" stroke-linecap="round" stroke-linejoin="round"/><path d="m123.218 56.588.108.317c.054.167.164.31.311.405a.51.51 0 0 0 .252.08c.09.021.183.017.271-.011l.161-.069a.68.68 0 0 0 .244-.243l.068-.162a.668.668 0 0 0 0-.36l-.108-.318a.76.76 0 0 0-.311-.405.509.509 0 0 0-.252-.08.516.516 0 0 0-.271.012l-.161.068a.681.681 0 0 0-.244.244l-.068.161a.689.689 0 0 0 0 .36z" fill="#373947"/><path d="m90.97 106.646.585 2.257a.679.679 0 1 0 1.307-.361l-.585-2.257a.678.678 0 0 0-1.308.361z" fill="#6F4EB9"/><path d="m57.274 104.557-1.697 1.697a.677.677 0 1 0 .959.958l1.696-1.696a.678.678 0 0 0-.958-.959z" fill="#90282A"/><rect x="65.96" y="73.007" width="18" height="32.565" rx="7.864" fill="#2976DF"/><mask id="x" style="mask-type:luminance" maskUnits="userSpaceOnUse" x="65" y="73" width="19" height="33"><rect x="65.96" y="73.007" width="18" height="32.565" rx="7.864" fill="#fff"/></mask><g mask="url(#x)"><path d="M72.556 93.698c4.79 8.87 3.195 14.827 3.195 14.827h8.36L85.38 93.06H69.373" fill="#1665C4"/></g><rect x="68.276" y="76.293" width="4.844" height="5.975" rx="2.422" fill="#589BF7"/><path d="M76.705 93.06s5.837 8.963 1.26 18.935" stroke="#3A3530" stroke-width="1.752" stroke-linecap="round" stroke-linejoin="round"/><path fill="#589BF7" d="M73.12 114.907h3.585v58.239H73.12z"/><mask id="y" style="mask-type:luminance" maskUnits="userSpaceOnUse" x="73" y="114" width="4" height="60"><path fill="#fff" d="M73.12 114.907h3.585v58.239H73.12z"/></mask><g mask="url(#y)"><path d="M72.272 135.716c.892-7.757 5.342-8.176 5.342-8.176l.352-4.383-7.53 1.155" fill="#2976DF"/></g><rect x="71.86" y="121.854" width="6.106" height="6.106" rx="2.87" fill="#F0F3FC"/><path fill-rule="evenodd" clip-rule="evenodd" d="M49.915 78.834A27.057 27.057 0 0 1 74.913 62.13c14.943 0 27.057 12.114 27.057 27.057a27.057 27.057 0 1 1-52.055-10.354zm5.219 18.547a21.408 21.408 0 0 0 19.779 13.216c11.823 0 21.408-9.585 21.408-21.409a21.409 21.409 0 1 0-41.187 8.193z" fill="#F0F3FC"/><mask id="z" style="mask-type:luminance" maskUnits="userSpaceOnUse" x="47" y="62" width="55" height="55"><path fill-rule="evenodd" clip-rule="evenodd" d="M74.913 62.13a27.057 27.057 0 1 0 27.057 27.058c0-14.943-12.114-27.057-27.057-27.057zm0 48.467A21.408 21.408 0 1 1 96.32 89.188c0 11.824-9.585 21.409-21.408 21.409z" fill="#fff"/></mask><g mask="url(#z)"><path d="M92.954 95.974c11.597 3.115 20.488-4.407 20.488-4.407l-11.472 19.679-13.462-8.718" fill="#D6DCF2"/></g><rect x="64.616" y="88.318" width="20.764" height="6.498" rx="1.61" fill="#9A7ED9"/><circle cx="76.705" cy="91.044" r="4.93" fill="#6F4EB9"/><path d="m78.3 81.681-.963 1.549a.394.394 0 0 0 .14.534.399.399 0 0 0 .534-.14l.963-1.549a.395.395 0 0 0-.14-.534.399.399 0 0 0-.534.14z" fill="#1665C4"/><path d="m76.055 149.26-.387.386a.402.402 0 0 0 0 .553.392.392 0 0 0 .276.114l.104-.014a.388.388 0 0 0 .173-.1l.386-.387a.401.401 0 0 0 0-.552.397.397 0 0 0-.276-.115l-.104.014a.39.39 0 0 0-.172.101z" fill="#2976DF"/></svg>