<svg width="235" height="177" fill="none" xmlns="http://www.w3.org/2000/svg"><mask id="a" style="mask-type:luminance" maskUnits="userSpaceOnUse" x="0" y="0" width="235" height="177"><path fill="#fff" d="M0 0h235v176.25H0z"/></mask><g mask="url(#a)"><path d="M83.477 26.555c-7.498-7.498-17.78-9.373-22.965-4.188-5.186 5.186-3.31 15.468 4.187 22.966a25.17 25.17 0 0 0 9.932 6.236 20.253 20.253 0 0 1 8.4 5.38c.124.13.25.259.377.386 5.325 5.325 12.345 6.94 15.678 3.606 3.333-3.333 1.719-10.352-3.606-15.677a22.34 22.34 0 0 0-.386-.377 20.254 20.254 0 0 1-5.38-8.4 25.17 25.17 0 0 0-6.237-9.932z" fill="#97CC64"/><mask id="b" style="mask-type:luminance" maskUnits="userSpaceOnUse" x="57" y="19" width="44" height="44"><path fill-rule="evenodd" clip-rule="evenodd" d="M83.477 26.555c-7.498-7.498-17.78-9.373-22.965-4.188-5.186 5.186-3.31 15.468 4.187 22.966a25.17 25.17 0 0 0 9.932 6.236 20.253 20.253 0 0 1 8.4 5.38c.124.13.25.259.377.386 5.325 5.325 12.345 6.94 15.678 3.606 3.333-3.333 1.719-10.352-3.606-15.677a21.991 21.991 0 0 0-.386-.377 20.255 20.255 0 0 1-5.38-8.4 25.17 25.17 0 0 0-6.237-9.932z" fill="#fff"/></mask><g mask="url(#b)"><path d="M65.942 14.372c-12.854 52.31 24.146 21.626 34.879 56.871 10.732 35.245-56.856.415-56.856.415L41.477 2.826" fill="#75AA3C"/></g><path d="M71.897 29.484c.3 1.52.072 3.096-.647 4.467-.176.335.332.634.509.297a7.442 7.442 0 0 0 .706-4.92c-.075-.372-.642-.215-.568.156z" fill="#75AA3C"/><rect x="168.581" y="55.722" width="34.957" height="46.807" rx="8.186" fill="#589BF7"/><mask id="c" style="mask-type:luminance" maskUnits="userSpaceOnUse" x="168" y="55" width="36" height="48"><rect x="168.581" y="55.722" width="34.957" height="46.807" rx="8.186" fill="#fff"/></mask><g mask="url(#c)"><path d="M205.123 94.528c-3.681-8.147.029 10.61-34.229 8.001s16.614 13.973 16.614 13.973l24.319-15.13" fill="#2976DF"/></g><rect x="171.593" y="59.567" width="28.933" height="26.214" rx="4.887" fill="#EFF3FC"/><mask id="d" style="mask-type:luminance" maskUnits="userSpaceOnUse" x="171" y="59" width="30" height="27"><rect x="171.593" y="59.567" width="28.933" height="26.214" rx="4.887" fill="#fff"/></mask><g mask="url(#d)"><path d="M159.772 68.503c10.121.92 10.372-8.936 18.331-8.936s-9.522-2.895-9.522-2.895l-1.186 2.367" fill="#D6DCF2"/></g><rect x="173.733" y="90.465" width="23.816" height="2.658" rx="1.329" fill="#2976DF"/><rect x="173.733" y="94.528" width="17.321" height="2.658" rx="1.329" fill="#2976DF"/><path d="M179.297 67.254a72.162 72.162 0 0 0-1.194 13.924h2.785c.072-2.872.034-5.894.663-8.023l.282.132-.096 2.966 1.845.28v.655l-1.866-.283-.064 2.019a6.695 6.695 0 0 0 4 1.19V65.108a5.434 5.434 0 0 1-1.675-.166 6.348 6.348 0 0 1 3.714-.199 2.415 2.415 0 0 1-1.318.465v14.908c1.654-.045 3.262-.442 4.095-1.192l-.065-2.017-1.845.28v-.654l1.824-.277-.095-2.969.282-.132c.628 2.13.591 5.151.663 8.023h2.784a72.001 72.001 0 0 0-1.193-13.924 16.066 16.066 0 0 0-4.046-1.598V64.57a9.946 9.946 0 0 0-5.57 0v1.123c-1.367.346-2.682.871-3.911 1.562h.001z" fill="#97CC64"/><mask id="e" style="mask-type:luminance" maskUnits="userSpaceOnUse" x="178" y="64" width="17" height="18"><path fill-rule="evenodd" clip-rule="evenodd" d="M179.297 67.254a72.162 72.162 0 0 0-1.194 13.924h2.785c.072-2.872.034-5.894.663-8.023l.282.132-.096 2.966 1.845.28v.655l-1.866-.283-.064 2.019a6.695 6.695 0 0 0 4 1.19V65.108a5.434 5.434 0 0 1-1.675-.166 6.348 6.348 0 0 1 3.714-.199 2.415 2.415 0 0 1-1.318.465v14.908c1.654-.045 3.262-.442 4.095-1.192l-.065-2.017-1.845.28v-.654l1.824-.277-.095-2.969.282-.132c.628 2.13.591 5.151.663 8.023h2.784a72.001 72.001 0 0 0-1.193-13.924 16.066 16.066 0 0 0-4.046-1.598V64.57a9.946 9.946 0 0 0-5.57 0v1.123c-1.367.346-2.682.871-3.911 1.562h.001z" fill="#fff"/></mask><g mask="url(#e)"><path d="M173.733 70.573c5.658 2.86 5.402-3.826 8.661-4.646 3.258-.82-3.496-1.756-3.496-1.756l-.795 1.67" fill="#75AA3C"/></g><path d="m183.327 68.716-.591.394a.222.222 0 0 0-.097.126.21.21 0 0 0 .308.237l.592-.394a.21.21 0 0 0 .022-.348.21.21 0 0 0-.234-.015z" fill="#75AA3C"/><path d="M199.868 94.005c-.443.525-.97.972-1.559 1.323a.21.21 0 0 0 .212.363 6.515 6.515 0 0 0 1.644-1.39.216.216 0 0 0 0-.296.212.212 0 0 0-.297 0z" fill="#2976DF"/><rect x="26.427" y="55.722" width="34.957" height="46.807" rx="8.186" fill="#FFC562"/><mask id="f" style="mask-type:luminance" maskUnits="userSpaceOnUse" x="26" y="55" width="36" height="48"><rect x="26.427" y="55.722" width="34.957" height="46.807" rx="8.186" fill="#fff"/></mask><g mask="url(#f)"><path d="M63.34 56.715c4.314 51.231-20.344 51.049-37.296 49.168-16.952-1.88 25.545 8.964 25.545 8.964l11.983-1.971 7.241-29.165" fill="#D89D35"/></g><rect x="29.439" y="59.567" width="28.933" height="26.214" rx="4.887" fill="#EFF3FC"/><mask id="g" style="mask-type:luminance" maskUnits="userSpaceOnUse" x="29" y="59" width="30" height="27"><rect x="29.439" y="59.567" width="28.933" height="26.214" rx="4.887" fill="#fff"/></mask><g mask="url(#g)"><path d="M23.98 78.17c3.297-22.873 24.172-19.916 24.172-19.916L15.8 57.206" fill="#D6DCF2"/></g><rect x="31.579" y="90.465" width="23.816" height="2.658" rx="1.329" fill="#E84B23"/><rect x="31.579" y="94.528" width="17.321" height="2.658" rx="1.329" fill="#E84B23"/><path d="M49.88 64.992H47.2a3.398 3.398 0 0 1-6.586 0H37.93v.002l-5.12 2.559 1.708 4.267 3.412-1.707v10.243h11.95V70.113l3.414 1.707L55 67.553l-5.12-2.56z" fill="#FFC562"/><mask id="h" style="mask-type:luminance" maskUnits="userSpaceOnUse" x="32" y="64" width="24" height="17"><path fill-rule="evenodd" clip-rule="evenodd" d="M49.88 64.992H47.2a3.398 3.398 0 0 1-6.586 0H37.93v.002l-5.12 2.559 1.708 4.267 3.412-1.707v10.243h11.95V70.113l3.414 1.707L55 67.553l-5.12-2.56z" fill="#fff"/></mask><g mask="url(#h)"><path d="M32.01 71.466c.8-3.913 8.215-6.09 11.05-5.324 2.833.766-3.953-4.609-3.953-4.609L25.7 65.391" fill="#D89D35"/></g><path d="m43.504 73.299-.593.59a.21.21 0 0 0 .297.297l.593-.59a.21.21 0 1 0-.297-.297zM57.657 96.5a3.21 3.21 0 0 1-.055.075c.013-.016.01-.01-.002.002l-.03.037a2.342 2.342 0 0 1-.319.317l-.036.03c.023-.019.002-.002-.01.007a2.403 2.403 0 0 1-.462.27c-.035.016.012-.005-.01.004l-.044.017c-.029.012-.059.022-.088.033a.21.21 0 1 0 .111.405c.53-.182.987-.527 1.308-.985a.211.211 0 0 0-.075-.288.215.215 0 0 0-.288.076z" fill="#D89D35"/><rect x="54.611" y="44.807" width="51.26" height="68.636" rx="12.004" fill="#FE7578"/><mask id="i" style="mask-type:luminance" maskUnits="userSpaceOnUse" x="54" y="44" width="52" height="70"><rect x="54.611" y="44.807" width="51.26" height="68.636" rx="12.004" fill="#fff"/></mask><g mask="url(#i)"><path d="M108.307 71.21c-6.852-13.147 19.527 47.995-47.934 42.234-67.462-5.761 53.249 21.24 53.249 21.24l8.546-47.997" fill="#E55A61"/></g><rect x="59.028" y="50.446" width="42.426" height="38.44" rx="7.166" fill="#EFF3FC"/><mask id="j" style="mask-type:luminance" maskUnits="userSpaceOnUse" x="59" y="50" width="43" height="39"><rect x="59.028" y="50.446" width="42.426" height="38.44" rx="7.166" fill="#fff"/></mask><g mask="url(#j)"><path d="M54.083 77.435c.71-39.034 46.633-26.99 46.633-26.99l-51.99-3.462-3.064 3.463" fill="#D6DCF2"/></g><rect x="62.166" y="95.753" width="34.922" height="3.898" rx="1.949" fill="#FFC562"/><rect x="62.166" y="101.712" width="25.399" height="3.898" rx="1.949" fill="#FFC562"/><path d="m91.836 82.415-3.12-22.627a1.016 1.016 0 0 0-1.05-.802H72.816c-.5-.029-.946.312-1.05.802l-3.12 22.627a.971.971 0 0 0 1.051 1.016h8.17c.519.033.976-.334 1.057-.847l1.087-13.708a.257.257 0 0 1 .502 0l1.047 13.706c.079.514.537.882 1.056.85h8.167a.972.972 0 0 0 1.052-1.017z" fill="#FE7578"/><path d="M72.912 57.469h14.591a.785.785 0 0 0 0-1.57H72.912a.784.784 0 1 0 0 1.57zM77.706 64.206l-3.18 3.47c-.268.291.166.728.435.435l3.18-3.47c.268-.292-.167-.729-.435-.435zM100.207 100.779a3.48 3.48 0 0 1-.117.36c-.031.081.015-.031-.005.014l-.027.062a3.097 3.097 0 0 1-.254.446l-.07.099c-.029.04.044-.054-.01.012l-.034.042a2.766 2.766 0 0 1-.36.367 2.313 2.313 0 0 1-.104.085c.024-.018.02-.014-.002.001a6.29 6.29 0 0 1-.066.048.308.308 0 0 0 .311.532 3.357 3.357 0 0 0 1.331-1.903.306.306 0 0 0-.374-.38.306.306 0 0 0-.22.216l.001-.001z" fill="#E55A61"/><rect x="124.094" y="44.807" width="51.26" height="68.636" rx="12.004" fill="#9A7ED9"/><mask id="k" style="mask-type:luminance" maskUnits="userSpaceOnUse" x="124" y="44" width="52" height="70"><rect x="124.094" y="44.807" width="51.26" height="68.636" rx="12.004" fill="#fff"/></mask><g mask="url(#k)"><path d="M175.354 82.135c-2.876-7.213 1.96 34.748-29.372 31.308-31.331-3.44 37.483 12.174 37.483 12.174l5.59-25.965" fill="#6F4EB9"/></g><rect x="128.511" y="50.446" width="42.426" height="38.44" rx="7.166" fill="#EFF3FC"/><mask id="l" style="mask-type:luminance" maskUnits="userSpaceOnUse" x="128" y="50" width="43" height="39"><rect x="128.511" y="50.446" width="42.426" height="38.44" rx="7.166" fill="#fff"/></mask><g mask="url(#l)"><path d="M127.18 69.666c-3.086-17.49 9.652-19.343 28.913-19.22 19.261.123-31.999-5.639-31.999-5.639l-6.167 1.972" fill="#D6DCF2"/></g><rect x="131.649" y="95.753" width="34.922" height="3.898" rx="1.949" fill="#6F4EB9"/><rect x="131.649" y="101.712" width="25.399" height="3.898" rx="1.949" fill="#6F4EB9"/><path d="M156.201 63.767v-3.092h-5.734v7.359a.743.743 0 0 1-1.485 0v-7.359h-5.734v3.147a6.278 6.278 0 0 1-3.623 5.69l-1.123.523v11.912a.839.839 0 0 0 .838.839h7.593c.398 0 .741-.28.821-.67l1.56-7.58h.82l1.559 7.58c.08.39.424.67.822.67h7.593a.838.838 0 0 0 .838-.839V69.98l-1.123-.524a6.278 6.278 0 0 1-3.622-5.69z" fill="#9A7ED9"/><path d="M157.751 60.675v3.092a4.745 4.745 0 0 0 2.728 4.285l.468.218v-7.594h-3.196zM141.698 63.823v-3.148h-3.197v7.65l.469-.218a4.745 4.745 0 0 0 2.728-4.284z" fill="#9A7ED9"/><path d="M160.846 57.657c0-.614-.498-1.112-1.112-1.112h-20.019c-.614 0-1.112.498-1.112 1.112v1.888h22.243v-1.888zM156.502 72.068l-.868 2.023a.32.32 0 0 0 .111.422.31.31 0 0 0 .421-.11l.868-2.024a.318.318 0 0 0-.111-.422.31.31 0 0 0-.421.11zM162.068 104.708l-1.453 1.147a.309.309 0 0 0 0 .436.317.317 0 0 0 .435 0l1.453-1.148a.308.308 0 0 0 0-.435.317.317 0 0 0-.435 0z" fill="#6F4EB9"/><path d="M111.575 53.67c-5.4-1.705-4.438-13.936 6.141-12.497 10.58 1.439 8.719 20.864 25.25 19.745 17.169-1.163 16.019 39.907-6.811 34.292-16.719-4.112-24.58-41.54-24.58-41.54z" fill="#3A3530"/><mask id="m" style="mask-type:luminance" maskUnits="userSpaceOnUse" x="108" y="41" width="47" height="55"><path fill-rule="evenodd" clip-rule="evenodd" d="M111.575 53.67c-5.4-1.705-4.438-13.936 6.141-12.497 10.58 1.439 8.719 20.864 25.25 19.745 17.169-1.163 16.019 39.907-6.811 34.292-16.719-4.112-24.58-41.54-24.58-41.54z" fill="#fff"/></mask><g mask="url(#m)"><path d="M146.743 95.287c1.608-9.903-19.222-13-17.673-17.206 1.549-4.205 3.106-8.942-1.512-10.829-4.619-1.886-8.015 8.349-8.015 8.349l-1.653 8.23 2.866 6.321 26.348 6.684" fill="#190000"/></g><path d="M109.537 52.124s5.377-3.543 10.005-.772l-.56 2.274-8.008.462-1.437-1.964zM78.13 143.587c-1.118-4.508-18.583-63.673 39.965-63.493 58.549.18 36.614 68.351 36.614 68.351l-76.578-4.858z" fill="#FE7578"/><mask id="n" style="mask-type:luminance" maskUnits="userSpaceOnUse" x="74" y="80" width="85" height="69"><path fill-rule="evenodd" clip-rule="evenodd" d="M78.13 143.587c-1.118-4.508-18.583-63.673 39.965-63.493 58.549.18 36.614 68.351 36.614 68.351l-76.578-4.858z" fill="#fff"/></mask><g mask="url(#n)"><ellipse cx="116.966" cy="80.828" rx="15.061" ry="11.021" fill="#F0F3FC"/><ellipse cx="116.966" cy="80.828" rx="11.229" ry="8.217" fill="#FF9763"/><mask id="o" style="mask-type:luminance" maskUnits="userSpaceOnUse" x="105" y="72" width="24" height="18"><ellipse cx="116.966" cy="80.828" rx="11.229" ry="8.217" fill="#fff"/></mask><g mask="url(#o)"><ellipse cx="110.455" cy="80.332" rx="13.845" ry="6.715" fill="#E84B23"/></g><path d="M146.202 102.85c-.09 3.573-1.768 13.892-1.768 13.892l2.748-7.322-.98-6.57zM68.778 122.308c9.92 2.119 11.657 3.845 11.657 3.845l-11.657-3.845z" fill="#FE7578"/><path d="M70.518 124.085a13.007 13.007 0 0 1 10.51 3.904s-8.074-22.879 4.456-23.401c12.53-.522 60.268 1.009 61.698 4.831 1.429 3.823-.961 16.735-.961 16.735s4.296 6.425 12.764 0 2.892 11.674 2.892 11.674l-82.962 8.527" fill="#BA393C"/></g><path d="M116.65 88.117c-.296 7.441-13.715 10.09-16.586-6.083 0 0 8.193-4.524 8.328-2.288.432 7.135 8.258 8.37 8.258 8.37z" fill="#F0F3FC"/><path d="M116.579 88.117c.296 7.441 13.148 9.588 17.221-5.932 0 0-8.828-4.675-8.963-2.439-.432 7.135-8.258 8.371-8.258 8.371zM144.91 153.858H84.169l-3.701-40.616c-.335-3.679 1.956-6.716 5.123-6.716h57.897c3.167 0 5.458 3.037 5.123 6.716l-3.701 40.616z" fill="#F0F3FC"/><mask id="p" style="mask-type:luminance" maskUnits="userSpaceOnUse" x="80" y="106" width="69" height="48"><path fill-rule="evenodd" clip-rule="evenodd" d="M144.91 153.858H84.169l-3.701-40.616c-.335-3.679 1.956-6.716 5.123-6.716h57.897c3.167 0 5.458 3.037 5.123 6.716l-3.701 40.616z" fill="#fff"/></mask><g mask="url(#p)"><path d="M73.362 128.966c12.995-6.425 33.853 13.856 44.888 19.374 11.034 5.518 20.316-25.361 35.398-21.055 15.083 4.306-15.449 27.338-15.449 27.338l-39.653 2.26" fill="#D6DCF2"/></g><path d="M118.909 127.719c-.178 1.762-1.959 3.069-3.99 3.032-2.031-.036-3.761-1.406-3.871-3.173-.119-1.908 1.668-3.534 3.999-3.492 2.332.042 4.054 1.732 3.862 3.633z" fill="#FF9763"/><path d="m163.051 160.884 4.423-.61s7.842 9.547-12.666 13.641l8.243-13.031z" fill="#3A3530"/><path d="M157.114 159.698a46.745 46.745 0 0 1 8.796-.136c5.735.906.338 12.14-11.102 14.353 0 0 7.591-10.059 2.306-14.217z" fill="#F0F3FC"/><path d="M133.963 162.447s13.374-1.99 23.151-2.749c5.285 4.159-2.306 14.217-2.306 14.217-.727.141-1.461.243-2.199.305-12.928 1.082-23.987-.03-25.483-1.193-1.496-1.163 6.837-10.58 6.837-10.58z" fill="#3A3530"/><path d="M125.266 155.606c6.766 4.322 11.183 7.322 11.183 7.322a6.151 6.151 0 0 1 .146 7.96 5.521 5.521 0 0 1-4.848 2.231c-2.782-.19-5.572-.45-8.355-.778 1.005-4.605 2.306-11.825 1.874-16.735z" fill="#FF9763"/><path d="M56.644 126.38c6.574-8.791 48.25 16.212 68.623 29.226.432 4.909-.87 12.13-1.875 16.735-42.008-4.941-82.318-25.14-66.748-45.961z" fill="#274B69"/><mask id="q" style="mask-type:luminance" maskUnits="userSpaceOnUse" x="53" y="124" width="73" height="49"><path fill-rule="evenodd" clip-rule="evenodd" d="M56.644 126.38c6.574-8.791 48.25 16.212 68.623 29.226.432 4.909-.87 12.13-1.875 16.735-42.008-4.941-82.318-25.14-66.748-45.961z" fill="#fff"/></mask><g mask="url(#q)"><path d="M58.68 159.698c10.009-3.367 13.166-5.487 35.105-.291 6.523 1.546 17.874-11.004 23.965-13.51 6.09-2.506 9.975 13.51 9.975 13.51l-19.873 9.231-13.827 1.683-29.249-3.66-6.096-6.963z" fill="#11314B"/><circle cx="54.998" cy="128.966" r="9.048" fill="#11314B"/><path d="M46.071 127.551c-7.173 8.491 53.577 42.364 70.579 43.863" stroke="#11314B" stroke-width="1.288" stroke-linecap="round" stroke-linejoin="round" stroke-dasharray="2.58"/></g><ellipse cx="116.65" cy="69.951" rx="11.075" ry="15.508" fill="#FF9763"/><mask id="r" style="mask-type:luminance" maskUnits="userSpaceOnUse" x="105" y="54" width="23" height="32"><ellipse cx="116.65" cy="69.951" rx="11.075" ry="15.508" fill="#fff"/></mask><g mask="url(#r)"><ellipse opacity=".27" cx="110.002" cy="78.695" rx="2.818" ry="2.146" transform="rotate(-2.519 110.002 78.695)" fill="#E84B23"/><ellipse opacity=".27" cx="123.297" cy="78.11" rx="2.818" ry="2.146" transform="rotate(-2.519 123.297 78.11)" fill="#E84B23"/><rect x="111.816" y="71.75" width="2.004" height="3.696" rx="1.002" transform="rotate(1.593 111.816 71.75)" fill="#190000"/><rect x="119.518" y="71.669" width="2.004" height="3.696" rx="1.002" transform="rotate(1.595 119.518 71.669)" fill="#190000"/><path d="M112.627 69.428c-2.06.54-1.528 1.669-.218 1.416 1.31-.254 1.565-1.769.218-1.416zM120.526 69.256c2.028.653 1.591 1.67.297 1.344-1.294-.325-1.621-1.77-.297-1.344z" fill="#190000"/><path d="M117.735 76.084c-.006.677-.584.404-1.299.397-.716-.006-1.298.258-1.292-.42a1.297 1.297 0 0 1 2.591.023z" fill="#E84B23"/><path d="M113.657 79.856c1.222 4.814 5.685 2.483 5.574-.55a.375.375 0 0 0-.264-.337 7.633 7.633 0 0 0-5.079.442.384.384 0 0 0-.231.445z" fill="#C1525F"/><mask id="s" style="mask-type:luminance" maskUnits="userSpaceOnUse" x="113" y="78" width="7" height="5"><path fill-rule="evenodd" clip-rule="evenodd" d="M113.657 79.856c1.222 4.814 5.685 2.483 5.574-.55a.375.375 0 0 0-.264-.337 7.633 7.633 0 0 0-5.079.442.384.384 0 0 0-.231.445z" fill="#fff"/></mask><g mask="url(#s)"><ellipse cx="117.315" cy="82.319" rx="2.49" ry="2.222" transform="rotate(-22.832 117.315 82.32)" fill="#993443"/><path d="M114.462 79.016c.003.286.067.569.189.828.559.445 3.048.012 3.367-.298a4.81 4.81 0 0 0 .012-1.125l-3.202.387" fill="#F0F3FC"/></g></g><path d="M106.382 68.187c-6.391-2.98-7.787 1.781-4.849 5.689 2.204 2.931 4.656 2.545 5.745 2.168M125.77 68.187c6.392-2.98 7.788 1.781 4.849 5.689-1.885 2.506-3.951 2.587-5.19 2.322" fill="#FF9763"/><path d="M113.399 60.837c-1.654 12.47-9.037 10.552-9.037 10.552s-4.298-18.438 11.571-18.225c15.869.213 11.792 16.787 11.792 16.787s-12.563.266-14.326-9.113zM70.672 160.884l-4.423-.61s-7.842 9.547 12.666 13.641l-8.243-13.031z" fill="#3A3530"/><path d="M76.609 159.698a46.744 46.744 0 0 0-8.796-.136c-5.735.906-.338 12.14 11.102 14.353 0 0-7.591-10.059-2.306-14.217z" fill="#F0F3FC"/><path d="M99.76 162.447s-13.374-1.99-23.151-2.749c-5.285 4.159 2.306 14.217 2.306 14.217.727.141 1.461.243 2.199.305 12.928 1.082 23.987-.03 25.483-1.193 1.496-1.163-6.837-10.58-6.837-10.58z" fill="#3A3530"/><path d="M108.457 155.606c-6.766 4.322-11.183 7.322-11.183 7.322a6.15 6.15 0 0 0-.146 7.96 5.52 5.52 0 0 0 4.848 2.231c2.782-.19 5.572-.45 8.355-.778-1.005-4.605-2.306-11.825-1.874-16.735z" fill="#FF9763"/><mask id="t" style="mask-type:luminance" maskUnits="userSpaceOnUse" x="95" y="155" width="16" height="19"><path fill-rule="evenodd" clip-rule="evenodd" d="M108.457 155.606c-6.766 4.322-11.183 7.322-11.183 7.322a6.15 6.15 0 0 0-.146 7.96 5.52 5.52 0 0 0 4.848 2.231c2.782-.19 5.572-.45 8.355-.778-1.005-4.605-2.306-11.825-1.874-16.735z" fill="#fff"/></mask><g mask="url(#t)"><path d="M98.113 161.064c-.601 6.131 4.688 12.743 9.497 10.579 4.809-2.164-2.274-15.123.847-16.037 3.121-.915 5.165 19.054 5.165 19.054s-1.323.59-2.525 1.071c-1.202.48-12.383.48-12.383.48l-6.131-9.117 1.202-7.687 5.975 3.04" fill="#E84B23"/></g><path d="M177.079 126.38c-6.574-8.791-48.25 16.212-68.622 29.226-.432 4.909.869 12.13 1.874 16.735 42.008-4.941 82.318-25.14 66.748-45.961z" fill="#274B69"/><mask id="u" style="mask-type:luminance" maskUnits="userSpaceOnUse" x="108" y="124" width="73" height="49"><path fill-rule="evenodd" clip-rule="evenodd" d="M177.079 126.38c-6.574-8.791-48.25 16.212-68.622 29.226-.432 4.909.869 12.13 1.874 16.735 42.008-4.941 82.318-25.14 66.748-45.961z" fill="#fff"/></mask><g mask="url(#u)"><path d="M142.966 132.571c8.285.962 26.504-9.53 31.907-6.631 5.403 2.899 11.239 7.18 8.354 17.759-2.886 10.58 1.206 4.746 1.206 4.746l1.683-23.897-20.993-12.242-22.157 20.265z" fill="#11314B"/><ellipse cx="182.183" cy="128.966" rx="10.094" ry="11.008" fill="#11314B"/><path d="M111.891 168.237s63.149-9.959 68.605-38.045" stroke="#11314B" stroke-width="1.288" stroke-linecap="round" stroke-linejoin="round" stroke-dasharray="2.58"/><path d="M113.344 150.215c-1.585 7.522 3.443 24.445 3.443 24.445l-10.01.944-3.024-23.32" fill="#589BF7"/></g><circle cx="116.45" cy="95.146" r=".974" fill="#190000"/><circle cx="116.45" cy="100.788" r=".974" fill="#190000"/><path d="M118.825 56.916a4.77 4.77 0 0 0 .663 2.666.463.463 0 0 0 .801-.468 4.25 4.25 0 0 1-.252-.49c.019.046.018.044-.002-.006a4.65 4.65 0 0 1-.242-.855c-.003-.018-.028-.193-.015-.086a4.338 4.338 0 0 1-.025-.761.467.467 0 0 0-.464-.464.475.475 0 0 0-.464.464zM140.893 70.13c.179.166.349.342.507.528l.12.145c.023.029.033.043.004.005l.063.084a6.196 6.196 0 0 1 .652 1.12c.004.008.038.087.019.04a7.915 7.915 0 0 1 .154.415.463.463 0 1 0 .895-.246 6.58 6.58 0 0 0-1.758-2.748.465.465 0 1 0-.656.656z" fill="#190000"/><path d="M93.026 122.637a22.49 22.49 0 0 0 5.286 3.918c.527.281.996-.52.468-.802a21.62 21.62 0 0 1-5.098-3.772.464.464 0 0 0-.656.656z" fill="#D6DCF2"/><path d="m141.928 148.533-3.963 1.815a.468.468 0 0 0-.167.635c.133.216.413.29.635.167l3.963-1.816a.468.468 0 0 0 .167-.635.475.475 0 0 0-.635-.166z" fill="#11314B"/><path d="M136.992 111.665a4.34 4.34 0 0 1 .267.186c.064.047-.082-.067.026.019a5.543 5.543 0 0 1 .615.578c.049.054.096.108.142.163l.069.084c.052.065-.01-.013.02.027a5.382 5.382 0 0 1 .582.986c.003.005.056.134.022.048.053.135.102.271.146.408a.464.464 0 0 0 .895-.247 5.708 5.708 0 0 0-2.315-3.053.468.468 0 0 0-.635.166.475.475 0 0 0 .167.635h-.001z" fill="#D6DCF2"/><path d="M76.806 136.458a4.804 4.804 0 0 0-1.077 2.878.468.468 0 0 0 .464.464.473.473 0 0 0 .464-.464 4.328 4.328 0 0 1 .034-.427l.03-.168a4.258 4.258 0 0 1 .234-.773c-.036.09.032-.069.04-.084a4.293 4.293 0 0 1 .41-.695l.05-.068c-.028.038-.026.036.007-.006a.476.476 0 0 0 0-.656.468.468 0 0 0-.656 0v-.001z" fill="#11314B"/><path d="M142.322 92.419a5.75 5.75 0 0 1 2.658 3.632c.136.58 1.031.335.895-.247a6.676 6.676 0 0 0-3.085-4.186.465.465 0 0 0-.468.8zM87.382 99.18l-.233.464a.346.346 0 0 0-.055.172.478.478 0 0 0 .222.463l.11.046a.47.47 0 0 0 .247 0l.111-.046a.472.472 0 0 0 .167-.167l.232-.463a.345.345 0 0 0 .055-.173.477.477 0 0 0-.221-.462l-.11-.047a.467.467 0 0 0-.247 0l-.111.047a.466.466 0 0 0-.167.166z" fill="#BA393C"/><path d="m191.314 14.955-3.745-.106-.335-.01a38.713 38.713 0 0 1-16.758-4.332l-.046-.024-3.593-1.86a87.135 87.135 0 0 1 1.497-3.92l.111-.27a4.658 4.658 0 0 1 5.456-2.694l6.028 1.558 8.542 2.209a4.654 4.654 0 0 1 3.465 5.002c-.027.26-.062.517-.093.776a82.319 82.319 0 0 1-.529 3.671z" fill="#FF999A"/><path d="M184.214 36.134a4.654 4.654 0 0 1-3.844.697l-2.298-.594-5.712-1.477-5.066-1.31-1.462-.378a4.658 4.658 0 0 1-3.465-5.014c.045-.41.102-.82.154-1.23a86.943 86.943 0 0 1 4.316-18.206l2.672 1.384.967.5a38.636 38.636 0 0 0 16.843 4.336l3.996.113a87.516 87.516 0 0 1-2.084 9.369 86.686 86.686 0 0 1-3.11 9.088c-.097.239-.191.479-.291.716a4.644 4.644 0 0 1-1.616 2.006z" fill="#FE7578"/><mask id="v" style="mask-type:luminance" maskUnits="userSpaceOnUse" x="162" y="8" width="30" height="29"><path fill-rule="evenodd" clip-rule="evenodd" d="M184.214 36.134a4.654 4.654 0 0 1-3.844.697l-2.298-.594-5.712-1.477-5.066-1.31-1.462-.378a4.658 4.658 0 0 1-3.465-5.014c.045-.41.102-.82.154-1.23a86.943 86.943 0 0 1 4.316-18.206l2.672 1.384.967.5a38.636 38.636 0 0 0 16.843 4.336l3.996.113a87.516 87.516 0 0 1-2.084 9.369 86.686 86.686 0 0 1-3.11 9.088c-.097.239-.191.479-.291.716a4.644 4.644 0 0 1-1.616 2.006z" fill="#fff"/></mask><g mask="url(#v)" fill="#E55A61"><path d="M161.595 30.863c24.806 5.529 24.767-.473 27.328-5.292 2.562-4.818 2.233 10.708 2.233 10.708s-6.251 4.955-6.716 5.087c-.466.133-22.066-5.068-22.066-5.068l-1.876-.573M182.033 18.969a5.673 5.673 0 0 1-4.604.52 5.686 5.686 0 1 1 6.957-7.634 5.683 5.683 0 0 1-2.353 7.114z"/></g><path d="M181.682 17.792a5.668 5.668 0 1 1-5.743-9.773 5.668 5.668 0 0 1 5.743 9.773z" fill="#FFC562"/><path d="M180.837 16.358a4.018 4.018 0 1 1-3.104-7.339 4.024 4.024 0 0 1 5.054 4.379 4.016 4.016 0 0 1-1.95 2.96z" fill="#FF9763"/><path d="M185.14 8.153c.125.028.243.08.349.152.05.032.097.068.14.11.05.046.097.096.141.15.021.025-.005-.009.016.02l.026.037a1.267 1.267 0 0 1 .103.178 1.05 1.05 0 0 1 .106.445.174.174 0 1 0 .348 0 1.534 1.534 0 0 0-1.137-1.427.174.174 0 1 0-.093.335h.001z" fill="#FE7578"/><path d="M169.142 26.892a3.785 3.785 0 0 0 2.695 1.877.18.18 0 0 0 .214-.122.175.175 0 0 0-.122-.214 3.456 3.456 0 0 1-2.486-1.716c-.11-.196-.41-.02-.301.175z" fill="#E55A61"/><ellipse cx="49.436" cy="125.717" rx="10.863" ry="5.716" transform="rotate(-41.61 49.436 125.717)" fill="#FFC562"/><mask id="w" style="mask-type:luminance" maskUnits="userSpaceOnUse" x="40" y="117" width="19" height="18"><ellipse cx="49.436" cy="125.717" rx="10.863" ry="5.716" transform="rotate(-41.61 49.436 125.717)" fill="#fff"/></mask><g mask="url(#w)"><path d="M48.965 116.872c11.495.379 9.714 7.023 8.55 9.836-1.165 2.812 3.567-4.896 3.567-4.896l-1.614-7.476-2.495-.49" fill="#D89D35"/></g><path d="M55.193 119.56c2.413 1.052 1.952 4.711-1.029 8.173-2.982 3.464-7.355 5.419-9.767 4.367-2.413-1.052-1.954-4.712 1.028-8.175 2.982-3.464 7.355-5.417 9.768-4.365z" fill="#E84B23"/><mask id="x" style="mask-type:luminance" maskUnits="userSpaceOnUse" x="42" y="119" width="15" height="14"><path fill-rule="evenodd" clip-rule="evenodd" d="M55.193 119.56c2.413 1.052 1.952 4.711-1.029 8.173-2.982 3.464-7.355 5.419-9.767 4.367-2.413-1.052-1.954-4.712 1.028-8.175 2.982-3.464 7.355-5.417 9.768-4.365z" fill="#fff"/></mask><g mask="url(#x)"><path d="M53.617 119.387c2.413 1.052 1.952 4.712-1.029 8.174-2.982 3.464-7.355 5.418-9.767 4.367-2.413-1.052-1.954-4.712 1.028-8.176 2.981-3.462 7.354-5.416 9.768-4.365z" fill="#FF9763"/></g><path d="m38.034 128.826.035.107c.016.043.033.084.05.125.014.034.026.068.041.101.019.042.04.082.06.123.015.031.03.063.046.093.022.042.047.083.072.124.016.027.031.055.048.082.029.045.06.088.091.131.015.021.029.043.045.063.047.063.097.125.15.184l2.637 2.97a3.262 3.262 0 0 1-.15-.184c-.016-.021-.03-.043-.044-.064-.031-.043-.063-.086-.091-.131l-.049-.082c-.024-.041-.049-.081-.072-.123l-.045-.093c-.02-.041-.041-.081-.06-.123-.015-.033-.027-.067-.04-.101-.017-.041-.035-.083-.05-.125-.013-.035-.024-.072-.035-.107-.014-.043-.029-.085-.041-.129l-.029-.113c-.011-.044-.023-.087-.032-.132l-.023-.118c-.008-.045-.017-.09-.024-.136-.006-.04-.01-.081-.015-.122l-.017-.14-.008-.127c-.004-.047-.007-.095-.009-.143l-.002-.131v-.147l.005-.135.007-.151.012-.138.015-.154.018-.141.022-.157a5.71 5.71 0 0 1 .055-.305l.032-.148.035-.15c.022-.09.046-.182.072-.274a9.875 9.875 0 0 1 .142-.467l.03-.083c.034-.099.07-.199.107-.299l.05-.129c.036-.088.072-.177.11-.266l.06-.138a10.935 10.935 0 0 1 .164-.357l.106-.215c.024-.048.048-.097.074-.146l.123-.231.072-.132c.054-.096.11-.193.167-.289.015-.026.028-.051.044-.076.073-.123.15-.247.228-.371l.067-.102c.058-.089.116-.179.177-.269.031-.047.065-.093.097-.14a8.979 8.979 0 0 1 .274-.385l.164-.222.106-.137c.08-.103.16-.206.244-.309l.102-.126a18.627 18.627 0 0 1 .761-.874l.133-.141c.095-.101.19-.2.287-.299.041-.043.084-.085.126-.127.192-.192.386-.38.583-.563l.036-.032c.192-.177.387-.349.584-.516l.102-.087c.198-.167.4-.329.602-.487l.121-.093c.207-.158.415-.313.624-.461l.056-.038c.201-.141.404-.277.607-.408l.101-.065c.208-.133.417-.26.627-.381l.127-.073c.212-.121.423-.237.635-.346l.07-.035c.202-.103.404-.201.606-.293l.102-.047c.16-.072.32-.141.478-.205l.03-.012a14.7 14.7 0 0 1 .445-.171l.152-.053c.108-.037.215-.074.321-.108l.17-.053a13.028 13.028 0 0 1 .665-.179l.212-.049a6.19 6.19 0 0 1 .183-.036c.07-.014.138-.027.207-.038.06-.011.12-.02.18-.029l.203-.028c.06-.007.118-.014.177-.019a7.2 7.2 0 0 1 .204-.018l.156-.011c.069-.003.137-.006.204-.007l.152-.003c.068 0 .135.002.202.004l.144.005c.07.004.137.01.205.016.044.004.087.007.13.012.065.008.128.018.191.028.047.007.095.013.141.021.066.012.129.027.192.042.043.009.086.017.128.028.07.018.137.039.204.06l.102.031c.1.034.198.071.293.112.076.033.147.07.218.107.045.023.092.045.136.07.062.035.12.075.179.113.038.025.079.048.116.075.062.045.12.094.177.142.029.024.06.046.088.071.082.075.161.154.235.237l-2.637-2.97a2.946 2.946 0 0 0-.236-.236c-.027-.025-.058-.047-.087-.071-.058-.048-.115-.097-.178-.142-.037-.027-.077-.05-.116-.076-.058-.038-.116-.077-.179-.112-.043-.025-.09-.047-.136-.07-.051-.027-.1-.055-.154-.079a3.959 3.959 0 0 0-.357-.141c-.033-.011-.068-.02-.102-.03-.068-.021-.135-.043-.204-.06-.042-.011-.085-.019-.128-.029-.063-.014-.127-.029-.192-.041l-.14-.022c-.054-.008-.107-.018-.162-.025l-.03-.002c-.043-.005-.087-.008-.13-.012-.068-.006-.136-.013-.205-.016-.048-.003-.096-.004-.144-.005-.067-.002-.134-.004-.202-.004l-.152.002c-.067.002-.135.004-.204.008l-.157.01-.102.007-.101.011-.177.02c-.067.008-.135.018-.203.028l-.18.028-.208.038-.182.037-.212.048-.185.045-.07.017-.103.03a12.34 12.34 0 0 0-.307.088l-.17.053c-.106.034-.213.07-.32.108l-.154.053c-.146.053-.293.11-.44.169l-.034.014c-.16.064-.319.133-.479.205l-.037.016-.064.031c-.201.092-.403.19-.606.293l-.07.035c-.211.109-.423.225-.635.346l-.127.073c-.21.122-.419.249-.627.381l-.1.065c-.204.131-.407.268-.61.409l-.053.037c-.21.148-.418.302-.625.461l-.121.093c-.203.158-.403.32-.602.487l-.102.087c-.197.168-.391.34-.584.516l-.036.033c-.197.182-.391.371-.583.563-.02.021-.043.041-.064.062l-.062.065c-.096.098-.192.197-.286.298l-.134.141a19.715 19.715 0 0 0-.761.874l-.102.127c-.083.103-.164.206-.244.308-.02.026-.042.052-.061.078l-.045.06c-.055.074-.11.147-.163.221l-.112.153c-.056.077-.109.154-.162.232l-.098.141c-.06.088-.118.177-.175.266l-.069.105c-.078.124-.154.247-.227.37l-.004.006-.044.076-.163.282-.073.135c-.041.076-.083.153-.122.229-.026.049-.05.098-.075.148l-.105.212-.072.153-.093.205-.027.06-.032.078a14.25 14.25 0 0 0-.16.395 9.708 9.708 0 0 0-.109.301c-.009.027-.02.054-.028.081-.042.125-.081.25-.117.373l-.026.094a9.67 9.67 0 0 0-.071.275l-.014.053-.021.097-.032.148a8.078 8.078 0 0 0-.077.461l-.019.142a5.726 5.726 0 0 0-.033.443l-.005.135v.146l.003.132.008.143c.003.042.005.085.01.127.003.047.01.093.015.139l.016.123c.007.046.016.091.025.136l.022.118.032.132c.01.038.018.076.029.113.01.042.025.085.038.127z" fill="#FF9763"/><mask id="y" style="mask-type:luminance" maskUnits="userSpaceOnUse" x="37" y="114" width="21" height="19"><path fill-rule="evenodd" clip-rule="evenodd" d="m38.034 128.826.035.107c.016.043.033.084.05.125.014.034.026.068.041.101.019.042.04.082.06.123.015.031.03.063.046.093.022.042.047.083.072.124.016.027.031.055.048.082.029.045.06.088.091.131.015.021.029.043.045.063.047.063.097.125.15.184l2.637 2.97a3.262 3.262 0 0 1-.15-.184c-.016-.021-.03-.043-.044-.064-.031-.043-.063-.086-.091-.131l-.049-.082c-.024-.041-.049-.081-.072-.123l-.045-.093c-.02-.041-.041-.081-.06-.123-.015-.033-.027-.067-.04-.101-.017-.041-.035-.083-.05-.125-.013-.035-.024-.072-.035-.107-.014-.043-.029-.085-.041-.129l-.029-.113c-.011-.044-.023-.087-.032-.132l-.023-.118c-.008-.045-.017-.09-.024-.136-.006-.04-.01-.081-.015-.122l-.017-.14-.008-.127c-.004-.047-.007-.095-.009-.143l-.002-.131v-.147l.005-.135.007-.151.012-.138.015-.154.018-.141.022-.157a5.71 5.71 0 0 1 .055-.305l.032-.148.035-.15c.022-.09.046-.182.072-.274a9.875 9.875 0 0 1 .142-.467l.03-.083c.034-.099.07-.199.107-.299l.05-.129c.036-.088.072-.177.11-.266l.06-.138a10.935 10.935 0 0 1 .164-.357l.106-.215c.024-.048.048-.097.074-.146l.123-.231.072-.132c.054-.096.11-.193.167-.289.015-.026.028-.051.044-.076.073-.123.15-.247.228-.371l.067-.102c.058-.089.116-.179.177-.269.031-.047.065-.093.097-.14a8.979 8.979 0 0 1 .274-.385l.164-.222.106-.137c.08-.103.16-.206.244-.309l.102-.126a18.627 18.627 0 0 1 .761-.874l.133-.141c.095-.101.19-.2.287-.299.041-.043.084-.085.126-.127.192-.192.386-.38.583-.563l.036-.032c.192-.177.387-.349.584-.516l.102-.087c.198-.167.4-.329.602-.487l.121-.093c.207-.158.415-.313.624-.461l.056-.038c.201-.141.404-.277.607-.408l.101-.065c.208-.133.417-.26.627-.381l.127-.073c.212-.121.423-.237.635-.346l.07-.035c.202-.103.404-.201.606-.293l.102-.047c.16-.072.32-.141.478-.205l.03-.012a14.7 14.7 0 0 1 .445-.171l.152-.053c.108-.037.215-.074.321-.108l.17-.053a13.028 13.028 0 0 1 .665-.179l.212-.049a6.19 6.19 0 0 1 .183-.036c.07-.014.138-.027.207-.038.06-.011.12-.02.18-.029l.203-.028c.06-.007.118-.014.177-.019a7.2 7.2 0 0 1 .204-.018l.156-.011c.069-.003.137-.006.204-.007l.152-.003c.068 0 .135.002.202.004l.144.005c.07.004.137.01.205.016.044.004.087.007.13.012.065.008.128.018.191.028.047.007.095.013.141.021.066.012.129.027.192.042.043.009.086.017.128.028.07.018.137.039.204.06l.102.031c.1.034.198.071.293.112.076.033.147.07.218.107.045.023.092.045.136.07.062.035.12.075.179.113.038.025.079.048.116.075.062.045.12.094.177.142.029.024.06.046.088.071.082.075.161.154.235.237l-2.637-2.97a2.946 2.946 0 0 0-.236-.236c-.027-.025-.058-.047-.087-.071-.058-.048-.115-.097-.178-.142-.037-.027-.077-.05-.116-.076-.058-.038-.116-.077-.179-.112-.043-.025-.09-.047-.136-.07-.051-.027-.1-.055-.154-.079a3.959 3.959 0 0 0-.357-.141c-.033-.011-.068-.02-.102-.03-.068-.021-.135-.043-.204-.06-.042-.011-.085-.019-.128-.029-.063-.014-.127-.029-.192-.041l-.14-.022c-.054-.008-.107-.018-.162-.025l-.03-.002c-.043-.005-.087-.008-.13-.012-.068-.006-.136-.013-.205-.016-.048-.003-.096-.004-.144-.005-.067-.002-.134-.004-.202-.004l-.152.002c-.067.002-.135.004-.204.008l-.157.01-.102.007-.101.011-.177.02c-.067.008-.135.018-.203.028l-.18.028-.208.038-.182.037-.212.048-.185.045-.07.017-.103.03a12.34 12.34 0 0 0-.307.088l-.17.053c-.106.034-.213.07-.32.108l-.154.053c-.146.053-.293.11-.44.169l-.034.014c-.16.064-.319.133-.479.205l-.037.016-.064.031c-.201.092-.403.19-.606.293l-.07.035c-.211.109-.423.225-.635.346l-.127.073c-.21.122-.419.249-.627.381l-.1.065c-.204.131-.407.268-.61.409l-.053.037c-.21.148-.418.302-.625.461l-.121.093c-.203.158-.403.32-.602.487l-.102.087c-.197.168-.391.34-.584.516l-.036.033c-.197.182-.391.371-.583.563-.02.021-.043.041-.064.062l-.062.065c-.096.098-.192.197-.286.298l-.134.141a19.715 19.715 0 0 0-.761.874l-.102.127c-.083.103-.164.206-.244.308-.02.026-.042.052-.061.078l-.045.06c-.055.074-.11.147-.163.221l-.112.153c-.056.077-.109.154-.162.232l-.098.141c-.06.088-.118.177-.175.266l-.069.105c-.078.124-.154.247-.227.37l-.004.006-.044.076-.163.282-.073.135c-.041.076-.083.153-.122.229-.026.049-.05.098-.075.148l-.105.212-.072.153-.093.205-.027.06-.032.078a14.25 14.25 0 0 0-.16.395 9.708 9.708 0 0 0-.109.301c-.009.027-.02.054-.028.081-.042.125-.081.25-.117.373l-.026.094a9.67 9.67 0 0 0-.071.275l-.014.053-.021.097-.032.148a8.078 8.078 0 0 0-.077.461l-.019.142a5.726 5.726 0 0 0-.033.443l-.005.135v.146l.003.132.008.143c.003.042.005.085.01.127.003.047.01.093.015.139l.016.123c.007.046.016.091.025.136l.022.118.032.132c.01.038.018.076.029.113.01.042.025.085.038.127z" fill="#fff"/></mask><g mask="url(#y)"><path d="M49.131 114.831c-15.638 5.68-7.65 20.814-7.65 20.814l-5.47-4.368.184-12.417 8.162-3.054" fill="#E84B23"/></g><path d="m54.247 122.551.978.497-4.291 2.499.938.478-1.014 1.015-1.297-.658-.584.584 1.304.662-1.015 1.015-1.304-.662-1.408 1.41-.895-.457 1.409-1.409-1.305-.663 1.015-1.015 1.303.663.585-.585-1.304-.663 1.014-1.014.94.477 1.918-3.707 1.008.513-1.904 3.429 3.909-2.409zM48.258 123.369a1.477 1.477 0 0 0-1.066.892.148.148 0 0 0 .103.182.153.153 0 0 0 .183-.103l.007-.016.015-.032.037-.069c.026-.044.054-.087.085-.129-.016.023.01-.013.011-.014l.023-.027.052-.057a1.4 1.4 0 0 1 .151-.133l.07-.047c.044-.028.09-.053.136-.075l.032-.015.01-.004.073-.026c.051-.017.104-.03.157-.04a.15.15 0 0 0 .103-.183.152.152 0 0 0-.182-.103v-.001zM46.726 117.59l-.272.058a.149.149 0 0 0-.035.271.162.162 0 0 0 .114.015l.271-.058a.149.149 0 0 0 .036-.271.162.162 0 0 0-.114-.015z" fill="#E84B23"/><ellipse cx="193.226" cy="114.542" rx="9.25" ry="17.58" transform="rotate(-54.986 193.226 114.542)" fill="#FFC562"/><mask id="z" style="mask-type:luminance" maskUnits="userSpaceOnUse" x="177" y="101" width="32" height="27"><ellipse cx="193.226" cy="114.542" rx="9.25" ry="17.58" transform="rotate(-54.986 193.226 114.542)" fill="#fff"/></mask><g mask="url(#z)"><path d="M179.292 117.107c-4.88-15.24 7.72-15.744 16.729-13.458 9.009 2.286-13.839-7.337-13.839-7.337l-9.555 5.028" fill="#D89D35"/></g><path d="M181.378 107.784c.753-4.193 6.687-4.837 13.254-1.441 6.569 3.399 11.283 9.552 10.531 13.744-.753 4.194-6.687 4.839-13.256 1.44-6.567-3.396-11.281-9.55-10.529-13.743z" fill="#FF9763"/><path d="M202.391 131.329c.051-.032.104-.062.155-.095.061-.041.119-.084.178-.126.048-.034.097-.066.144-.102.059-.045.114-.092.17-.139.044-.036.088-.071.13-.108.058-.051.113-.106.168-.159.037-.036.075-.07.111-.107.06-.062.116-.128.172-.193.028-.031.057-.061.084-.093.081-.099.159-.2.232-.305l3.688-5.265a4.637 4.637 0 0 1-.232.306c-.027.032-.057.062-.084.094-.057.064-.113.13-.172.192-.036.037-.075.071-.112.107-.055.053-.109.108-.167.159-.041.037-.086.071-.129.107-.056.047-.113.095-.171.14-.047.035-.095.068-.143.102-.059.042-.118.085-.179.125-.051.033-.104.064-.155.096-.063.037-.124.076-.188.112-.054.03-.111.059-.166.087-.065.034-.129.069-.196.101a7.327 7.327 0 0 1-.178.079c-.068.03-.135.061-.205.089l-.186.07c-.071.026-.142.053-.215.078-.064.022-.13.041-.196.061a6.504 6.504 0 0 1-.223.067c-.067.019-.137.036-.205.053-.077.019-.153.038-.231.055-.07.016-.142.03-.214.044-.08.015-.159.031-.24.044-.073.013-.147.023-.221.034-.083.012-.165.024-.249.034a8.042 8.042 0 0 1-.229.024c-.085.009-.17.017-.256.024-.079.006-.158.01-.238.015a11.22 11.22 0 0 1-.262.012c-.081.003-.163.004-.246.006l-.248.001a14.305 14.305 0 0 1-.459-.01l-.159-.005c-.207-.01-.417-.025-.63-.044l-.142-.015a16.032 16.032 0 0 1-.511-.059c-.073-.009-.147-.02-.221-.031a19.838 19.838 0 0 1-.46-.072l-.24-.042c-.119-.022-.238-.046-.358-.07a25.114 25.114 0 0 1-.266-.055c-.125-.027-.251-.057-.377-.087l-.258-.061a24.958 24.958 0 0 1-.409-.108c-.079-.022-.157-.041-.236-.064-.171-.048-.344-.101-.517-.154l-.136-.04c-.222-.07-.444-.143-.669-.221-.061-.021-.124-.045-.185-.067-.163-.058-.326-.116-.491-.178-.085-.032-.17-.066-.255-.1a25.39 25.39 0 0 1-.429-.169c-.094-.038-.188-.078-.282-.118a27.897 27.897 0 0 1-.409-.175l-.256-.115a27 27 0 0 1-.814-.382 29.77 29.77 0 0 1-1.662-.872c-.091-.051-.181-.104-.271-.156a33.68 33.68 0 0 1-.579-.34l-.247-.151c-.373-.23-.743-.465-1.104-.707l-.065-.045c-.35-.236-.694-.478-1.031-.726-.058-.043-.118-.085-.175-.128a30.587 30.587 0 0 1-1.184-.922 33.24 33.24 0 0 1-1.04-.883 30.46 30.46 0 0 1-.869-.803l-.141-.134a27.6 27.6 0 0 1-.834-.845l-.163-.173a28.445 28.445 0 0 1-.864-.967c-.238-.28-.467-.561-.687-.844l-.113-.142a23.136 23.136 0 0 1-.502-.677l-.031-.044c-.15-.212-.294-.423-.434-.635l-.141-.22c-.099-.155-.196-.31-.29-.465l-.147-.248c-.087-.15-.172-.3-.253-.45a22.009 22.009 0 0 1-.139-.255c-.048-.092-.093-.183-.139-.275a13.215 13.215 0 0 1-.419-.902 15.747 15.747 0 0 1-.232-.582c-.034-.091-.066-.181-.098-.271a23.022 23.022 0 0 1-.105-.313l-.074-.243a10.201 10.201 0 0 1-.089-.319c-.021-.08-.042-.159-.061-.238a9.136 9.136 0 0 1-.069-.32c-.016-.076-.033-.153-.046-.228-.02-.111-.036-.22-.052-.329l-.03-.21c-.012-.105-.019-.207-.028-.311-.006-.076-.015-.154-.019-.23-.005-.107-.005-.212-.006-.318-.001-.07-.005-.141-.003-.211.002-.116.01-.23.018-.345.004-.057.004-.114.01-.171.016-.17.037-.338.066-.503.023-.132.057-.257.088-.384.019-.08.036-.163.059-.241.032-.111.072-.217.111-.323.025-.071.047-.143.075-.211.047-.115.102-.224.157-.333.027-.054.05-.111.079-.164.086-.158.181-.312.284-.46l-3.688 5.264a4.944 4.944 0 0 0-.284.46c-.029.053-.052.109-.079.163-.055.11-.11.219-.157.334-.028.068-.05.14-.075.211-.039.106-.079.212-.111.323-.023.078-.04.161-.059.241-.022.091-.049.179-.067.272l-.021.112a6.338 6.338 0 0 0-.066.503c-.006.056-.006.115-.01.172-.008.114-.016.228-.018.344-.001.07.002.141.003.211.001.106.001.211.007.318.004.076.012.153.018.23.007.087.012.175.022.263.001.017.005.033.006.048.008.069.021.14.03.21.017.109.032.219.052.329.013.076.03.152.045.228.022.106.045.213.07.32.019.079.04.159.061.238a9.414 9.414 0 0 0 .163.562c.017.053.031.105.049.158.017.052.038.103.056.155a9.778 9.778 0 0 0 .217.581 12.052 12.052 0 0 0 .249.585c.042.091.083.182.127.274a15.263 15.263 0 0 0 .295.589l.052.103c.027.051.058.102.086.153a20.442 20.442 0 0 0 .69 1.162c.048.074.093.148.142.221.139.211.282.421.431.632l.033.047c.162.226.33.452.503.677l.039.053.072.088c.221.283.45.565.688.845l.082.097c.251.293.513.582.783.871l.162.173c.27.284.548.565.834.844l.141.134c.283.271.573.54.871.805l.079.072a33.518 33.518 0 0 0 2.143 1.732l.175.127c.338.247.681.489 1.031.726l.065.045c.362.243.731.477 1.104.707.042.025.081.053.123.078l.125.074c.191.115.383.227.577.338.091.053.181.106.273.158a32.592 32.592 0 0 0 1.66.872l.238.113c.193.092.385.182.577.268l.146.068.11.047c.137.06.273.118.409.175.094.04.189.081.283.119.142.058.284.113.426.168.086.034.172.069.258.101.162.061.324.119.485.176l.191.069c.224.077.446.151.667.22l.011.004.137.041c.169.052.338.103.506.15.08.023.159.043.239.065.135.037.271.073.406.107.087.022.174.042.26.062.126.03.251.059.375.086.089.02.178.037.267.055.12.025.239.049.357.07l.106.021.134.021a20.717 20.717 0 0 0 .682.104c.173.022.344.042.514.058l.138.015c.213.019.424.034.631.044l.158.005c.155.006.308.01.46.01l.089.002c.054 0 .106-.003.16-.003.082-.002.164-.003.245-.006.088-.003.175-.007.262-.012.08-.005.16-.009.239-.015l.254-.023.231-.025c.083-.01.165-.022.246-.034.075-.011.15-.021.224-.034l.238-.044c.072-.015.144-.028.215-.044.078-.017.154-.036.231-.055.069-.018.138-.034.206-.053.075-.021.148-.044.221-.066l.198-.062a7.72 7.72 0 0 0 .213-.078l.188-.07a9.62 9.62 0 0 0 .204-.089c.06-.026.12-.052.177-.079.067-.033.132-.067.197-.101.056-.029.112-.057.166-.087.064-.037.126-.075.188-.113z" fill="#FF9763"/><mask id="A" style="mask-type:luminance" maskUnits="userSpaceOnUse" x="174" y="104" width="34" height="29"><path fill-rule="evenodd" clip-rule="evenodd" d="M202.391 131.329c.051-.032.104-.062.155-.095.061-.041.119-.084.178-.126.048-.034.097-.066.144-.102.059-.045.114-.092.17-.139.044-.036.088-.071.13-.108.058-.051.113-.106.168-.159.037-.036.075-.07.111-.107.06-.062.116-.128.172-.193.028-.031.057-.061.084-.093.081-.099.159-.2.232-.305l3.688-5.265a4.637 4.637 0 0 1-.232.306c-.027.032-.057.062-.084.094-.057.064-.113.13-.172.192-.036.037-.075.071-.112.107-.055.053-.109.108-.167.159-.041.037-.086.071-.129.107-.056.047-.113.095-.171.14-.047.035-.095.068-.143.102-.059.042-.118.085-.179.125-.051.033-.104.064-.155.096-.063.037-.124.076-.188.112-.054.03-.111.059-.166.087-.065.034-.129.069-.196.101a7.327 7.327 0 0 1-.178.079c-.068.03-.135.061-.205.089l-.186.07c-.071.026-.142.053-.215.078-.064.022-.13.041-.196.061a6.504 6.504 0 0 1-.223.067c-.067.019-.137.036-.205.053-.077.019-.153.038-.231.055-.07.016-.142.03-.214.044-.08.015-.159.031-.24.044-.073.013-.147.023-.221.034-.083.012-.165.024-.249.034a8.042 8.042 0 0 1-.229.024c-.085.009-.17.017-.256.024-.079.006-.158.01-.238.015a11.22 11.22 0 0 1-.262.012c-.081.003-.163.004-.246.006l-.248.001a14.305 14.305 0 0 1-.459-.01l-.159-.005c-.207-.01-.417-.025-.63-.044l-.142-.015a16.032 16.032 0 0 1-.511-.059c-.073-.009-.147-.02-.221-.031a19.838 19.838 0 0 1-.46-.072l-.24-.042c-.119-.022-.238-.046-.358-.07a25.114 25.114 0 0 1-.266-.055c-.125-.027-.251-.057-.377-.087l-.258-.061a24.958 24.958 0 0 1-.409-.108c-.079-.022-.157-.041-.236-.064-.171-.048-.344-.101-.517-.154l-.136-.04c-.222-.07-.444-.143-.669-.221-.061-.021-.124-.045-.185-.067-.163-.058-.326-.116-.491-.178-.085-.032-.17-.066-.255-.1a25.39 25.39 0 0 1-.429-.169c-.094-.038-.188-.078-.282-.118a27.897 27.897 0 0 1-.409-.175l-.256-.115a27 27 0 0 1-.814-.382 29.77 29.77 0 0 1-1.662-.872c-.091-.051-.181-.104-.271-.156a33.68 33.68 0 0 1-.579-.34l-.247-.151c-.373-.23-.743-.465-1.104-.707l-.065-.045c-.35-.236-.694-.478-1.031-.726-.058-.043-.118-.085-.175-.128a30.587 30.587 0 0 1-1.184-.922 33.24 33.24 0 0 1-1.04-.883 30.46 30.46 0 0 1-.869-.803l-.141-.134a27.6 27.6 0 0 1-.834-.845l-.163-.173a28.445 28.445 0 0 1-.864-.967c-.238-.28-.467-.561-.687-.844l-.113-.142a23.136 23.136 0 0 1-.502-.677l-.031-.044c-.15-.212-.294-.423-.434-.635l-.141-.22c-.099-.155-.196-.31-.29-.465l-.147-.248c-.087-.15-.172-.3-.253-.45a22.009 22.009 0 0 1-.139-.255c-.048-.092-.093-.183-.139-.275a13.215 13.215 0 0 1-.419-.902 15.747 15.747 0 0 1-.232-.582c-.034-.091-.066-.181-.098-.271a23.022 23.022 0 0 1-.105-.313l-.074-.243a10.201 10.201 0 0 1-.089-.319c-.021-.08-.042-.159-.061-.238a9.136 9.136 0 0 1-.069-.32c-.016-.076-.033-.153-.046-.228-.02-.111-.036-.22-.052-.329l-.03-.21c-.012-.105-.019-.207-.028-.311-.006-.076-.015-.154-.019-.23-.005-.107-.005-.212-.006-.318-.001-.07-.005-.141-.003-.211.002-.116.01-.23.018-.345.004-.057.004-.114.01-.171.016-.17.037-.338.066-.503.023-.132.057-.257.088-.384.019-.08.036-.163.059-.241.032-.111.072-.217.111-.323.025-.071.047-.143.075-.211.047-.115.102-.224.157-.333.027-.054.05-.111.079-.164.086-.158.181-.312.284-.46l-3.688 5.264a4.944 4.944 0 0 0-.284.46c-.029.053-.052.109-.079.163-.055.11-.11.219-.157.334-.028.068-.05.14-.075.211-.039.106-.079.212-.111.323-.023.078-.04.161-.059.241-.022.091-.049.179-.067.272l-.021.112a6.338 6.338 0 0 0-.066.503c-.006.056-.006.115-.01.172-.008.114-.016.228-.018.344-.001.07.002.141.003.211.001.106.001.211.007.318.004.076.012.153.018.23.007.087.012.175.022.263.001.017.005.033.006.048.008.069.021.14.03.21.017.109.032.219.052.329.013.076.03.152.045.228.022.106.045.213.07.32.019.079.04.159.061.238a9.414 9.414 0 0 0 .163.562c.017.053.031.105.049.158.017.052.038.103.056.155a9.778 9.778 0 0 0 .217.581 12.052 12.052 0 0 0 .249.585c.042.091.083.182.127.274a15.263 15.263 0 0 0 .295.589l.052.103c.027.051.058.102.086.153a20.442 20.442 0 0 0 .69 1.162c.048.074.093.148.142.221.139.211.282.421.431.632l.033.047c.162.226.33.452.503.677l.039.053.072.088c.221.283.45.565.688.845l.082.097c.251.293.513.582.783.871l.162.173c.27.284.548.565.834.844l.141.134c.283.271.573.54.871.805l.079.072a33.518 33.518 0 0 0 2.143 1.732l.175.127c.338.247.681.489 1.031.726l.065.045c.362.243.731.477 1.104.707.042.025.081.053.123.078l.125.074c.191.115.383.227.577.338.091.053.181.106.273.158a32.592 32.592 0 0 0 1.66.872l.238.113c.193.092.385.182.577.268l.146.068.11.047c.137.06.273.118.409.175.094.04.189.081.283.119.142.058.284.113.426.168.086.034.172.069.258.101.162.061.324.119.485.176l.191.069c.224.077.446.151.667.22l.011.004.137.041c.169.052.338.103.506.15.08.023.159.043.239.065.135.037.271.073.406.107.087.022.174.042.26.062.126.03.251.059.375.086.089.02.178.037.267.055.12.025.239.049.357.07l.106.021.134.021a20.717 20.717 0 0 0 .682.104c.173.022.344.042.514.058l.138.015c.213.019.424.034.631.044l.158.005c.155.006.308.01.46.01l.089.002c.054 0 .106-.003.16-.003.082-.002.164-.003.245-.006.088-.003.175-.007.262-.012.08-.005.16-.009.239-.015l.254-.023.231-.025c.083-.01.165-.022.246-.034.075-.011.15-.021.224-.034l.238-.044c.072-.015.144-.028.215-.044.078-.017.154-.036.231-.055.069-.018.138-.034.206-.053.075-.021.148-.044.221-.066l.198-.062a7.72 7.72 0 0 0 .213-.078l.188-.07a9.62 9.62 0 0 0 .204-.089c.06-.026.12-.052.177-.079.067-.033.132-.067.197-.101.056-.029.112-.057.166-.087.064-.037.126-.075.188-.113z" fill="#fff"/></mask><g mask="url(#A)"><path d="M209.391 126.213c-8.264 7.637-24.624 1.538-24.624 1.538l2.912 9.719s12.46 1.821 16.801-1.969l4.341-3.791" fill="#E84B23"/></g><path d="M195.719 110.874a18.94 18.94 0 0 1 1.63 4.043.294.294 0 0 0 .36.196.294.294 0 0 0 .208-.353 19.608 19.608 0 0 0-1.689-4.184c-.182-.333-.691-.036-.509.298zM183.426 124.925l1.973.882c.141.076.318.03.403-.106a.296.296 0 0 0-.106-.403l-1.972-.882a.303.303 0 0 0-.403.106.297.297 0 0 0 .105.403z" fill="#E84B23"/></g></svg>